<?xml version="1.0" standalone="no"?>
<!DOCTYPE svg PUBLIC "-//W3C//DTD SVG 1.1//EN" "http://www.w3.org/Graphics/SVG/1.1/DTD/svg11.dtd" >
<svg xmlns="http://www.w3.org/2000/svg">
<metadata></metadata>
<defs>
<font id="usis_1949regular" horiz-adv-x="1200" >
<font-face units-per-em="2048" ascent="1638" descent="-410" />
<missing-glyph horiz-adv-x="1000" />
<glyph horiz-adv-x="0" />
<glyph unicode="&#xd;" horiz-adv-x="1001" />
<glyph unicode=" "  horiz-adv-x="1000" />
<glyph unicode="&#x09;" horiz-adv-x="1000" />
<glyph unicode="&#xa0;" horiz-adv-x="1000" />
<glyph unicode="!" horiz-adv-x="664" d="M184 1558h41q0 -17 37 -47l5 5h5q16 0 47 -47h5v-11l-16 -26q26 -42 26 -68q0 -27 -15 -27l10 -57v-22q-22 -108 -42 -136q21 -34 21 -52q-3 -39 -15 -53v-11h11v-20q-12 0 -42 -58l21 -37q-13 -58 -32 -58v-21l47 -52v-11q-21 -21 -21 -74l31 -20q-4 -17 -21 -22l-4 -20 l10 -27l-6 -5v-5l6 -16l-31 -152l-20 -74q0 -21 -11 -21l-10 11v-5l-6 5h-5q-23 -16 -47 -16q-45 37 -45 68h4l-25 69l4 84q-14 47 -25 47q-20 0 -20 26l35 90v10l-15 37l5 26l-5 31l25 111v6l-41 157l-21 36l-15 58l36 136q-15 0 -15 27l15 15l-4 6v5q3 47 30 84l5 16h6 l21 -5q22 10 25 21v47q41 13 41 42zM104 -104q-19 8 -25 8q-16 40 -36 40q-8 32 -18 32l3 33q0 25 -32 42q10 49 22 49v3l-4 4v6q7 30 18 30q0 29 104 49q7 26 14 26h8l28 -10q25 -7 40 -7l18 7v-3q28 -2 28 -20l18 -13h4l4 3h7l54 -55l14 -56q-7 -13 -18 -13v-16l4 -3 l-18 -23l3 -20q-12 -32 -43 -32q-22 -40 -32 -40q-12 -26 -29 -29l-68 -18l-40 12v3z" />
<glyph unicode="&#x22;" horiz-adv-x="965" d="M108 1660q12 0 12 -16h8q2 16 12 16h4q7 0 20 -40l12 -12l4 4h20q28 -23 28 -48h-4l4 -4v-8l-4 -4l40 -88q0 -19 -36 -32l-4 -4v-4q0 -14 32 -52v-8q0 -20 -24 -40l-20 -76q-25 0 -28 -40v-4q0 -104 24 -104l4 -4l-12 -32q10 0 24 -36q-16 -40 -24 -40v-8q12 -31 24 -112 l4 -4q-24 -20 -24 -60l8 -24l-8 -28l4 -4h-4l4 -4v-4q0 -13 -20 -36l4 -20q-8 0 -8 -12h-16q-5 32 -24 32l-12 -8q-44 0 -44 52v16q-12 0 -20 28q24 14 24 36q0 27 -48 68q0 10 -32 40v8q24 0 24 20h-4l-20 16q6 68 28 68q0 6 32 16v8l-8 12l8 8q-12 0 -28 36l4 28l-20 44 l-28 36v20q16 17 16 64h-4l16 40q-6 44 -12 44l4 4v20l-8 12l4 16l-4 12l4 36v12q16 0 16 32q9 0 12 28q21 0 32 48q13 0 24 40h8zM556 1628q8 -8 8 -36l8 -8l4 -12h4l-4 -4q0 -34 36 -64l24 20h16l16 -32l8 -8v-16q-28 0 -28 -32l-16 -4v-8l4 -20l-32 -8v-8q24 -15 24 -28 l-32 -32v-4l4 -24l-8 -20l4 -20l-24 -56l4 -4v-4l-16 -68v-16q7 -6 12 -52l20 -16l-4 -4v-8q12 0 12 -12l-4 -4q12 0 12 -20q6 0 24 -32v-8q0 -11 -40 -16l-4 -28h4l-12 -100h4l-4 -4l4 -28q0 -16 -44 -60q0 -41 -72 -52l-8 -8h-8q0 9 -36 44l12 64l-4 28l4 12l-4 20l4 36 l-8 28l4 20l-4 4v4l4 24v4l-16 24q0 33 12 80q-12 80 -32 80v4q11 40 16 40h4q0 43 -28 108l-4 4h4l-12 48l4 20v16l-8 24q36 82 36 132l4 4q0 5 28 12l12 28h12q24 0 76 32l-4 20h4z" />
<glyph unicode="#" horiz-adv-x="1487" d="M1059 1692q-1 -19 21 -61q-16 -26 -17 -55q18 -37 21 -65l-4 -4l-1 -28l12 -16l-48 -110l4 -1l-4 -3l-1 -8l8 -13v-4l-4 4l-4 1v-4l3 -29l-4 1q-18 0 -41 -27l11 -16v-4l-4 -4l4 -4l-1 -16q-13 -26 -25 -32l4 -4v-8q-1 -19 -22 -39l8 -16q-15 -104 -52 -102l-4 -4v-4 l4 -4v-4l-9 -8v-4h4l4 4l4 -1q0 -16 20 -16l40 10h8l20 -17h8q0 12 33 39l27 -17q1 12 9 12l12 -1l12 -8l4 4h4l4 -5l8 8h12q26 -1 30 -45l12 -13l-9 -16l12 -20q-1 -11 -22 -31q0 -15 -25 -47l-33 -19q0 -11 -28 -15q0 8 -12 8q-1 25 -15 41l4 4l1 4l-4 4h-4l-1 -8l-12 -4 l-4 4l-16 1l-8 -8v-4l4 4h8v-4q-25 -20 -25 -35h-12q-8 0 -8 16l-31 18h-24q-35 2 -53 -26l3 -28q-8 0 -33 -35q-12 1 -13 -11l-12 -12l4 -4l-5 -28l-20 1q-19 10 -27 25l4 4l1 24q-16 18 -15 36q0 16 16 16l1 8l-23 28l-25 -11l-12 5q-4 -20 -20 -20l-4 4l-8 -7 q-31 12 -35 25l4 4h-4l-25 -19l-20 1q-28 1 -27 25q-24 -8 -25 -20q-14 13 -27 13l-16 1q-2 -32 -45 -31q-1 -12 -38 -34l-8 -12h4q-9 -24 -33 -23l-9 -16v-8q0 -17 15 -28v-8h4l-4 -4l-1 -28l3 -24l-17 -28l19 -24l29 15l59 -27l56 11l36 -10v4l4 -4h4q48 13 49 30 q11 20 33 19q-1 -8 23 -17q15 3 29 31l24 3l8 -8l4 4h4q5 -16 19 -25l4 4q51 -2 64 -26q-1 -8 11 -9l29 19l28 -12v8l-4 12q24 4 25 15h4l39 -14q1 13 41 15q0 8 28 7v-8l28 -1q22 -1 31 -21l-1 -32l7 -24q-1 -28 -57 -26q-20 -20 -32 -19l-32 13v-4q0 -10 -37 -11l-7 12 l-4 -4l-8 1q-14 0 -28 13v-4l-20 8l-16 -19l-20 5q-68 -1 -68 -6l-37 -27q-1 -20 -26 -39l-7 8l-4 1l-1 -8h-4l-27 13l-12 4l-24 -3q-14 24 -39 25l-4 4v-4l-24 9l-37 -10l-31 9l-4 -4h-4l-12 4l-1 -8l-63 15l-32 1l-25 -15l-11 4q-36 -29 -62 -38l7 -32q-1 -20 -29 -27 l-13 -36l42 -45q16 -3 16 -13l-9 -27h-20l-12 9q-6 0 -25 -43l3 -21v-4q-3 -76 -39 -74l-11 -80v-4q-24 1 -25 -47l3 -16l-9 -24v-8l3 -24q-9 -44 -29 -43q-1 -8 -25 -7q-5 -19 -25 -31l1 8h-4l-13 -4l1 16h-4l-4 -4l-4 1l-17 88q35 94 36 131q21 11 22 31q16 0 16 12l-4 12 l18 59l-3 12l26 56q-15 24 -15 36q25 15 37 15l4 -4q12 -1 29 51q18 -1 25 27l-3 16l9 24l-11 32l-16 1l-16 4q-9 0 -29 -23h-4q-12 1 -15 29l-40 -3q0 -8 -16 -7q-1 -12 -9 -12l-12 5l-4 -4l-4 4l1 4l4 4q-3 40 -19 40q0 10 -34 54q26 55 74 53q0 7 28 7h12l8 -9l4 4h8 q-1 -20 31 -21q24 -2 24 -9q22 17 57 22q18 24 37 27l18 71q2 41 27 67v8l-8 1v4l8 -1v4q-12 41 -42 42q-1 -8 -13 -8q-9 -24 -20 -23l-12 8l-4 -4l-8 1q-17 24 -31 25l-44 9l-8 9q-4 -12 -24 -12l-8 1q-44 1 -55 46l13 11l-4 4v4h4l-7 21q8 -1 8 15l4 4h4l12 -8 q14 35 21 35l4 -4q1 16 21 23h12l31 -30l88 -11q14 0 40 15l12 -8l4 -1l45 35l12 -5l-4 5q22 51 32 107q8 -1 23 75q8 0 13 39l24 11q1 8 -11 9v12q16 10 26 63q25 15 29 127l9 36l4 4v4q1 20 -23 36l1 8q65 26 66 50q16 58 67 86q0 7 24 11l4 -4l4 4q0 -8 20 -9l7 -16 l-4 -4l4 -12q-1 -30 -18 -48v-8l2 -40l-5 -24l4 -12q-1 -27 -21 -39q-1 -11 -42 -55q-16 1 -17 -31l3 -24q-15 -27 -34 -39l4 -12l-13 -12v-12l4 -4q0 -7 -33 -31l12 -4q-12 -132 -41 -143q-17 -17 -18 -35v-4q12 -1 11 -28q11 -5 30 -54l16 -8l4 4l16 -1l4 -4l4 4l16 -1 l64 -10l8 8l12 -9l12 8h4q28 -21 27 -41l4 4h4l12 -5l17 24q7 -17 23 -17l21 35l-3 24v4q13 36 38 35l21 51l-1 64l8 8l-28 17l1 12l45 34l1 40q32 -1 38 39v16l-10 40l12 4l-4 4l1 20q1 29 25 43l5 32q1 10 -30 37l-3 28l8 8l1 16l-12 24q2 34 35 87l14 32l19 -5h4 q1 14 29 19l4 4v4l4 -4l8 -1q1 12 9 12zM935 1236l-5 -12v-4h4l4 12l1 4h-4zM1118 986v-8h4v8h-4zM106 885v-8h8v8h-8zM1113 834l-1 -8h4l1 8h-4zM233 528v-4l12 -4v4l-4 4h-8zM628 374l36 -1q28 -18 27 -25l-10 -79l4 -1l7 -8q-1 -30 -21 -31q0 -18 -41 -47h-4q0 18 -31 41 q-11 19 -11 37l13 11v4q-12 1 -11 25q10 -1 17 23l-4 24zM601 179l4 -4q12 0 12 -20q12 -1 11 -9h-4l8 -20l12 4v-4l-6 -36v-4l4 -4l-55 -90l3 -20q-1 -26 -23 -88l-8 1l-4 4h-4q-40 -63 -46 -63l-4 5l-4 -12h-8v8l-16 -7l-39 21l4 20l-10 56h4l-4 4l1 12q15 0 34 71 q11 14 33 19l7 -16l4 -1q10 32 22 32v8q-24 1 -23 37q18 41 42 46l8 8h4l32 -9l8 -1v8l4 -4h4l4 4v4l-4 4l-4 -4h-8l-7 17v16q1 8 12 7zM106 -132v-4l8 -8v12h-8z" />
<glyph unicode="$" horiz-adv-x="1231" d="M614 131q19 8 35 22q88 27 88 72q14 0 24 12q35 0 48 76l-8 20l4 16q-14 76 -24 76l-4 -4h-4q-20 8 -20 24q-24 0 -24 8q16 24 28 24v12l-4 4q-12 12 -12 24l-8 8l4 4v12l-28 36l-40 -12q-22 7 -36 24q-9 7 -16 12l7 -18q0 -37 -10 -61l5 -14v-23l-7 -28l10 -75v-23 l-3 -4h3l-5 -47l2 -19l-10 -46l5 -61l-2 -23q1 -15 2 -28zM314 1215q-3 -1 -5 -2l-4 4h-4q-36 -14 -36 -40v-20h-4l-12 4q0 -28 -32 -60v-4h-4l-20 16q-15 -18 -40 -72q24 -63 24 -100l-4 -24h4q48 -59 76 -64q0 -16 64 -44q0 -8 11 -17q-1 20 -12 31l3 4v5l-6 18l6 27v10 l-6 13l12 55q0 33 -15 72l-6 32q6 0 6 14q0 57 -18 100l30 23v9q0 4 -8 10zM497 633l-63 25v-31l3 -18l-3 -18l3 -77l-9 -41l9 -55v-13l-3 -18l3 -5v-4l-18 -105l3 -23v-36q0 -39 6 -59l1 -50l1 -4h5q-2 0 14 8l24 -2l16 6h4q3 0 5 1l9 91l-3 14l5 117l-5 9v14l5 28l-2 42 l2 19q0 9 10 9v33l-2 4l2 5v28l-15 5v9l8 37q0 31 -10 56zM496 1235l-7 10l-16 -12l-40 8l-8 -12v-6q-12 0 -12 -18h-3q0 -11 18 -37l6 -32l-6 -27l3 -41l-3 -18l3 -27v-18h-15q-6 0 -6 -14q15 -24 15 -68v-5l-18 -72v-14l3 -32h-3l19 -32l27 -7q16 0 16 8l30 -8v4l10 18 l-5 33l10 107l-5 28l3 5v9l-8 56l3 5l-3 5l13 23v4q-9 0 -18 52v102q-1 13 -3 23zM641 15zM633 11h-4l-6 -4l-4 -9q0 -6 4 -17l-3 -19q5 -14 -1 -25l3 -18l4 -27l-4 -20q-25 -4 -22 -14l-28 -4l-23 -4l-10 4q-40 31 -35 47v42l-1 39q-8 3 -13 5l-14 -2l-32 -5l-8 3l-3 -22 l-6 -27q8 -64 -16 -70l-13 6l-11 -14l-26 -7l-27 -7q-10 28 -27 28v19l3 4v5l-15 13v18l6 10l-6 33l3 28l-2 -1l-20 -1l-14 6l-6 9l-9 -6l-11 2q-20 2 -47 36h-20q0 16 -28 16q0 16 -28 16q0 20 -40 28v4l4 4q-9 29 -32 48l-24 36h4l-36 52l8 24l-8 24l4 24l-4 4q5 52 16 64 v36l4 4v4l20 -4h4q34 42 68 44v-4q28 7 28 12q24 0 36 -68l4 -4h24v-4q-32 -87 -32 -156q16 0 16 -24q16 0 28 -36q8 0 8 -16q13 0 40 -16q33 0 54 -37l12 108v9q-14 0 -18 45q-5 0 -6 23v9l6 9h3v-9h9l-3 18l9 41q-27 17 -27 68l27 27v5q-9 0 -15 18v14l12 50v22 q-6 19 -18 19l3 36l-3 23q10 1 24 42l-21 -4q-16 0 -16 8l-4 -4h-12q0 11 -20 32l4 4v4l-20 12l-12 -8h-8v8h-4l-8 -8l-4 4h-8l-12 -8h-16q0 24 -8 24l-12 -4l4 4v4q-20 0 -64 48l4 12l-16 20q-13 0 -20 80q-24 30 -24 44v24l8 16l-16 32q0 18 28 48l-4 12l4 32l-4 20 q2 16 12 16v4l-4 4v4l16 8l8 -8l16 16l-4 12q11 2 32 32q12 0 24 36l28 12l4 -4v-4q44 0 72 72l4 4h4l12 -4l20 12h8l4 30q-3 14 4 19q-6 64 3 105l27 7l14 6q7 8 14 8h6l22 -16h3q14 -14 21 -22l-6 -7q16 0 24 -23q-9 -23 6 -23l3 -4v-14q-9 -9 -5 -73l4 -1l12 12l4 -4h8 q0 12 8 12q12 0 12 -12l4 -4h16l5 3l-9 58q0 53 5 60h-3l8 28q22 11 52 28l25 -14q38 -54 38 -84v-5l-3 -4l3 -5v-5l-6 -57l1 1l24 -8l28 8h4q5 -32 40 -56l52 -24q0 -20 36 -36q0 -16 32 -36q28 -33 28 -44l12 -16v-32q-22 -156 -36 -156q-16 0 -16 -24q-10 0 -20 -24h-4 q-14 21 -32 28l-4 -4h-4l-32 4v4l12 52l-4 4v16l12 16l-8 8v20l4 24q-17 48 -64 48l-8 -8h-4q-6 0 -16 32l4 12q-26 11 -52 48l-5 1q8 -13 6 -28q0 -16 5 -24h5l2 -14q-10 0 -10 -70v-4l8 -42l-10 -75q0 -18 5 -18l10 -89l-18 -65q15 -19 15 -47l-10 -28q3 -9 6 -17h23 l60 -20q36 -24 36 -44h8l4 4h4l52 -48h4q8 28 16 28h8q0 -12 12 -12q32 -9 32 -32q8 -83 28 -96q12 -15 12 -28t-24 -36q0 -28 32 -56l-4 -12l8 -24v-28l-8 -32l4 -20l-4 -4v-4l-4 -28v-16l-20 -4v4l-20 -36l-4 -4v-4l-4 4h-4q-12 -23 -20 -28l-9 -2l-8 -2l-11 -6 q-17 -3 -40 -32q-12 0 -12 -12l-16 -4l4 -4v-4l-32 -14l-20 4v-14l-16 6l-16 -8v-10l-11 -14l-9 8l-4 -3z" />
<glyph unicode="%" horiz-adv-x="1446" d="M909 -4l-16 5l-5 -14q-7 2 -17 -7l-1 4l-3 -3l1 -3l-1 -3q-2 -6 -9 -4q-17 7 -27 23q-25 7 -28 1l-1 3l-2 1q-13 -5 -24 -1l-1 4q-5 -8 -16 -4q-4 1 -1 10l-1 3l-6 3l-11 1q2 5 -16 28l-10 4l-16 -11q-13 5 -14 51l-10 7l-14 -1l-3 1q-18 21 -10 43l-1 3l1 3l-3 -2 q-23 8 -17 26q-12 4 -5 25l-1 16l3 2l2 3l-2 4l-2 1l-3 -2q5 21 -6 41q6 17 -7 45l2 45l3 2l1 3q-2 39 3 52l5 8l-3 -3l-2 1l19 59l5 8l2 18l5 8l-2 1q16 33 36 46q2 6 21 19q7 19 24 27l2 6l3 15q3 -1 10 9q19 -1 23 11l5 18q21 29 32 25l1 -4l2 -1l32 -2l17 14l18 -16 q20 32 25 30l9 -7q15 -5 30 22l3 2l2 -1l7 -5h7l10 -7l3 3l2 -1l14 -15l25 -9q5 14 13 11l18 -9l28 -1l29 -23q-5 -16 27 -43q2 -21 24 -45q-4 -10 6 -48q-5 -13 6 -35l2 -13l-7 -14q-4 -35 11 -40v-33l-9 -19q4 -48 0 -59l-2 1l-4 -29q-17 -41 -23 -44l-1 -3 q-10 -29 -6 -30l-7 -14l-4 -8q-9 -27 -18 -51l-36 -33q-9 -14 -24 -23l-28 -26q-29 -34 -60 -42l-14 -2zM714 210q-4 -11 4 -21l6 15q9 -46 19 -50h19l1 -4l3 2l2 -7l2 -1q19 6 30 16l4 -2q7 -19 5 -25l15 -2l9 -3l4 -8l41 15q6 -3 2 -14l2 -1q8 -3 26 13q10 -3 70 30 q4 12 8 11l8 20l-19 13q10 28 31 34q16 17 30 23l5 7l4 25l2 6l6 11l4 54q-5 25 -20 30l5 15l10 19q-10 24 -17 71q-8 3 -20 31h-2l-6 -4l-4 2l-2 7l-16 2l-2 1l-10 10l-7 -4l-21 11q-9 0 -34 -14l-4 2q-4 1 -2 20l-9 7q-34 -13 -47 -26q-18 7 -32 -14q-6 2 -11 -12 q-19 5 -23 -5l-2 1l2 5l-6 3l-3 -6l7 -2q-2 -6 -9 -4l-5 -8l-2 -19l-25 -17l-1 -3q3 -8 -13 -73q3 -21 8 -23l-8 -17l-2 -25l-1 -3l-22 -15q-9 -39 -5 -40q13 -17 14 -38l5 -6l3 1l2 -10zM984 1384l12 -8h4l12 5q32 -36 32 -59l-16 -21l4 -22q-12 0 -12 -5l4 -3v-3 q-5 -21 -56 -56q0 -21 -28 -35l-12 -22q-15 0 -36 -38v-13h8l-4 -3l4 -2v-3l-20 -16q-23 -39 -44 -51l-4 -11l12 -3v-11q-36 -15 -36 -37q-8 0 -20 -19v-14q-22 0 -36 -40q-28 -16 -28 -27v-3l4 -2v-3q-10 0 -20 -38q-20 -3 -20 -8h4q-9 -32 -16 -32l8 -30l-32 -8v-2h8v-6 l-4 3h-12q-44 -16 -44 -24v-3l8 -24q-24 -19 -24 -49v-21q0 -10 -28 -27q-5 -24 -16 -24l-4 2q0 -27 -28 -27l-20 -51q-36 -20 -36 -32q-48 -53 -48 -73v-19q-18 0 -24 -27h-4l4 -2l-8 -25h4l-4 -2v-3l4 -16v-3l-4 3h-12l-12 -11l4 -19q-22 -27 -32 -29q-12 0 -12 -19 q-24 -15 -24 -38q-29 -24 -36 -24q-17 -59 -28 -59q-24 0 -24 -25q-18 0 -24 -43l-28 -18l-4 2h-4l-32 -21l-20 -3l-8 5l-28 -2l-8 10l-12 -2q-11 35 -24 35v2q28 21 28 30l-4 16q6 0 16 16q20 6 32 49q15 22 52 46q28 31 28 40l8 19h-4q24 17 24 38q0 8 44 32q8 40 28 40 q0 25 36 54q32 10 32 19l-4 21q20 28 40 89q33 11 44 33l-4 2v19l40 49l-4 24v3q16 0 16 10q20 0 36 38q7 0 28 19q12 0 12 8l8 8v3l-16 16l12 8v3l-12 10v11q0 6 36 14l20 24l-4 24q8 0 8 14q12 0 12 8q20 15 20 27l-4 26l4 3l20 -3l16 3v6q0 15 36 48v16q12 0 12 16 q32 38 32 46q0 30 20 30q14 0 28 32q22 0 52 78q9 1 32 51q44 39 44 46l-4 3h-4q0 32 32 32q0 19 36 19zM-67 932l8 22l-11 4q4 8 -2 20l3 2l-1 4l-3 -2h-2q-4 2 -1 10q9 24 24 40q11 35 6 36l3 2l1 3q-1 17 4 31l3 2q-5 5 0 19q3 6 9 4l3 2l3 8l3 15q4 -1 26 26l5 15l-5 18 q6 17 44 29l7 13l2 19l1 3q21 27 36 22l3 2l3 -1l-2 4q12 31 24 26q7 17 21 12l14 5l1 -4l2 -1l3 3l1 2l-1 4q16 -2 34 16q13 -4 38 19l35 6l1 -3l2 -1q32 11 41 8l5 -5l-1 3l1 3l43 -12l5 -5l14 1l6 -5l1 3q23 -14 29 -37q4 -1 10 -23q14 -5 17 -25l4 -2l12 -1q-2 -4 5 -11 q-5 -24 4 -28l14 -1q18 -21 12 -37l-3 -2l-1 -3l-8 -42l7 -19l-16 -26q21 -19 18 -26l-7 -14q-7 -19 12 -33l1 -3l-1 -3l-7 -11l-1 -9l-7 -14l1 -3l-1 -3l-14 -20l-13 -35q11 -3 7 -15l-12 -25l-6 -36l-25 -42q-11 4 -39 -44q-18 -7 -41 -40q-8 3 -39 -18q-10 4 -29 -15 l-12 -5l-9 6q-27 -1 -35 -23l-26 -6l-13 8q-39 -15 -47 -12l1 3l-22 -2q-29 14 -30 21l-2 1q-21 6 -23 1l-9 7l-7 2q-19 7 -36 14l-19 40q-10 8 -14 25l-14 31q-21 31 -21 68l1 18zM144 1228q-8 3 -17 -10l10 -4q-38 -21 -44 -35l-4 -25l-3 -2l1 -3l-6 -5l-1 -2q0 -23 6 -35 l-2 -6q-16 -13 -21 -11l-5 -21l-4 -11l-7 -7l3 -50q-3 -8 -11 -5l-1 -3q-5 -11 5 -31q-5 -14 9 -84q9 -3 7 -9l14 -5l15 27q20 -7 21 -33q10 -17 11 -34l5 -5h19l4 -2l8 -5l42 7q21 11 28 31l11 -4l13 -8q21 18 61 36q4 12 28 32l1 3l-2 7l2 6l6 4l5 20l1 3l10 16l-2 7 l14 30q2 12 -5 41l3 5q2 6 16 7l7 14q-3 40 -10 55q8 23 -5 37q3 9 -8 13q9 26 1 28l1 3l4 -1l4 8l-5 2l-3 -9q-4 2 -1 10l-5 5l-15 -1l-8 29l-2 1q-8 -6 -56 1q-17 -8 -20 -16l-11 8l-20 -3l-2 1l-8 25q-29 3 -31 -1q-16 -21 -33 -27l-5 -7v-4l-9 -5z" />
<glyph unicode="&#x26;" horiz-adv-x="3607" d="M1294 1400q9 0 36 -28h4l24 8q11 -76 44 -128l4 -4h4v-20l-4 -4q0 -32 36 -32q9 -52 28 -52v-20q20 -13 40 -72q13 -28 20 -28l-4 -28v-4q28 -49 28 -80l-4 -28q21 0 32 -36q64 -96 84 -96q21 0 28 -40l-28 -36v-8q8 0 8 -12q29 0 32 -52v-16h12l4 4h4l4 -16l-4 -16v-4 l20 -20l4 -12l-4 -12l-12 4l4 4v4h-8l-8 -8v-4q12 -10 12 -36q28 -45 44 -56q0 -12 12 -12l4 4h4q28 -14 28 -24l4 -36l-8 -16q0 -22 44 -60l4 -36l-28 -20l-4 4h-4l-16 -16l-16 8l-16 -8q0 19 -16 36q-20 58 -32 128q-12 5 -44 72q-11 0 -16 24l4 12h-4q-10 0 -12 52 q-24 5 -24 32h-36l-12 12q0 8 12 8l4 4v12q-10 0 -24 -24l-4 -4h-4q0 16 -16 16v16l16 24q-18 44 -48 44l-12 12l4 28v4l-12 48v4l4 16l-12 24l8 24q-5 44 -36 44v8q-12 1 -24 28q-28 0 -28 36l4 24q-16 24 -32 24v8l4 28q-40 17 -40 40q0 29 -28 76v12h-4q-4 -24 -12 -24 l-12 4l-4 -4q0 9 -28 12q0 -8 -12 -8l-24 8h-12v-8h-4l-24 16l4 4v20q0 40 -12 40v4l4 4l-4 4v4l4 12l-12 44l12 16l-4 4v4q0 14 36 68h8l4 -4l32 12v-4q21 6 28 16zM1914 1376l4 -12l28 8q0 -8 24 -16q0 -10 40 -64l8 -64q-17 0 -32 -28q0 -29 36 -44q8 0 8 -24h4l-20 -28 l4 -4l-4 -20v-12l8 -12v-16q0 -71 -12 -116l20 -24l-48 -56v-8h8q13 -32 20 -32l4 4v-4l-16 -48q0 -16 20 -16q0 -32 -16 -32v-8l8 -12v-4l-8 -8h-4v16h-4v-8h-4l4 -4v-8l-4 -16q6 -27 20 -44q0 -11 -28 -24q-29 0 -52 44v8l16 20l8 -8l4 4v4h-4l4 12l-12 28l12 16l-12 12 v16h8v8q-9 40 -28 40l-12 24l4 20l-12 24l-4 -4h-4l-12 8l8 28l-4 4v4l4 4v4l-8 32v4l20 4v12l8 24q-9 40 -44 60v4q0 20 20 20v4q0 32 -20 32l20 52v4l-32 32v4l20 52l-20 52l4 4v48q11 20 36 20l4 4l12 4v-4zM2376 1420l12 -4l24 4q0 -10 28 -16l4 4h4q12 0 12 -12h12 l20 16l4 -4h4l16 4q41 -20 80 -24l20 4l4 -20l24 16v-4q13 0 24 32h8q0 -12 24 -12l4 -4l4 4v4l52 4l8 -8l24 8h4l16 -16h8l12 -4v4l12 20h8q0 -16 44 -48h12l28 4q0 -13 56 -20q6 -16 36 -16l12 -20l28 4h12v12h8l52 -64q15 0 28 -40q26 0 40 -68l8 -36h4l4 4h4l8 -44 l-4 -4q20 -23 28 -52l-8 -8v-12q17 -36 60 -36v-8l-4 -12l4 -4h4l-8 -32l4 -16l-4 -28l4 -4v-4q-35 -79 -48 -80h-4v4l-16 -8q12 -33 12 -56l-4 -12q12 -18 16 -56h4l12 4v-4l12 -32v-12q0 -36 -20 -36l12 -76v-12q-18 0 -24 -76q-20 0 -20 -40q-33 -69 -36 -124 q-8 0 -28 -24q-13 -2 -40 -44l-24 12v-4l4 -4v-4q-11 0 -16 -52h-12l-12 4v-4l-4 -4v-4q-20 12 -40 12h-4l-48 -28l-4 4h-12q0 -11 -20 -24l-16 -36v-8h-8l-4 4h-4q-25 -24 -52 -28l-16 4l-8 -8l-4 4l-36 -8l-8 12l-32 -8l-24 16l-12 -4v4l-16 24l-12 -4l-36 4 q-16 -4 -16 -16h-4l-12 8h-12l-20 -4l-12 12h-4q-16 0 -36 -24q-11 2 -16 20l-20 4v-8q-16 0 -32 -20l-40 -20h-4q-16 14 -48 24l-12 -4l-36 40q-40 19 -40 44l4 16l-8 36v4q1 7 96 40l44 -12l24 4h4q12 0 12 -16h12q0 18 32 44v12q-9 0 -16 28q11 80 44 80l12 -4l4 4 q8 -8 8 -36l4 4h4v-8q-19 -56 -24 -56q-15 0 -20 -44h8v12h12q11 -44 20 -44l12 -8h8l16 12v-4l24 8h8l32 -24q47 36 64 36q14 -24 36 -24h4q33 0 44 28l20 -4h4q0 10 24 24l12 -4l24 4h20v8h4l36 -20q16 16 32 56l16 -8l4 4h4l16 -4q14 0 20 52q20 0 20 36q6 8 24 8l48 48 q20 41 20 60l-4 20q9 0 12 20q-9 0 -12 40q15 36 44 60l4 28q-16 0 -16 36l-20 20v4l16 24v32l-4 16q5 20 12 20l4 -4l4 4v24q0 8 -12 8v8l4 20h-4l4 4v4q-5 28 -12 28l12 52q-15 45 -64 88q0 18 -52 68l-4 -4q-28 0 -28 48q-23 0 -44 24q0 28 -28 52l-48 -20l-20 28l-4 4 h-4l-32 -8q-16 40 -48 40q0 8 -16 8l-20 -4l-12 12h-4l-64 -8h-4l-8 -24h-12v20q0 6 -48 24q-28 -4 -28 -12v-32q-16 0 -16 -24l-4 4h-4l-12 -28l-12 8v-20l16 -4v-12l-8 -8l4 -28v-8q-16 -24 -32 -24v-4l32 -52l-4 -20v-8l4 -20l-24 -12l4 -12l-4 -24q8 -25 36 -48v-8 l4 -12h-4l-20 -12q4 -37 16 -64l-8 -20q13 0 20 -44l-4 -32q8 0 8 -12l-24 -24l-12 -92l12 -36q-8 -10 -8 -36q-6 0 -12 -40l-24 -8l-8 20l12 20v4q-32 0 -48 40l-8 8h-4q8 36 16 36l-16 96l4 16l-8 28v12l4 20q-9 0 -12 32q12 27 12 68q-13 0 -16 48l24 92l4 12 q-21 0 -28 76l12 20v36l-16 32l8 20q-23 24 -32 24q-32 11 -32 28h-20q-13 0 -28 12l-4 -4v4l4 4v4h-8q0 -12 -16 -12v-4l-4 4h-8q-8 0 -8 -12q-18 0 -52 32l4 4v4l-8 24l4 28q-20 0 -20 48l24 20q12 0 44 -28l12 8l4 -4q40 30 40 44zM388 1378l60 -8l4 4h4q28 -8 56 -36 q64 0 64 -32l-4 -4v-4l12 -36v-8l-8 -12v-12q28 -18 28 -44l24 -16l-4 -16q0 -32 24 -32v-20l-12 -16v-12q16 0 16 -12l-8 -40l4 -4v-4l-4 -24q32 -29 32 -60v-4l-4 -20q28 -22 36 -56l24 -20v-4l-4 -20q0 -38 44 -104l-8 -12q0 -16 16 -16q0 -28 -8 -28q12 -23 12 -56 l-8 -24v-12l16 -60l8 -12l-4 -4v-4q5 -45 60 -108q22 -24 24 -48l-8 -40l8 -52l-12 -16l32 -76l-16 -16v-8q13 -36 20 -36q20 -4 20 -24q-26 -16 -40 -16q0 9 -28 16q0 39 -12 56q-7 0 -12 28q-24 0 -24 16q-44 42 -44 76q-7 0 -8 20l8 20q-11 19 -16 52q-28 25 -28 52 l-4 -4h-4l-4 12q-44 0 -56 -20q0 -12 -16 -12v-4l-28 20l-20 -8l-20 12h-4q0 -12 -8 -12q-10 32 -16 32h-4l-20 -4l-24 4h-4q-15 -52 -28 -52q-16 3 -40 36l-4 4h-8l-40 -12l-4 -4h-4l-4 4h-4v-4l4 -4l-24 -8q-10 28 -24 28q-41 0 -60 20h-4q-15 -19 -40 -28l-16 -104v-4 q-11 0 -20 -20h-4l4 -20l-8 -20l8 -12l-12 -48l8 -40l-28 -8v-28l-20 -28l4 -4v-4q-5 -20 -12 -20v8h-12l8 -8l-12 -16h-4q-28 0 -68 40l-20 4v16l12 12l-4 60l28 96l-4 32q12 0 12 8l-4 44q13 3 44 60q15 0 20 56q8 0 8 20v4l-4 28q24 6 28 20v8h-4l4 28v24l4 4l-4 4v4 q17 69 52 116q32 20 32 64l4 4q-2 23 -12 36q0 32 20 52q-7 0 -16 24l16 48q13 0 28 32q32 19 32 64q23 76 28 76v4l-8 32v8l16 8h4l12 -8l4 4l4 -4h8l-8 68q0 20 24 36v8l-8 16l4 20l-12 48q0 12 12 12l-4 24q0 8 20 24zM1242 1108h28l16 -20v-4q-36 -33 -36 -48 q11 0 24 -48l44 -32v-4l-12 -32q20 -32 28 -64h4q-4 -22 -16 -36l4 -4v-4l-4 -4v-4q0 -30 28 -64l8 -32v-32q-24 -24 -24 -60l4 -12q-24 -48 -24 -76l4 -12l-8 -24l4 -16l-4 -36l16 -40l-4 -36v-16l-8 -12v-16q29 -21 32 -60q-9 0 -24 -28l4 -4v-40l-8 -12v-4q12 -9 16 -68 q-20 -5 -20 -36h-4l-24 12l-4 -4h-4l-12 8h-4q0 -12 -8 -12h-12q-20 16 -20 36v12q-16 0 -16 60q0 16 16 40q0 15 -28 28l4 4v40l4 56l-4 20l12 40l-12 36l24 24v8q-10 11 -16 48l8 44l-8 8v36l8 12v8h-8v12l20 48l-4 4l4 4v12q-8 67 -20 76v36l-8 32l8 28q-12 21 -12 40v4 l8 16l-4 12h4l8 8v44l-8 28l12 12v8l-20 28q32 4 48 24zM1194 1100h8l-8 -8v8zM424 998l8 -20q0 -9 -36 -52l4 -32q-8 -13 -8 -40l-4 4h-4l-12 -32l4 -4v-16q-56 -81 -56 -104v-20q-17 0 -36 -40v-8q15 -20 20 -56l-24 -4v-16q12 0 36 -36q17 0 32 -16h12l28 8l36 -20l60 16 l52 -20l20 4l72 -8l12 12h4l36 -4q32 18 32 24v8q-3 38 -56 100q-20 28 -24 68q-16 9 -16 32q-20 0 -20 24l8 20h28l4 32l-12 44l4 4q-16 0 -36 76q-36 12 -36 44l-24 4l-24 -8q0 12 -20 20q0 22 -24 60h-4q-36 -27 -36 -48zM1954 740v-4h8v4h-8zM1986 536v-16l-8 -12v-36 h-12l-8 8l4 24l-4 12q0 16 28 20zM1946 448l12 -24v-4l-20 -4h-12l-4 28l4 4h20zM1754 408v-8h4v8h-4zM1950 236h12q8 0 28 -48l-4 -36q0 -18 12 -36q0 -40 -28 -40l-16 4q-18 -20 -32 -20v4q0 36 -32 44l-4 16q0 52 24 52q0 12 16 12q12 9 12 40z" />
<glyph unicode="'" horiz-adv-x="499" d="M118 1668h32q0 -13 28 -36l4 4h4q13 0 36 -36h4v-8l-12 -20q20 -32 20 -52t-12 -20l8 -44v-16q-17 -83 -32 -104q16 -26 16 -40q-3 -29 -12 -40v-8h8v-16q-9 0 -32 -44l16 -28q-10 -44 -24 -44v-16l36 -40v-8q-16 -16 -16 -56l24 -16q-4 -13 -16 -16l-4 -16l8 -20l-4 -4 v-4l4 -12l-24 -116l-16 -56q0 -16 -8 -16l-8 8v-4l-4 4h-4q-18 -12 -36 -12q-36 28 -36 52h4l-20 52l4 64q-11 36 -20 36q-16 0 -16 20l28 68v8l-12 28l4 20l-4 24l20 84v4l-32 120l-16 28l-12 44l28 104q-12 0 -12 20l12 12l-4 4v4q3 35 24 64l4 12h4l16 -4q18 8 20 16v36 q32 10 32 32z" />
<glyph unicode="(" horiz-adv-x="730" d="M363 1679q68 -12 68 -40l-12 -32l20 -16l-4 -4l8 -20q-3 -45 -16 -56q0 -12 32 -12l24 -28v-12q-44 0 -44 -24q-16 0 -16 -24l-12 -12l-12 -8l-36 4q-24 0 -52 -76q-8 0 -32 -36q4 -32 32 -32q-2 -20 -24 -20q-15 -34 -36 -40q-13 -4 -16 -16h4l-20 -44l8 -20l-4 -12 l4 -4v-4l-20 -32q20 -36 24 -72l-28 -52v-24l-12 -80l8 -36h-4l8 -28l-4 -24v-16l4 -4l-4 -4v-12l8 -12v-8q-16 0 -16 -12q8 -6 12 -80q-16 -36 -16 -56l4 -4h4q-3 -24 -8 -24l12 -28v-8l-12 -60v-12q0 -7 24 -20q0 -65 28 -84q10 0 44 -36l-12 -44v-4q16 0 24 -16l-4 -40 q35 -44 56 -44q32 -41 32 -100q52 -28 72 -52l16 -24l-4 -40v-40q0 -48 -56 -48l-32 -4q-49 29 -84 80l8 28q-12 16 -12 36q-60 28 -60 60q-5 0 -16 36q-11 0 -24 32l4 4v8l-40 60l-12 24v16l4 4q-32 43 -40 124q-15 32 -24 116q-16 0 -36 96h4l-8 20l4 24v16l-4 4l8 28 l-8 16l8 32q-22 0 -32 112l-12 32q0 56 16 56l24 12v20l-4 4l4 4v4l-4 4v4l12 24v4q0 13 -12 28q8 84 28 84v32l-8 16q0 28 8 28l-4 4v24q19 0 40 48q0 46 44 88l28 52l-4 24q24 31 24 56q20 51 44 80q0 41 36 52l16 64q11 0 32 24q25 24 40 24z" />
<glyph unicode=")" horiz-adv-x="729" d="M104 1692q41 0 56 -44q6 0 20 -40l-4 -44q60 -44 60 -68v-20q8 0 8 -20q17 -19 32 -60l28 -36v-12l-8 -8q31 -68 36 -68q28 -19 28 -68l8 -8v-20q16 0 16 -28h4l-4 -28v-16l16 -56l-4 -16l4 -4v-4l-4 -12q20 -5 20 -12v-20l-4 -4q16 -35 16 -52v-8l-12 -20l28 -96 q0 -14 -28 -28l4 -28l-8 -12v-4l16 -20v-12l-4 -4q0 -62 40 -76l16 -20v-4l-28 4h-4q-9 0 -16 -44q-17 0 -24 -40v-32l-4 -4l4 -4v-20h-8v-48q-16 -13 -32 -88l4 -4v-16q-32 -19 -32 -72q-20 0 -20 -32l-4 -32l4 -4v-4q-16 -24 -16 -44l4 -4v-4l-4 -12l4 -24h-4q-8 0 -8 -12 q-28 0 -28 -24q-9 -76 -28 -76q-17 0 -28 -28l-12 -12l4 -4v-4q0 -33 -48 -48q-20 -52 -44 -52h-12q-80 10 -80 44l-8 8q18 32 28 32v4q0 44 24 76l16 32l-4 28l20 4v4l-8 12v8l4 20h24l32 32v12l-4 4v4q10 0 16 32v20l20 4l-4 20q0 26 28 72q0 28 36 68q29 0 40 28l-4 12 q0 18 20 40l-12 24h4l-4 4q0 48 32 84l-4 44l16 16q-16 53 -48 76v4h-20l-28 -4v4q8 8 8 36q30 32 40 32l4 4v4h-4l-12 -4v4q0 12 16 12v8l-4 -4h-4q-13 0 -20 68l12 24v16q0 21 -20 60v4h4l12 -4l-12 36h4q0 18 -24 24v40l-8 28l4 24q-16 2 -44 64q-20 0 -20 44l-20 -8 l-8 12l8 60q-14 16 -28 16q-12 48 -36 48q0 17 -16 32l4 4q0 10 -24 28v4l8 16q-3 56 -12 56l-12 -4q-18 32 -24 32l-4 4v4l4 4v4l-4 4v4l4 28l-4 4v4q22 75 52 96l20 4l20 24q0 16 12 16zM412 588v-8h8v8h-8zM256 236l4 -4h12v4l-8 8z" />
<glyph unicode="*" horiz-adv-x="1130" d="M440 1120l52 -80h4v-28q12 -17 12 -40l-12 -8l8 -32l-24 -28q4 -30 16 -44l-8 -8l8 -44l-8 -16q9 -32 32 -32v4l16 -8l8 24l20 -4h4q0 10 32 32q0 28 24 28q11 30 40 52q0 52 60 52q0 7 24 12q26 0 48 -80h4v-16l-4 -20q8 0 8 -20l24 -44l-4 -4q0 -8 -24 -8 q0 -22 -32 -40l4 -4v-4q0 -9 -28 -16q0 -16 -32 -20q0 -8 -32 -20v-4l-12 8h-4l-36 -24h-4l-4 4l-36 -28q-20 12 -20 24l-20 -8l4 4v4h-4l-4 -4v-4l16 -24v4l4 -4h8q43 0 52 12l56 -28h24q0 20 20 20q51 -13 56 -32l24 -16q32 0 32 -20l-16 -40l4 -16q0 -66 -40 -80l-20 -20 v-4l-4 4h-4q-8 0 -8 -20l-12 -12l-4 4h-4q-8 0 -8 -12l-44 20q-12 1 -24 32q-22 8 -52 48q-28 16 -40 52q-27 0 -32 48q-20 27 -20 44l-4 -4l-20 4h-4q0 -10 -16 -12l-4 -4v-4q0 -19 20 -48v-8h4l-4 -12l16 -52l-8 -36q20 -37 20 -56l-4 -16l8 -20l-4 -32l4 -4v-4 q-7 -22 -24 -36l-28 -48v-4h-16l-20 4q-2 -8 -20 -16q-24 0 -44 64q-21 0 -24 64q11 24 20 24v4l-4 16l24 40l-4 4v24l24 92h4l4 -4h4l4 40v4h-8l-44 -48h-16q0 12 -20 12q0 -15 -40 -36q0 -9 -20 -24l-4 4q-27 -7 -52 -40l-32 -40l-12 8q0 -15 -32 -32q0 -11 -28 -16v4 l4 16h-16l-32 8l-4 -28h-12v8h-4l4 20v8q0 38 -16 60l-4 12q16 35 16 64h-4q6 44 32 44v-4l4 4h16l12 -8h8l44 32l16 -4l24 8h4l12 -8h8q0 19 48 36l12 16v4q-20 72 -84 72l-4 -4h-4q-33 20 -88 32l-48 -8q-32 0 -32 60q-8 0 -8 24l4 16l-8 32q0 69 32 80h4l28 -4v4 q128 -43 148 -72q5 -52 28 -52q17 -11 32 -36l20 -4l8 8l44 -40l20 -4l-4 -4v-4l4 -4h4q0 13 24 32l4 -4l8 24l-28 44v4l8 24q-21 21 -24 40q-28 0 -28 24v8h-4q7 11 16 96q26 68 44 68q12 16 36 16q8 18 16 20zM656 580l4 -4h4v12z" />
<glyph unicode="+" horiz-adv-x="1281" d="M410 743l-5 10l15 11v8l-8 8v5q18 16 18 31q-11 0 -18 41l-3 3h3l-7 8l4 2v8h-7v6l10 15q-20 0 -32 21v3l25 18l-11 13v3q11 9 11 18l-3 2h-4l7 37q-11 28 -25 28v8q11 7 18 52q18 24 54 24q25 17 25 26h33l39 -39h11l4 2h3q15 -12 18 -31h7v-20q11 -6 11 -19h4l-25 -36 v-14h7l-4 -2v-2l15 -8v-6q-26 -41 -26 -54v-11l8 -28v-8l-8 -8v-29l8 -18l-15 -10l4 -19q-11 0 -11 -10h-4l19 -40l25 -3l28 10q32 -11 32 -18v-7l-6 -10l3 -4h3l14 4l17 -4q87 18 87 32q28 0 32 7h15q0 -14 10 -14l9 4l3 -4h3l20 14h20l3 -3h3v3l46 -18l3 4l8 4v3 q21 0 21 -25q12 0 12 -14l-7 -14l12 -15q-8 0 -17 -14l3 -3v-4l-17 -14q0 -18 -7 -18v-7q9 0 9 -7q0 -8 -23 -18l-3 -4l-51 18h-21l-11 -10l-18 3l-8 -7h-20l-9 11l-2 -4h-4l-3 4l-14 -4q-31 9 -31 21l-9 4l-11 -7l-4 3h-34l-3 4l-2 -4h-4l-14 4q0 -17 -37 -25q-21 6 -37 20 q-31 -16 -40 -42l15 -37v-2l-4 -11q0 -21 32 -34l11 -11v-5q-12 0 -32 -20h-4v-11l-7 -21v-10l4 -3l-4 -3v-2l4 -3v-2q-11 -2 -11 -16q21 -27 21 -44v-8q18 0 18 -24q-10 -1 -18 -12q18 -24 22 -47l-4 -22q-15 0 -28 -15l3 -10q-8 -16 -47 -29h-10v5h-15q-30 0 -39 21 q-18 0 -18 5l-4 -2h-7q0 7 -18 16l-4 8l11 7l4 -3h7v8l7 21q0 5 -22 13l8 21l-4 10q4 11 22 11l3 8l-11 10l4 2v3l-7 8q2 20 14 20v19l-3 3q2 18 14 18v8l-4 10l4 3v3q-7 6 -18 65l4 2v3q-16 13 -22 68q11 2 11 15l-11 5l3 20q-9 -3 -26 -6h-15l-3 3l-31 -14l-43 11l-35 -11 h-20l-3 4h-3q0 -15 -15 -15h-3l-26 11v4l-2 -4h-12q-14 1 -14 7l-3 -3h-15l-2 3l-20 -7l-23 7l-29 -7l2 -4v-3l-25 -4q-42 24 -47 39l7 11q0 7 -12 7v7q0 17 14 47q6 52 27 71h2l20 -7l58 18q22 -22 64 -22l19 -7q6 -11 17 -11v-3l3 3h6q6 0 6 -14h3q23 16 23 32l49 -3h3v3 h-6v7l9 11h3l5 -7l12 4q36 -18 72 -21zM577 617h9l-4 4q-2 -2 -5 -4z" />
<glyph unicode="," horiz-adv-x="646" d="M177 386q38 0 52 -32l32 -20l4 4q36 -11 36 -16l20 4h4l16 -20l-16 -20v-4l28 -104h-4l4 -4v-8l-4 -4l4 -4v-12l-8 -44l4 -4h4l-4 -68v-24l-4 -4l8 -32v-16l-32 -60l-20 8q-8 -40 -28 -56l-4 -16h-4l-20 4q-13 -11 -16 -56l4 -32q-30 0 -52 -52q-31 -8 -48 -36 q-49 -28 -72 -52l-16 -4q-10 28 -20 28q-19 0 -28 8l-16 -4q-12 19 -12 44l12 24l-4 20q15 0 20 52q23 5 32 24l-4 16l12 8h12l44 -16l4 4l8 -8q9 0 24 64q8 0 8 20l-4 24q0 15 68 48l24 36q-9 12 -28 12q-8 28 -20 28l-32 -4l-48 48l-12 -8h-8l-28 16v4l4 48l-8 8l-4 -4h-4 q-28 26 -28 44l12 12l-16 44l44 100h-4q0 25 56 32l24 -4q24 0 52 16z" />
<glyph unicode="-" horiz-adv-x="1274" d="M536 773q26 0 44 -56l12 -8h12l28 24q0 -6 16 -12q52 0 52 16q0 11 28 28h4l16 -16l4 4h8l4 -4l32 8l36 -8q0 10 36 20l32 -20l20 4q0 -8 32 -24q0 -32 20 -44v-4l-4 -4v-4q9 0 16 -32l-4 -24l4 -4q-40 -14 -40 -32l-40 -44l-32 -32h-4q-24 0 -44 36q-12 0 -12 12 q-44 0 -64 -24h-20q-23 32 -76 32l-40 -12l-44 4q-20 -14 -20 -24h-4l-24 16v4l-40 -8l-28 12l-32 -16l-20 4h-28l-12 12l-20 -4h-4l-36 8l-12 -16l-36 4v-4l-24 -24q-4 28 -24 28l-16 -16l-20 4l-12 -12l-12 8h-16q-14 -16 -28 -16h-4q-29 29 -56 40q-37 64 -44 64 q8 84 24 84l4 4v4l6 1l6 -1l16 -4l60 36l-4 4v16l8 8h4q29 -23 76 -32l16 4q12 -13 12 -24q18 0 40 24h8q14 -11 60 -16v-8l28 4l16 -4q72 24 100 24l12 -4z" />
<glyph unicode="." horiz-adv-x="725" d="M192 454q12 -12 28 -12l32 -20l-4 -4v-8l12 4l52 -8h28q13 0 36 -60l24 8l12 -8l-12 -20l4 -28l-4 -20l12 -60v-52l-4 -16l4 -16l-8 -24v-8l8 -8l-4 -4v-4l20 -28v-8q-25 0 -48 -28q-17 0 -28 -28q-52 -9 -52 -36q-16 -8 -44 -8q-45 20 -80 24q-33 23 -88 40q0 16 -24 16 l-32 -4l-12 32l8 28l-4 36l4 4q-20 5 -20 12l4 28l-8 24l4 52l-4 4h-4l4 4v4l-4 28q0 36 24 36q55 24 80 24q36 28 36 40v8h4l32 -4v4l4 16v4l-4 4q11 40 16 40z" />
<glyph unicode="/" horiz-adv-x="1306" d="M979 1394l12 -8h4l12 5q52 -36 52 -59l-16 -21l4 -22q-12 0 -12 -5l4 -3v-3q-5 -21 -56 -56q0 -21 -28 -35l-12 -22q-14 0 -36 -38v-13h8l-4 -3l4 -2v-3l-20 -16q-23 -39 -44 -51l-4 -11l12 -3v-11q-36 -15 -36 -37q-8 0 -20 -19v-14q-22 0 -36 -40q-28 -16 -28 -27v-3 l4 -2v-3q-9 0 -20 -38q-20 -3 -20 -8h4q-9 -32 -16 -32l8 -30l-40 -13q-44 -16 -44 -24v-3l8 -24q-24 -19 -24 -49v-21q0 -10 -28 -27q-5 -24 -16 -24l-4 2q0 -27 -28 -27l-20 -51q-36 -20 -36 -32q-48 -53 -48 -73v-19q-18 0 -24 -27h-4l4 -2l-8 -25h4l-4 -2v-3l4 -16v-3 l-4 3h-12l-12 -11l4 -19q-22 -27 -32 -29q-12 0 -12 -19q-24 -15 -24 -38q-29 -24 -36 -24q-17 -59 -28 -59q-24 0 -24 -25q-17 0 -24 -43l-28 -18l-4 2h-4l-22 -31l-20 -3l-8 5l-28 -2l-38 20l-12 -2q-11 35 -14 35v2q18 21 18 30l-4 16q7 0 16 16q20 6 32 49q15 22 52 46 q28 31 28 40l8 19h-4q24 17 24 38q0 8 44 32q8 40 28 40q0 25 36 54q32 10 32 19l-4 21q20 28 40 89q33 11 44 33l-4 2v19l40 49l-4 24v3q16 0 16 10q21 0 36 38q7 0 28 19q12 0 12 8l8 8v3l-16 16l12 8v3l-12 10v11q0 6 36 14l20 24l-4 24q8 0 8 14q12 0 12 8q20 15 20 27 l-4 26l4 3l20 -3l16 3v6q0 15 36 48v16q12 0 12 16q32 38 32 46q0 30 20 30q15 0 28 32q23 0 52 78q9 1 32 51q44 39 44 46l-4 3h-4q0 32 32 32q0 19 36 19z" />
<glyph unicode="0" horiz-adv-x="1281" d="M878 1446h16l40 -12l24 -48l-12 -76l4 -24l-24 -88q-6 0 -12 -32l-8 -8q0 -23 28 -72v-8l-4 -4q28 -37 28 -100h-4q17 -56 32 -56v-12q-11 -47 -24 -60v-4l8 -32v-12l-4 -4l12 -36l-4 -16l8 -124q0 -20 -8 -20l4 -4v-8q0 -31 -36 -64v-4l12 -20l-8 -40l8 -28l-4 -72 l-56 -80q-16 -44 -20 -80q-12 0 -28 -16q-26 0 -44 -56q-24 -24 -44 -24q-12 0 -72 -52q-20 0 -20 -20q-3 -25 -28 -48h-12l-28 20h-12l-52 -20h-16q-11 11 -48 24l-12 -4l-24 8l-20 -8q-40 44 -64 44v4q-30 -4 -44 -16l-4 4l-8 8v4l-40 28q-84 -41 -84 -88q-13 0 -28 -44 q-11 -12 -24 -12l-4 -4l-4 4q-7 32 -32 32q0 19 -32 28v4q25 148 48 148l24 40l-20 56l4 4v4q-3 18 -32 60l-52 120l4 16l-8 24l4 44l-16 40l8 20q-8 36 -16 36l-4 -4h-4l-24 88q-16 0 -16 20v8q64 4 64 52v4l-12 32l36 40l4 20l-4 56q20 38 24 80q23 25 44 80q10 0 20 40v8 l-12 20q37 84 64 84q13 19 52 24l12 8q16 56 64 56l32 36l156 16q60 -9 104 -32h40q16 -16 48 -16l4 4v8l-8 12v4h16v-24l56 -20h48q28 28 28 60v16l-8 12v4q0 7 60 40zM486 1250q0 -7 -28 -24q-27 20 -40 20h-16q-43 -7 -80 -44q-33 0 -68 -64q-19 0 -52 -68l-4 -4h-4 l4 -20v-4l-20 -56l4 -4v-4l-4 -4v-4l8 -32q0 -11 -32 -20l-32 -52l4 -80q-12 -13 -20 -76h-8v-12q28 -3 28 -16l-8 -72l16 -52h-4l16 -48h-4q4 -26 28 -68l4 -20l-4 -32q15 0 28 -48l4 -4h8q55 56 64 56q12 12 12 28q19 43 48 72l64 88q0 24 24 56l28 44l-4 12l8 20 q-20 8 -20 28q0 19 64 24q28 23 28 40q0 33 44 80q0 25 24 72q50 0 72 72q28 0 48 80l12 12l-12 24l4 4v12l-48 44l-52 24l-24 8l-4 -4q0 16 -104 16zM590 722v-8q-56 -4 -56 -24l4 -24v-12q-15 0 -20 -32q-33 -26 -44 -88q-11 -39 -52 -64l-20 -52l4 -20q0 -36 -40 -36 q-30 -38 -40 -76l-20 -4v-8q0 -26 48 -88l60 -16h4l16 4q29 0 36 -32h12q84 12 108 36q35 24 92 24l44 32q0 19 36 40q64 89 64 152l-8 24l28 24l-4 40q7 32 12 32l-4 20v16q11 47 32 72v36l-8 32l4 16q-3 61 -24 96q0 32 -16 44q-8 76 -24 76q-10 64 -32 64l-28 -4v4 q-28 -7 -52 -52l-16 -48l-44 -84q-9 0 -36 -68q-16 -16 -16 -44z" />
<glyph unicode="1" horiz-adv-x="779" d="M372 1452l4 -20h44l4 4q48 -10 48 -24q0 -41 -20 -76l4 -28l-4 -4v-4l8 -24q0 -28 -8 -44l8 -32l-8 -28l12 -32q-15 -53 -28 -68l16 -28l-8 -16q3 -52 8 -52h4v-16q-12 0 -12 -12q-10 0 -10 -72q-12 -4 -12 -24v-4q7 -60 18 -60h4v-8l-4 -24l4 -4v-4l-4 -20 q10 -42 20 -52v-20l-8 -12v-16q20 -24 20 -36q-2 -37 -12 -48v-8q11 0 20 -40l-36 -60l-4 -72l8 -8q0 -28 -8 -28l4 -20l-8 -36q4 -45 16 -56l-12 -12q0 -24 16 -24l-4 -32l4 -12l16 12v-4l-12 -32l4 -36q-6 -60 -32 -60l-28 4l-20 -20h-8q-12 12 -44 20q0 12 -20 12 q-6 31 -16 44l4 4v4l-4 24l16 8v8l-16 28q8 37 20 52v4q-16 18 -16 28q0 33 28 64l4 100h-4l4 4v28l-4 4l4 4v4l-4 4l4 4v8l-12 60v24l4 16l-8 52l4 28l-16 52h4q28 18 28 36l-20 36q0 20 12 20l-4 28l4 24q-12 0 -12 28q-20 16 -20 52l4 4l-4 28v16q0 12 24 12v12 q-16 16 -16 76v28q0 16 -64 20q-12 -25 -44 -40q0 -22 -72 -36q-24 16 -40 16l-12 -4v4l-40 -8q-8 24 -32 44q0 18 20 36v4q0 8 -12 8q0 60 44 60q31 16 56 16v4q9 0 36 -24h24q25 48 80 48q0 15 16 36l-4 16l8 20l-4 36q14 0 24 32l12 12l8 -8q32 68 64 68z" />
<glyph unicode="2" horiz-adv-x="1276" d="M524 1368q39 -21 40 -28l16 4q20 0 48 -24q136 -10 136 -40q1 -11 80 -48q0 -16 40 -40l44 -120l4 -24l-4 -20l4 -20l-24 -92v-8l4 -16q-17 -76 -36 -76l-32 -60q-12 0 -28 -52q-36 -48 -76 -48q-29 0 -32 -12l-4 4h-8q0 -15 -20 -20q0 -8 -16 -8q-16 -24 -36 -24l-4 -4 v-4l-20 4l-60 -28q-28 0 -28 28h-8q-44 -51 -100 -56q-16 0 -56 -48h-4l-24 4l-56 -24q-12 -32 -40 -64h-8l-8 8l-4 -4h-4l-24 8l-20 -64l-4 -4l4 -24l-4 -72v-8q0 -8 12 -8v-12l-12 -4l4 -32l-4 -40l16 -32l24 32l16 -4q42 0 96 24q52 0 52 -32l20 -8l4 4l40 -8 q28 24 48 24l20 4q19 -4 44 -32l44 -16l4 4h4l16 -4q45 11 60 28h28q13 0 28 -12h4q25 0 56 44v4h32q13 0 28 12l40 -8l8 8q7 -8 60 -12q16 0 16 -40q16 -21 16 -36v-20q0 -24 -56 -48q0 -11 -56 -28l-24 -20h-4l-20 4l-12 -12l-32 8l-8 -8h-4q-14 16 -52 16q0 7 -52 24 l-20 -4l-4 4h-4l-16 -4l-32 8l-68 -24l-20 8l-24 -4l-4 12l-4 -4l-20 4l-12 -12h-4l-88 20q0 -8 -32 -8l-63 -11l-53 3l-56 -12l-36 8l-20 -4l-36 4q0 -9 -20 -12q-12 19 -12 44l4 4v4l-8 32l16 52l-4 20l-4 -4h-12v84l8 12v20q1 40 8 40l-4 20v16q0 22 48 60v36q2 10 40 36 l12 20l-4 16q13 36 72 68v4l4 -4h4q16 7 32 48l4 -4h4l24 16h24l40 8q40 0 68 -20h4q17 19 96 56q0 16 84 16l48 16l4 4l8 -8h16q0 16 28 16q14 42 60 88l32 32v-4l16 4v16l8 32q-9 0 -12 20q16 38 28 100l-4 36l8 24q-14 4 -36 40l-20 20q-32 20 -32 28l-28 32q-8 0 -8 16 h-12q-11 0 -40 20l-40 4q-20 -9 -20 -20h-16l-8 8l4 12l-24 8l-32 -4l-40 20l-40 -24h-12l-28 8l-32 -4l-20 4q0 -29 -92 -56q-24 -37 -24 -48v-36q16 -18 16 -28l-4 -20l14 -52h4l12 -16q-10 -11 -10 -24l8 -24q0 -44 -28 -44l-4 4h-4l-28 -8v-16l-4 -20q-10 0 -48 44 q-44 0 -44 52q0 28 -28 52v40q-5 35 -24 56q0 44 48 100l4 -4h4q32 26 32 36l-4 16l32 16q30 88 104 88l12 4q0 12 8 12h12l32 -2h16l60 20l52 -8l16 -4h12q8 8 48 14z" />
<glyph unicode="3" horiz-adv-x="1252" d="M116 1481q56 -10 56 -40l36 -24q69 0 116 -16q11 0 20 -2l12 4v-4l64 20q2 -8 20 -16l44 8l40 -2l4 -4h4q116 9 116 20h20l4 -4l20 8l20 -8l132 28l20 -4v4q40 -24 40 -52l-24 -32q0 -33 -32 -56q-1 -32 -24 -60q-52 -40 -52 -80q-33 -16 -48 -44q-14 0 -28 -60 q-7 0 -28 -52q-20 0 -32 -60v-36q0 -11 80 -40q-1 -9 -40 -24q0 -8 28 -20h24v4l-4 28q16 -20 36 -20v-4l-4 -4q0 -16 52 -16q0 -17 28 -40v-4l-4 -28q0 -34 44 -64q0 -9 32 -20l24 -40l-4 -20q0 -15 24 -56l4 -40l-20 -76l-16 -36h-4l4 -4q0 -34 -20 -48l4 -32l-32 -60 q-12 -20 -52 -32q0 -21 -36 -80l-8 -28l4 -28l-12 -16l-4 4q-24 -24 -32 -52q-35 -28 -64 -28q-73 -58 -88 -104l-16 -12l-24 12q-56 -45 -56 -68q-21 0 -32 -24l-28 8q0 -12 -36 -20l-4 4h-4l-32 -12l-4 -4l-20 4q-33 -40 -64 -40l-12 4l4 -20l-80 -44l-4 4h-4l-12 -8 l-16 8q-32 0 -56 -44h-4q-24 36 -48 36q0 10 -36 32l-12 60q0 19 28 72q0 23 44 36l48 -8l16 4v-4l124 24l4 12l20 -4q8 0 44 36q11 12 44 12q16 28 52 28q21 34 80 68q11 12 44 16q3 24 52 52q0 11 36 36v12l-4 20l4 12h32l52 64q0 35 32 52l-4 20v8l20 28l-16 64 q16 25 28 100q-36 32 -36 80q-52 41 -52 60q-17 0 -56 48l-20 4q-18 0 -44 -48h-4q-16 21 -16 48h-12l-28 -16l-12 4q-72 -15 -72 -44l-36 -36h-32q-60 22 -60 56l-4 4v4q8 8 12 48l108 120q0 24 32 56q17 53 76 128q10 0 56 44q40 7 40 28q26 42 40 52q9 76 52 76l-4 4 l4 20q-3 12 -16 16q-24 -6 -24 -12l-32 20h-28l-36 8l-32 -4l-8 8q-13 0 -36 -16h-28q-19 0 -72 20l-72 -24l-16 4q-23 -15 -92 -28q0 -7 -36 -12q0 -14 -20 -24l-24 20l-4 -4h-4l-12 8h-4l-4 -4l-4 4h-4l-4 -4h-4l-24 8l-16 -4q-6 0 -36 52v56l-4 36q28 72 92 72 q16 0 28 20z" />
<glyph unicode="4" horiz-adv-x="1453" d="M176 1740h4q16 -8 16 -24l-4 -4q36 -2 36 -16q20 -17 20 -40l-4 -28q16 -24 24 -100q12 0 24 -60q8 0 8 -28q6 0 12 -16q-17 -80 -56 -80v-4q0 -36 44 -52q8 0 8 -20l-4 -4v-4l8 -28q-9 -30 -40 -60l20 -56v-24q0 -28 -32 -64v-4q12 0 12 -20l28 -52l4 -4v-24 q-32 0 -32 -48q-9 0 -20 -40q-11 0 -24 -76h4l-4 -4v-36q0 -32 -48 -44l-4 -4v-4l4 -12l-4 -36v-8q3 -12 32 -12l24 -8q0 -8 12 -8l60 20q12 0 64 -28v4l44 -12h4l32 8l16 -16l52 12l20 -4v4l4 -4h4q33 22 68 24h28l12 12v4q-40 49 -40 68l28 84q28 10 28 16v4 q-12 14 -16 36q-20 7 -20 40l4 4v4l-8 24l12 32q40 12 40 52q-9 12 -20 68l-4 4q4 49 12 56v32q-24 0 -32 60h4l-12 24v20q0 20 20 68l-8 84l36 48l20 12h12q8 0 12 -32q48 -30 48 -72l-12 -36l4 -4l-4 -20v-16q0 -23 16 -44l-4 -44l4 -24q-22 0 -36 -28v-28l4 -36l-8 -36h4 q10 0 20 -40v-12q-28 -31 -28 -52l-4 -20l24 -60l-4 -32l32 -36v-8l-4 -68q10 0 16 -32l-28 -52v-4q20 -20 56 -20v-4l20 4l44 -8l16 12l40 -12h20q48 13 48 28l72 -8v4l4 12q26 0 64 -56l24 -20l-12 -28v-24q-19 0 -56 -60l-76 -36h-16l-8 8l-16 -4l-24 -12l-11 15l-21 9 q-17 16 -32 16h-4l-4 -4l-88 20l-16 -12l-12 4q-21 -8 -24 -20q0 -9 32 -36l-12 -48v-16q12 -15 12 -28q0 -17 -32 -76v-8q20 -6 20 -28l-20 -28v-4q24 -26 24 -68l4 -4q0 -63 -56 -80l-28 12q-2 -12 -32 -12q-11 0 -16 44l12 24l-8 56q8 0 24 52l-16 8v24l4 16l-4 16v8 q12 15 12 36q-17 12 -36 48l8 24q-17 10 -24 28q6 24 20 24v16l-8 8l-4 -4l-4 4h-4l-24 -8q-84 9 -84 32q0 8 -20 8q-12 -20 -28 -20l-4 4l-72 -24h-20q-16 0 -48 24h-4q0 -8 -20 -8v-4l-4 4h-4q-51 -40 -68 -40h-12l-24 8l-4 -4h-4l-24 8l-28 -12l-124 36q-12 16 -12 44 q8 27 36 44q0 84 40 84v36q0 47 36 68h-4l4 12l-8 24q40 39 48 60q0 12 -12 12v32l20 52v4l-12 36q-28 0 -28 8v12l12 12h4l4 -4q18 5 28 24l-4 24q0 16 32 24v8q-22 0 -52 24v4q24 0 52 100q-16 0 -20 32l8 20l-4 16q0 96 32 116v8q-40 8 -40 24l-32 100l-16 20l4 4v12 q0 33 -24 96l56 84q0 15 32 36z" />
<glyph unicode="5" horiz-adv-x="1231" d="M90 1445h24q15 0 36 -16h20q0 16 24 16q52 -8 72 -28q26 0 40 12l4 -4h4q48 10 48 16l4 -4h4l4 4l56 -20l24 -8l8 8h36l36 12l44 -20q35 16 52 16h4l44 -8l16 12l80 -8l20 8l24 -4l28 12q44 -30 44 -40q0 -34 12 -44q-20 -35 -20 -56v-12l-28 -8l-32 8l-44 -20 q-102 28 -128 28q-72 -9 -72 -32h-8l-36 36v-4l-4 4h-4q-27 -12 -56 -12v-4l-4 4h-8q-68 -16 -68 -44h-4l-52 28l-36 -4q-15 12 -28 12h-4l-20 -16l-4 4h-4l-48 -16h-4l-28 8l-24 -44l4 -44l-4 -16l8 -20l-4 -28l4 -60l-4 -16l4 -20l-4 -32q0 -38 28 -68v-12q-8 -9 -12 -44 q-20 -10 -20 -32v-4h12q20 6 20 28q11 16 20 16l20 -12l8 12l48 -16q55 12 84 32l32 4l40 -4q4 12 24 12q22 -24 32 -24l24 8h4l120 -16q35 -14 48 -28h32q31 0 84 -60q36 0 56 -48q15 -45 36 -52q0 -14 24 -32l-4 -4l8 -48h-4l4 -4v-24l-4 -48h4l-4 -4v-4q0 -13 12 -28 l-4 -28q8 0 20 -60l-56 -148q-9 0 -16 -68l-12 -16q-28 -7 -28 -24l4 -12q-15 -31 -76 -104q-50 -20 -68 -40q-35 -49 -60 -56q-36 -40 -80 -48q-9 -12 -20 -56l-44 -16l-16 8q-8 0 -40 -48q-48 0 -72 -32l-20 -4l-20 16h-8l-24 -24h-40l-40 -8l-12 4l-32 -8l-16 4 q0 -7 -60 -16h-28l-64 44l-16 36q13 70 52 100q12 0 12 12l4 4v4h4q11 0 64 -36l44 12q0 -13 40 -24q12 20 24 20l12 -4v4l4 -4h4l28 20l12 -4v4l12 -4l32 28h4l16 -8q25 0 36 40h8v4q16 -6 16 -12q43 0 60 68q37 0 64 32q8 8 36 8q32 41 56 52q13 28 20 28l4 -4 q27 20 60 24q56 52 56 144q8 0 28 48q17 0 28 68l4 4v16q-20 23 -20 40v12l8 12v8q-13 16 -24 56q-9 0 -16 36v8l4 44l-24 36l-4 -4q-15 0 -56 24l-80 36h-8l-16 -4q-45 28 -88 28h-4l-100 -20l-4 -4h-4q-25 32 -48 32q-26 -12 -52 -52l-4 4h-4q-18 0 -60 -44q0 -18 -44 -24 l-12 -16v-28q0 -30 -44 -52q-20 0 -20 8q-18 -8 -20 -16q-47 0 -68 108q-24 10 -24 32v4q0 12 36 12q17 44 32 44l-4 12q0 12 16 12v4q0 24 -28 24l-8 32l8 16l-8 28q0 63 28 84v4q-24 46 -24 60q15 40 28 40v12q-20 0 -20 48q-4 48 -20 68l4 96l-4 4l8 36l-4 4v4 q30 120 76 120z" />
<glyph unicode="6" horiz-adv-x="1242" d="M748 556l-8 8l4 4h4v-12zM400 92l16 -4h4q0 10 40 20q0 -10 32 -16h8l36 24l4 -4h4l12 4l12 -12h12v8h8l4 -4h4l12 20l-8 24v4h12l-8 12q0 8 40 44v-8h24l16 -8l4 4l20 -4h8q9 0 12 28q20 0 44 36l8 24l-4 24l12 24h-4q24 30 24 44v44q-9 9 -16 48l4 20l-4 4h4l-20 60 q-15 0 -44 52q-39 21 -60 64q0 10 -28 28q0 8 -20 8l-4 -4q-18 36 -32 44l-20 -12q-17 28 -36 28h-8q-40 0 -40 -8l-32 8q-4 -12 -24 -12h-12v8l-52 -20h-4l-12 8h-4q-16 -8 -16 -24h-4l-12 8h-4q-27 -9 -36 -44q-14 -28 -28 -28q0 -25 -40 -36l-12 -16h-20l-4 -40v-8 q-12 0 -16 -32q-16 -16 -16 -36l4 -28l-28 -56l16 -24l-12 -60q3 -48 28 -48l-4 -20v-8q18 0 40 -24l8 8h8l8 -8v-4l-4 -4q0 -25 64 -52q0 -20 56 -44q0 -16 32 -16q0 -11 32 -16zM50 822l-2 10v8q0 20 8 20l-4 4v4l8 28l-12 32q16 7 16 28l-8 28v4l28 60q4 21 32 52l-8 28 q11 0 24 56l4 4q35 21 56 92q8 9 12 44q10 0 12 16l20 -4l24 16l4 -4q0 24 24 24q0 17 32 56q0 16 32 16q0 17 20 24h8l4 -4q23 0 64 48h4l12 -4v4l36 36l24 36q0 -9 20 -12q0 9 32 20q0 10 28 28h8l12 -8l24 20q23 -8 64 -8l24 40l12 -4l24 4l16 -4l36 4h8q28 -24 40 -56 l-44 -80l-12 -8l-4 4l-12 -12l-4 4h-4q-21 -21 -60 -24v4l-24 -8l-4 4l-36 -20l-16 4l-36 -20q-32 0 -32 -24t-16 -24l4 -4v-8h-4l-8 8q-41 -5 -48 -12h-12l-12 8q-7 0 -52 -52q-9 0 -48 -52q-8 -29 -32 -44q-12 0 -12 -20l4 -12h-4l-20 4q-16 0 -16 -16l-16 -24h4 q-8 -17 -24 -28q-20 0 -44 -88q-60 -105 -60 -148q-8 0 -8 -12q-7 0 -16 -60h-4l4 -4v-16l-4 -16l16 -44l4 4h12l20 -4q5 13 72 44q0 8 28 8q0 16 36 28q13 32 20 32h4l4 -4l4 4h24q13 -13 52 -28l24 8h16l56 -20l56 8q13 0 52 -24q44 0 44 -24l24 -24h12l12 8l36 -20 l20 -20q0 -24 44 -44l16 -24l-4 -28v-12q12 -10 12 -32q16 0 16 -20q12 0 12 -12q44 -34 44 -64v-24l-8 -16l12 -20v-16h-8v-4l8 -8q0 -77 -24 -112l4 -4v-4l-16 -96l4 -12l-32 -16l-4 -4q-14 0 -20 -32l4 -16l-12 -12l-48 4q0 -10 -44 -40l-4 -16v-16q-11 0 -36 -28l-24 -4 l-24 4v-4l-4 -4q0 -12 -16 -12l-4 -20h4q0 -12 -12 -12l-4 -4v-4l-20 4h-4q-8 0 -8 -12l-4 -4h-4q0 8 -36 12l-32 -8l-24 12q0 -8 -12 -8l-16 -4v-8h-4q-32 3 -32 12l-16 -4l-24 4l-8 -8l-16 4l-16 -4q-23 22 -64 40l-36 -4q0 24 -16 24q-8 0 -8 12q-15 0 -56 32 q-15 0 -28 40q-16 18 -16 32q-29 0 -40 52q-10 0 -12 20l-40 44q-3 32 -20 32l-4 52q7 0 12 20l-12 32h4l-4 4v4l4 12l-4 4h-4l8 36l-4 16q2 92 8 92h4v4q0 96 12 124v4q5 34 4 52q5 29 18 98z" />
<glyph unicode="7" horiz-adv-x="1199" d="M644 1442h12l72 -28q4 -12 24 -12h4q19 14 72 24l52 -16l32 4l4 -4v-8l-20 -32v-8q0 -21 12 -36l-12 -40v-44l-36 -52l-8 -8q-22 0 -32 -32h-8v-4q0 -11 24 -16v-8l-20 -64q-21 -6 -76 -140l-24 -44q-9 0 -36 -52l-40 -84q0 -36 -20 -36l-20 -28l4 -12q-17 0 -52 -116 q-16 0 -16 -20v-28q-13 -13 -24 -72q-32 -28 -32 -88l-4 -24l-16 -20l4 -4v-28q-16 -16 -28 -44v-4l8 -32v-28l4 -4l-12 -32l16 -52l-12 -24q0 -29 16 -40l-8 -80q8 0 8 -40q8 0 12 -56l12 -12v-16q-41 -83 -68 -88q-3 -20 -32 -20h-4q-36 0 -36 56q-8 3 -20 40l4 4v4l-8 28 l12 32l-4 20l12 20v36h-8v4l-4 48l44 56q-8 60 -40 60q-28 13 -28 40v4l44 48l-4 4v8l4 4v4h-4l4 12l-8 12l4 20l-8 52q36 19 36 40q0 28 8 28l-8 28q5 56 24 56q0 22 28 32v4l-4 16l28 80l-12 8q0 36 56 96v4l-4 32h4l-8 48q20 0 24 52q37 64 52 64q13 0 28 60l36 32l28 64 h-4q0 20 16 20l12 40h-4q0 32 32 48l8 28q0 18 -12 36l4 4h4q0 21 -36 24l-12 8l-48 -16q-33 28 -88 32l-24 -8q-10 0 -24 16h-8l-4 -4h-4q0 8 -24 12l-4 -4h-4l-36 12l-52 -12q0 -16 -28 -16l-12 -4v-4l-20 8l-40 -12q-17 24 -32 24q-50 -14 -72 -28q-36 3 -36 8l-4 -4h-40 q-52 48 -52 108v8l12 8h36l4 4l4 -4l52 8l8 -8l24 20h8q1 -16 16 -16l28 8l8 -8h8q8 0 16 24h8q36 -7 36 -24h12l44 20h8l36 -36h8q25 0 44 20v-12h20q0 16 20 28q69 0 84 -20q32 24 80 36q3 11 20 20z" />
<glyph unicode="8" horiz-adv-x="1285" d="M667 1214l-1 6h-24l-25 16l-14 8q-14 -2 -43 -2q0 6 -20 16l-20 5l-21 2l-23 -15h-4l-16 12h-4l-2 -2l-6 -6l-5 1l-10 -4l-30 -13v1q-8 -13 -27 -13q-20 -12 -48 -16l4 4q0 -4 -14 -18q-8 -18 -18 -18q-32 -22 -32 -32l4 -24q-3 -16 -32 -28q0 -11 -12 -24l4 -4v-4 l-16 -52q12 0 12 -12l-16 -32v-8l12 -16l-8 -48l52 -16l4 -4v-4l-4 -12q12 -28 40 -28l20 4q64 -40 76 -40q32 52 48 52l4 28v4l26 38l31 35l27 60l28 43q0 54 24 60l4 -4h4q0 13 48 56q0 8 10 8l8 20l-3 6v2l5 12h3zM817 61q-9 -7 -17 -17q-12 0 -56 -24h-4 q-18 -25 -102 -42l-56 -5l-29 -10l-9 11h-4l-16 -4l-6 3l-24 18q-3 -9 -10 -17l-4 4h-8v-8h-28l-24 4l-20 -4l-20 12q-12 0 -12 -12l-16 4l-12 -4l-8 8v4v4q-26 7 -47 12l-13 -4l-31 22l-10 13l-1 9h-4l-24 4q-8 0 -14 -12h-8q-33 33 -72 36l-4 12q8 16 8 44q-17 31 -28 36 v-8q-8 0 -12 24l-60 28v4q0 21 28 60l-20 76h-12l4 40l-12 36q0 24 48 64l56 96q0 24 12 24l4 -4l16 32q32 0 64 24l60 20q0 13 48 40l4 32l-24 16v-4l-4 4h-4l-12 -4l-12 12q-16 -2 -16 -12q-36 0 -36 44q-36 36 -72 36l-12 -8h-12l4 20l-8 16l-20 -4h-4q0 20 16 24l-4 16 l8 32h-4l4 12q-20 50 -20 72l-4 4q4 17 20 28l4 36l-12 28l52 76q0 16 8 16l-4 4q12 64 28 64l4 -4l36 16l4 -4l8 8l12 -4q0 11 48 40h12q8 0 8 -12l12 -4l56 32l16 -4v4l4 -4h1v3q4 3 9 6q31 6 80 11l82 -2l34 -13l64 -20l34 -7q8 6 12 38q28 0 28 56q20 28 28 88 q18 28 32 28l24 -2q26 18 48 18h32l4 4h4q12 -44 28 -52l4 -52h-4l-4 4h-4l-4 -40v-16q-56 0 -64 -74h-12l-12 -22l-16 -40h-4l20 -26q20 -16 28 -34q9 -18 14 -34l6 -29v-8q2 -7 3 -15l1 -1l-1 -1q1 -5 1 -12h-4q3 -26 24 -47l-4 -20v-4l-1 -15q13 -7 13 -18h4 q-17 -53 -32 -77v-2q-1 0 -2 -1q-11 -16 -22 -16v-12h-4h-4l-4 -4h-4l-16 4l-4 -4v-4q-29 0 -40 48h-4l4 4q-6 9 -4 25q-5 32 8 68l-4 28l2 5l6 11v3l-1 8l-2 21l-21 7q0 10 -16 12v8l12 20q0 15 -24 28h-8q-19 -10 -22 -22v-2l-2 -8q-8 -20 -24 -20l-4 -12l4 -12l-12 -40h4 q-18 -71 -56 -96l-4 -4l-19 -34l7 -18l-12 -20q0 -17 -22 -66q2 -25 16 -40v-4l18 -6q0 -38 44 -48v4l4 -4h4l4 4h4q2 -16 12 -16l4 4q0 -2 1 -3l1 1q17 -3 30 -6q38 -9 38 -18q20 0 20 8q64 -55 69 -53h4l13 -7l3 -3l5 1h20q7 0 15 -20h1v-5q1 -3 4 -5q6 -4 18 -15 q3 -4 -3 -18q13 -17 13 -33q13 -19 16 -44l20 -20l4 -32l-4 -52v-4l20 -28l-32 -88l4 -20q-7 -23 -40 -56q0 -31 -32 -68l4 -16q-17 -24 -43 -24l-1 -1v-7q-20 -8 -20 -24h-4zM800 205q0 14 7 22l8 -10l1 1q40 68 56 68q0 17 20 36l-4 40l12 24l-24 40l12 36l-8 12l-20 46 h-1q-1 0 -1 -1v1h-10l-4 12l-2 -2h-4l-8 8l-4 -4h-8l-36 32l-43 12q-19 7 -36 3q-16 6 -16 12l-29 -1q-26 14 -48 19l-14 3h-4q-26 16 -40 16l-4 -4l-20 4q-103 3 -102 -13l-45 -11l-21 -10q-8 0 -28 -18l-8 8l-16 -4l-12 4v-4q0 -15 -36 -28q0 -37 -56 -56q0 -8 -32 -40 q0 -20 -20 -20v-20l8 -12q-44 -16 -44 -44v-32l4 -16l-4 -16q20 -10 20 -32l-8 -36q19 -3 32 -20q44 0 44 -28q23 -16 36 -16l20 8l12 -4q0 8 28 12q24 0 24 -40q0 -17 56 -36l4 4l20 -4h32l16 12q15 -12 36 -12l28 16h4q10 -7 17 -13q1 2 3 3h20l20 -16h16l8 8v4l20 -3 q7 9 12 9q16 0 16 24q33 0 56 28l12 -2q23 20 19 19l16 20l8 -8l5 9h31z" />
<glyph unicode="9" horiz-adv-x="1242" d="M72 1194l8 8q37 13 48 56q30 0 44 40l-8 20h4q15 0 20 24h40q63 33 68 64h40l44 16l12 -4l84 12l20 -4v4l64 -16h12l32 8q17 0 60 -56l24 12q84 -13 84 -60l4 -20q35 0 60 -40q0 -12 20 -12q16 -17 16 -40l-8 -12v-4q8 -16 20 -16v-20l4 -4v-4l-32 -40v-4h12l20 4l8 -24 l24 -20v-4l-8 -32l8 -20h-4l24 -36l-16 -20l8 -20l-4 -16q20 -51 20 -68q-7 0 -24 -28h4l-4 -4v-20q12 0 12 -8v-12q-17 0 -28 -48q-12 -4 -12 -24q20 -3 20 -32q0 -30 -20 -68l12 -28l-12 -24l4 -24v-4q-8 -9 -12 -44q-7 0 -12 -24q-15 -1 -24 -16v-4q16 0 16 -52 q-14 0 -20 -76q-16 -21 -16 -36l4 -36q-68 -45 -68 -92l-12 -16q-13 0 -32 -52q-15 -28 -24 -28v-4l8 -20l-48 -20q-72 -58 -72 -68q0 -28 -36 -48q-16 0 -16 -8l4 -4q-54 -24 -76 -24q-14 -24 -48 -24l-64 -56l-4 4h-8l-36 -36q-50 -7 -52 -28h-4q-8 0 -12 -4h-4v-4l-24 8 h-4q-8 0 -16 -24l-20 4q-44 -20 -60 -20h-4q-13 0 -28 12h-12l-4 -4h-4q0 23 -28 52l4 4v4l-8 16q0 52 48 52q62 33 104 44q0 21 104 32q2 6 60 28l4 4q1 13 40 24q0 7 36 16l56 52q0 12 16 12q15 36 40 36q29 0 76 64q15 0 32 48q12 0 20 40l20 -4v28q0 20 28 32l28 88 l20 24v4l-4 48h4l-4 4v8q18 48 56 48l-28 92v28l4 4q0 28 -40 28q0 -18 -24 -24q-5 -24 -24 -24v-12q0 -24 -36 -24l-24 -4l-4 4q0 -7 -20 -12v-20h-4q-21 0 -24 12v20h-8q0 -16 -28 -40l-20 4l-4 -4h-4v4l-4 -4h-16l-12 8l-12 -26l-16 4l-12 -4v4l-16 18l-36 -8l-68 28 q-4 -12 -24 -12l-32 16l-4 -4v4l-20 -8q0 9 -48 48q0 12 -16 12q0 16 -12 16l-20 -8q0 14 -40 44q-52 43 -52 64l-16 28q8 0 8 12q0 44 -28 88l-4 20q-16 0 -16 28l-4 4q9 24 24 28l-12 56q8 8 12 80l32 72l-4 4v4l4 4v4l-4 4v4q2 23 12 36l-1 4zM392 1278l-4 4h-8 q-25 0 -48 -20l-4 4h-8l-8 -8q0 -12 -12 -12t-20 -16l-4 4h-20l-32 -32q0 -9 -24 -28q0 -15 -24 -32q-8 -80 -24 -80q-6 -22 -36 -48l-8 -52q15 0 32 -56q0 -18 -16 -48q4 -13 36 -40q0 -16 28 -16q13 -11 36 -68q17 -12 32 -52h4l4 4q33 -44 108 -44l4 -4l32 -28 q12 0 12 -8l20 4l16 -4l32 20q36 -2 36 -8l12 8l4 -4h8l20 12l12 -4q31 37 56 44l4 -4h4l4 4h4l16 -4q20 8 20 24q19 0 48 32q19 0 28 20q10 0 24 48l12 16l4 4h4l-8 36l16 36l-4 36q1 32 8 32l-4 12l4 16q-4 44 -12 52v8q12 0 12 8v4l-12 20l4 28h-4q-61 52 -72 52v32 q-33 43 -68 52q-7 0 -8 28l-20 8l-4 -4q-2 8 -76 36l-4 -4h-8q0 12 -20 12l-12 -8l-84 8q-40 -13 -40 -32zM664 594v-8h4v8h-4z" />
<glyph unicode=":" horiz-adv-x="700" d="M120 1136q40 -4 40 -20l36 8l52 -12l4 4h4l4 -4l20 4h8l4 -4l36 12l16 -8l-4 -20q0 -19 20 -48q6 -24 32 -24l12 -32v-24l-8 -28q0 -20 8 -20l-4 -16l4 -52q-39 -71 -52 -76l-4 4l-8 -8l-4 4q-28 -44 -48 -44q0 -16 -36 -16q0 -8 -56 -28q-44 0 -44 32v8h-4l-4 -4l-20 12 l-4 -4q-32 0 -64 24v16l4 16l-12 20l-4 -4h-4q-8 0 -8 12q-20 0 -20 20l-4 20l12 12v16q-9 9 -20 64q3 48 28 72q15 10 48 64h16v8l-4 4q16 40 32 40zM192 454q12 -12 28 -12l32 -20l-4 -4v-8l12 4l52 -8h28q13 0 36 -60l24 8l12 -8l-12 -20l4 -28l-4 -20l12 -60v-52l-4 -16 l4 -16l-8 -24v-8l8 -8l-4 -4v-4l20 -28v-8q-25 0 -48 -28q-17 0 -28 -28q-52 -9 -52 -36q-16 -8 -44 -8q-45 20 -80 24q-33 23 -88 40q0 16 -24 16l-32 -4l-12 32l8 28l-4 36l4 4q-20 5 -20 12l4 28l-8 24l4 52l-4 4h-4l4 4v4l-4 28q0 36 24 36q55 24 80 24q36 28 36 40v8h4 l32 -4v4l4 16v4l-4 4q11 40 16 40z" />
<glyph unicode=";" horiz-adv-x="696" d="M177 386q38 0 52 -32l32 -20l4 4q36 -11 36 -16l20 4h4l16 -20l-16 -20v-4l28 -104h-4l4 -4v-8l-4 -4l4 -4v-12l-8 -44l4 -4h4l-4 -68v-24l-4 -4l8 -32v-16l-32 -60l-20 8q-8 -40 -28 -56l-4 -16h-4l-20 4q-13 -11 -16 -56l4 -32q-30 0 -52 -52q-31 -8 -48 -36 q-49 -28 -72 -52l-16 -4q-10 28 -20 28q-19 0 -28 8l-16 -4q-12 19 -12 44l12 24l-4 20q15 0 20 52q23 5 32 24l-4 16l12 8h12l44 -16l4 4l8 -8q9 0 24 64q8 0 8 20l-4 24q0 15 68 48l24 36q-9 12 -28 12q-8 28 -20 28l-32 -4l-48 48l-12 -8h-8l-28 16v4l4 48l-8 8l-4 -4h-4 q-28 26 -28 44l12 12l-16 44l44 100h-4q0 25 56 32l24 -4q24 0 52 16zM279 694q-40 4 -40 20l-36 -8l-52 12l-4 -4h-4l-4 4l-20 -4h-8l-4 4l-36 -12l-16 8l4 20q0 19 -20 48q-6 24 -32 24l-12 32v24l8 28q0 20 -8 20l4 16l-4 52q39 71 52 76l4 -4l8 8l4 -4q28 44 48 44 q0 16 36 16q0 8 56 28q44 0 44 -32v-8h4l4 4l20 -12l4 4q32 0 64 -24v-16l-4 -16l12 -20l4 4h4q8 0 8 -12q20 0 20 -20l4 -20l-12 -12v-16q9 -9 20 -64q-3 -48 -28 -72q-15 -10 -48 -64h-16v-8l4 -4q-16 -40 -32 -40z" />
<glyph unicode="&#x3c;" horiz-adv-x="1697" d="M1393 271l-4 -4l-56 -28h-44q-20 0 -20 -12h-16v8h-28q-48 17 -48 28q-52 17 -52 28l-76 28l-20 -4l-72 8h-4l-32 24q0 20 -36 32l-12 -16l-12 4l-12 -12l-44 8q-6 28 -20 28l-32 -4q-60 4 -60 20q0 30 -40 44q-88 24 -132 52q-92 9 -92 16q-20 0 -112 28v4q12 0 12 8v4 h-4q-8 0 -8 -12h-4q-45 32 -72 32l-20 -4l-12 12q-109 44 -120 56h-4l-4 -4h-8q-80 24 -80 68q12 2 28 36v4q-12 0 -12 12l24 32l12 -4q6 22 88 32l28 -4l12 16l12 4q16 0 16 16l8 8q44 0 44 16q48 10 48 20q28 4 28 12q15 0 32 -16h4l12 16q52 0 52 20q36 25 36 32l-4 4 l16 36l76 -20l44 4l20 -16l16 16v4l4 4l-8 16l4 4l16 8v8l20 20l96 20l24 -4l52 8l20 -16h4l12 8q0 12 -12 12v8l4 4q19 0 44 32q27 0 52 48q32 4 32 12l64 -20l24 24l24 -8h4l4 4h4l4 -4v4l12 -4q13 0 16 24l28 -4h20q32 43 52 48q0 -7 20 -8l16 4l60 -20q20 0 28 -60v-16 l-4 -24q-59 -48 -88 -48h-16l-24 4l-4 -4q-63 -4 -68 -12q0 -18 -104 -28l-12 4l-16 -8l-48 -32l-40 4l-32 -8l-20 12q-60 -25 -60 -60q-46 -5 -72 -20q-61 0 -76 -24h-12q0 16 -24 16h-16l-24 -8q-14 -24 -64 -24q-13 -23 -28 -24q-7 -36 -24 -36v-8l-4 -4q-10 -36 -32 -36 q-48 12 -64 28h-4l-8 -24l-20 4l-16 -16l-32 8q-24 -2 -52 -20l-24 16h-12l-4 -12q0 -8 24 -12q0 -20 20 -48l8 -8l12 4q15 -13 64 -24l28 4l40 -8v-12l-4 -4l24 -8l4 4h16l8 -8v-4l-4 -4q12 0 12 -8q20 0 20 20h4l4 -4l100 -40l52 -44l20 4l4 -4q7 12 36 12v-28 q0 -9 48 -20l4 4l32 -8h4l48 4l12 -16q18 0 20 -16l108 -40l16 4l4 -4q44 0 92 -32h8l24 8v-4q35 -4 56 -16l16 4h24l28 -24l12 4h4l4 -4l16 4h8l32 -8h4l20 4l12 -20l16 -84v-12z" />
<glyph unicode="=" horiz-adv-x="1267" d="M-6 733l5 36l-3 16q0 19 20 68l3 28v24l19 8l20 -8q18 12 33 12l14 -4q0 8 9 8q11 -5 25 -32l39 -12l25 4v-4l17 8h3q11 -20 22 -20q5 28 17 28l25 -24q17 0 45 24h11q0 -15 42 -20l3 -4q44 4 44 16h3q13 0 53 -28q13 0 59 24h22q7 -10 40 -20l22 24l22 -12q6 0 6 12l3 4 h3l53 -20q10 12 19 12h20q5 0 5 -20l12 -8q20 0 30 40l14 12l14 -8l9 20q12 -1 25 -16h17q0 -12 5 -12h9q24 0 53 -16v4q11 0 11 -24q9 0 20 -24v-16q-9 0 -9 -24l6 -16l-6 -8v-20h-5q0 -9 -37 -52l-8 -8h-17l-11 12h-23l-16 -4l-12 4l-22 -4l-5 8h-14l-12 -4l-16 8l-31 -8 q-10 12 -62 20q-18 0 -47 -40h-11q-14 24 -40 24v4l-19 -20l-14 4l-11 -4l-3 4h-3l-8 -4l-3 4h-3l-31 -16l-22 16q-4 -13 -31 -32q-17 0 -28 44l-16 4q-26 -7 -26 -12l-56 12h-28q-10 -20 -22 -20h-19q-50 16 -82 16l-36 -20l-5 8h-23l-11 -4l-3 4h-3l-28 -16h-2 q-10 20 -34 20l-11 20l3 4v8zM-23 432v4l19 4v20l10 32l16 12l-2 4v4l58 32l8 -32h6l16 8l18 -8l3 4h3q13 -5 13 -16l29 4q5 -20 14 -20l18 4v-4q22 5 35 16q18 -4 18 -12q22 0 48 28v4h8l11 4l3 -4h2l14 4q8 0 32 -24l10 -8h6l16 20l-3 4l3 4l32 -20l5 8l37 -16q22 7 22 12 l29 -12q15 0 37 20l40 4l35 -16l77 -12v4q0 12 43 12l13 -4l11 8l10 -8l27 12l24 -4h8q0 14 29 20q24 0 56 -40q0 -12 8 -12l6 -24l5 -8q-7 -84 -51 -84l3 -4v-4l-8 -12l-13 4l-11 -4l-13 8l-22 -12l-16 4l-26 -4l-35 12l-13 -8l-16 4l-32 -12l-16 12q-16 0 -43 -24h-8 l-16 16l-21 -4q-11 6 -11 12l-26 -4h-19l-8 8q-24 0 -24 -20l3 -12h-8q0 16 -8 16q-12 -2 -24 -24q-13 27 -32 40h-3l-59 -16q0 8 -16 8v4l-18 -12l-14 4q-51 -10 -72 -28q-33 36 -47 36l-6 -8h-24q-30 -16 -45 -16l-5 8h-3l-11 -12h-2l-51 16h-5v-8h-3l-37 16q-1 11 -30 44 q0 48 -21 48z" />
<glyph unicode="&#x3e;" horiz-adv-x="1680" d="M-1 280v4q17 60 60 60q9 0 28 24l20 -8q24 0 24 24l20 4l44 -12l56 16l16 16q12 0 12 -16h4q11 0 76 56l52 24v-4q68 11 68 44l48 -4q7 28 28 28l24 -4l64 28h8l4 -4h4q0 16 20 16l16 4l12 12h24q0 40 32 40v-8h20q20 -32 40 -32q12 28 36 28v-4l24 12l24 -4q36 9 36 20 h28l24 -4q68 28 88 60l16 4l8 -20h8l12 8h12l4 -4h4q29 19 44 56v4l-16 -4q-19 0 -72 28v-4l-4 -4v-4l4 -16l-4 -4h-8l-28 44l-32 12l-64 24l-4 -4h-28q-17 20 -60 20l-36 36l-20 12l-36 -4q-30 0 -100 40q-17 0 -56 24h-8l-16 -4l-20 28h-8v-4q-110 0 -204 44l-8 8v4 l-16 -8l-8 8h-12l-4 -4q-31 24 -44 24v-4q-14 9 -84 20l-4 -4h-4q-16 12 -68 20q-15 16 -24 16l4 4v4h-12v-8h-4l-76 56l-4 16v12q9 0 20 28l32 20l8 8l52 -12l12 12h24l12 -8l16 4q1 -24 8 -24l24 4q42 0 72 -28q76 -14 76 -28h8l12 12l44 -32l4 4h12q13 -32 40 -32v4l-4 4 v4q15 12 28 12h8l4 -36h4l16 4l68 -16q19 -10 36 -32l24 -4v4l12 -8l4 4h8l12 -8l16 8q28 -12 28 -36h8v-4l20 4l88 -24q0 -9 28 -20q0 -6 36 -24v-12h-8v-8l24 -4l52 4q68 -17 80 -40v-8h4q28 0 112 -24q81 0 100 -28l4 -4h4l24 8q39 0 52 -56l12 -12l-20 -64l4 -4 q-5 -36 -12 -36h-24q0 -16 -36 -32q-49 -3 -60 -12l-24 8l-48 -16q0 -6 -36 -28l-4 4q-91 -12 -116 -36q-14 -12 -28 -44l-4 -4h-20q0 16 -12 16h-12q-30 0 -32 -40l-16 -20l-52 20h-4l-4 -4v-4h8v-4l-8 -8l-4 4v-4l-4 4q-20 0 -56 -28q-14 0 -48 -20l-20 4q-32 -26 -32 -44 l4 -16l-20 -4q-24 9 -24 16l-4 -4h-12l-24 4q-81 -17 -100 -36l-8 -8h-12v8h-12l-28 4q0 -11 -32 -20l-16 -16h-8l-12 8l-92 -44l-24 4q-96 -18 -96 -40l-20 -4h-32q-11 0 -40 20q-26 0 -32 36zM643 1008h8l4 20h-12v-20z" />
<glyph unicode="?" horiz-adv-x="1177" d="M335 209l14 20l42 -2l38 -15l26 -4l10 -14q10 0 32 -40q31 0 43 -32l-3 -20l18 -23l-4 -3v-16q11 0 18 -13l-14 -56l-54 -55h-7l-4 3h-4l-18 -13q0 -18 -28 -20v-3l-18 7q-15 0 -25 -33h-15l4 3v7l-4 16l-28 -10h-8q-7 0 -14 26q-104 20 -104 49q-11 0 -18 30v6l4 4v3 q-12 0 -22 49q32 17 32 42l-3 33q10 0 18 32q20 0 36 40l32 14zM461 463q1 -7 1 -13l-2 -2q-3 -22 -11 -32l4 -16l-4 -16v-8l4 -4v-4q-19 -2 -36 -56h-4v4l-40 -20q-15 29 -39 30q-14 37 -25 74l-4 4v28l4 4q0 14 -20 48v4q0 8 16 8q3 21 6 33l-1 1h2l2 6l-4 42l-2 62h4 l4 -4v48q-12 3 -12 12l20 100l8 8l16 20l37 5l33 21l12 -4q19 0 56 36h4l4 -4h16l48 16l32 28q30 37 44 40l16 -4q18 3 36 40l12 -4q15 36 28 36v16l-12 4q16 44 20 100q-8 18 -16 20q0 62 -32 84q-34 0 -52 44l4 4l-8 8h-32l-28 4l-4 -4l-20 28l-28 -4h-28q0 12 -12 12v-4 h-4l-4 4h-8l-20 -4l-20 16h-32l-52 -24h-36l-48 -48l-20 4h-4l-24 -20l-16 12q-21 0 -44 -24q-40 0 -40 -72q4 -38 16 -48v-20q-9 -5 -28 -92h-8l-16 12h-12l-4 -4q-13 17 -24 20q-14 0 -40 92v4l4 4l-4 16v32l8 32v8l-8 36v4q40 17 40 68q33 0 64 36q59 27 60 52 q25 9 52 44h12l4 -4q10 20 40 20l32 -4h4l4 4l4 -4h32q8 0 28 48l16 -4l24 4h8q22 0 52 -20l4 4h8q0 -26 40 -32h4l4 4q25 -4 68 -32l4 4q46 0 52 -20q52 0 52 -20l64 -28q17 -88 64 -88q10 -16 20 -16v-12l-4 -4h4l-4 -32v-4l4 -4v-4l-4 -4v-8q28 -27 28 -108l-4 -28 l12 -48v-4l-24 -52v-4l4 -28l-28 -36q0 -16 -48 -48q0 -28 -24 -28q-62 -40 -76 -40l-28 8v-4h-8q-12 -36 -28 -52l-32 8q-20 -3 -20 -12q-75 -17 -104 -36l8 -52l5 -15l-7 -39l-20 -26l14 -40v-2h3v-8l-3 -5q-1 -13 -5 -20v-44z" />
<glyph unicode="@" horiz-adv-x="1927" d="M825 472l-52 -17h-3l-22 4l-25 -11l-33 7q-8 -12 -36 -21l-18 7l-32 -7v3q-33 -10 -33 -18q-21 -9 -50 -54h-4l4 -4v-3l-36 -29v-4l7 -28v-36l-3 -36l21 -18l-3 -18v-4q16 0 39 -33l51 -21q30 0 39 -29l4 -4l4 4h10l22 -4l14 4l26 -18h7q12 0 32 22q7 -15 26 -15l3 4h4 v-7h7q0 17 22 32h39l4 -4q32 9 32 18h7l4 -3h4q0 12 7 18l3 -4h8l36 36q57 36 57 62l-3 3l32 4v7h-7v18l-7 11v7l7 22l-4 18l11 3l-3 18l14 15q0 12 -18 39q0 48 -43 69l-4 3v4h-11q-20 0 -36 -14h-21l-26 3v-7h-3q-22 0 -22 14l-11 -13l-10 3h-15zM869 569q11 11 20 11l4 4 v4h8l28 -13q37 1 60 1l64 36l16 -4q0 11 20 20v48l8 12v12l-24 48l4 16q-31 80 -56 80v-4q-11 0 -16 24l-16 12l-12 -8q0 12 -52 32v8l-28 -4l-4 4v4l-72 -20h-4q-15 12 -28 12h-24l-24 -20v4q-24 -10 -24 -24h-12q-44 0 -44 -52q-36 -96 -128 -96l-24 12l-8 12 q-18 13 -32 40l4 4v4l-8 24v20l12 20l-4 28q12 0 16 48q33 25 56 32l12 -4q0 23 36 36q24 20 120 52l44 -8q25 20 68 20l20 -4q0 10 16 12l16 -8l24 20l44 -32l4 4l20 -8l24 8q10 0 28 -16h28q0 -25 20 -28l32 -16q51 -60 60 -60l4 -4h4l-4 -28v-4l32 -80v-32q12 0 12 -8 l-8 -24l8 -8v-4l-16 -20q12 -15 12 -28l-4 -40q8 0 8 -20q14 0 24 -24l-4 -24l4 -4v-4l-8 -12l4 -20v-16q0 -26 -12 -40l8 -20q-10 0 -20 -40l4 -36v-4l-28 -84v-8l4 -20l4 4h4v-8l-4 -20q8 -56 28 -76l25 -17q15 -9 31 -11l-4 -4l38 8l16 12l4 -4h4l35 25l-2 4l13 10 q13 34 53 87l24 86l-1 4l20 62l12 1v12q19 7 18 32q-7 64 -1 85l-1 4l-12 8l-3 8l-3 67l-1 4l-5 2l2 65l-4 -2q-7 19 -14 16l-4 33l-4 11l-11 9l-3 7v43l-10 26l-19 18q-10 28 -8 70l-13 12q-6 36 -49 63l4 14l-28 29l3 5l-2 3l-33 32l1 -7l-14 4l-63 25l-97 48l-10 -8 q-29 7 -32 16q-10 0 -19 1l-46 10q-75 -4 -64 9l-47 -3l-31 11l-39 6l-27 -2l-33 4l-28 -4l-45 8l-3 -3q-46 -24 -52 -19l-12 5l-7 -15q-97 -58 -126 -70q-6 -8 -82 -19l-38 -21l-15 -14l-19 -20q-26 -63 -47 -63l-12 -34l-30 -56l-3 -23l-3 -3l-14 -4l-5 -6l1 -6l-32 -13 q-5 -6 4 -14l2 -19l-7 -15h-6l-2 -3l-10 -18l-11 -1l-9 -24l14 -1q12 -11 -13 -47l3 -19l-4 -32l4 -17l-4 -12l9 -20l-1 -4l-3 -114l4 -1l-16 -20q4 -11 -2 -29l4 -1l10 -19l-4 -11q11 -4 2 -31q-13 -76 7 -83q-2 -8 13 -13q-10 -27 26 -49q-3 -8 11 -29l-3 -8q13 -5 20 -28 l31 -59q23 -66 103 -113l10 -21l11 -4l5 3l4 -2l2 -5l-1 -4q-8 3 70 -33h2l2 2l2 -2h2l2 -3q16 10 22 3l13 -15l12 4l10 -18l13 -11v4l28 -14q0 -5 -3 -8l37 -1l42 4l3 -3l31 -5l4 -12l28 -8l2 -3h31l7 4q13 7 42 -11h6q20 -6 32 1l10 5q16 -17 37 4l61 8l31 15l31 -2l14 20 l5 -2l29 7l13 7q19 4 54 12q20 -5 34 -28l-35 -36l-39 -26l-70 -33l-8 6l-19 -15l-26 -11q-37 -8 -75 2q-32 -19 -72 -14q-6 1 -41 -2q-5 7 -48 -4l-6 2l-2 3q-22 -5 -34 -1q-37 -9 -55 -2q-28 5 -38 17q-8 -7 -28 3q-1 -1 -12 -2l-3 1l-10 13h-4l-9 2q-5 1 -13 1 q-59 10 -86 14v8q-16 0 -19 5l-62 43l-58 32q-22 36 -125 101l2 3l-5 -2l2 10l-11 5l-7 40q-10 27 -14 49l-4 -6l2 4q-13 30 -19 49l-22 33q4 12 -10 34l6 2l1 4q-27 20 -21 37l-5 52q-13 5 -31 42l-10 54l5 15l2 4l-4 14l11 18q-11 4 -6 19l8 10q-22 33 -15 52q7 18 23 39 h-13q4 7 8 15q-18 15 -5 31l18 35l8 10l6 -6l-3 20v5l3 3l-7 5q-16 30 7 58v25q-9 8 8 63l6 1l10 18l15 24q-6 12 15 24l18 36q22 64 63 89l1 19l15 19l32 35q-6 6 1 15l37 -5l-1 11l7 1l10 13l10 18q7 -6 28 6l75 58l28 14q20 11 35 53l49 5q16 18 42 12q32 24 61 16 q10 12 71 29l1 -5l6 -5q7 -6 27 13q6 -5 37 10q16 -14 66 -14l33 -12q9 -7 16 2q66 -21 70 -17q27 4 37 -5l45 -1q9 0 13 2q13 5 91 -39l18 6q6 -15 17 -11l11 5l3 5l5 -3l4 2l2 5q4 -11 18 -15q10 -35 23 -31q46 -19 53 -17q24 -43 70 -56l8 2q9 4 30 -23q17 -5 26 -24 q21 -10 25 -53q37 -55 44 -52l13 -59q7 2 17 -24l20 -53q-2 -17 -14 -21l8 -23l36 -46l10 -52l5 -15l-4 -10l43 -95q-12 -26 3 -67q-31 -68 -20 -97q5 -36 -10 -42q3 -28 -2 -30q4 -17 -29 -62q-9 -92 -39 -103q6 -36 -14 -44l-23 -29l-15 7l13 -22l2 -8q-36 -32 -52 -68 l-44 -32q0 -9 -62 -24q-15 0 -43 -1l-10 10l-7 -15l-20 4l-30 26q-14 -10 -49 16q-49 44 -49 50q-31 19 -56 22h-8q-11 -10 -48 -16q-9 -18 -48 -40q0 -6 -32 -12q-8 -14 -32 -14l-12 4q0 -7 -48 -16q-7 -13 -56 6q0 -16 -36 -16v-4q-10 0 -40 24l-16 4l-24 -8l-20 16h-48 l-92 52l-28 20h-4l-24 -8h-24l-4 24l4 4q-7 0 -12 36q-14 26 -48 48q0 16 -8 16q16 18 16 84l-8 16q0 40 20 92q0 20 24 36q19 48 56 48l52 52l36 4q21 -19 44 -24l36 4h16q49 28 108 44h51q28 3 29 -4l-4 -4l4 -4l4 4h12z" />
<glyph unicode="A" horiz-adv-x="1349" d="M509 1383l62 -12l12 4l38 -4h16q28 -65 54 -96l-17 -74v-21q0 -12 25 -12v-42q29 -38 29 -78l-4 -13l33 -95l-4 -16l4 -25q0 -42 -20 -58q-42 0 -58 29q-13 0 -13 33q-37 34 -37 58l4 25l-4 16l4 33q-8 19 -16 21l4 4v13q-29 0 -38 49q-24 6 -24 29q-100 -48 -100 -83 q0 -11 -33 -20l4 -54q-16 -65 -53 -99l4 -4v-5l-33 -74q0 -50 -29 -108l4 -12l-38 -21l33 -58q-4 -17 -21 -29l2 -37l26 -4q58 -35 101 -35l4 4h9l4 -12l-9 -8l21 -4q29 33 54 33l37 -9l8 9h13l33 -9q10 25 17 25l20 -29q40 8 42 17l4 -4l16 4l25 -4l8 8l23 10l-2 45l-16 62 l4 42q-21 11 -33 49q6 58 29 58q8 0 12 33h8q58 -51 58 -66l-4 -54q25 -78 54 -78l8 -25l-4 -4v-4q21 -36 21 -79l-9 -25l9 -8l4 4h4q12 0 21 -50q45 -48 45 -74l-4 -83v-8q15 0 25 -46l-4 -4v-4l4 -4v-4l-9 -50h5l41 -62v-8q0 -79 -46 -79l-41 -8q-22 0 -47 7l-11 42v13 l-16 50l4 20q-25 17 -25 42v12l4 29q-19 13 -33 46q-21 8 -21 33l4 20q0 53 -57 75q-54 0 -54 21l-25 -9h-25l-16 4l-13 -8l-4 4l-33 -8l-46 8l-53 -12q0 7 -38 29h-12l-29 -25q-21 12 -41 12l-9 -8h-8l-12 8l-50 -53q-11 -21 -17 -71l-4 -4h-4l-4 4h-4q-21 -34 -21 -54v-4 l4 -4l-20 -66l12 -33l-33 -66q0 -20 -41 -46l-13 -12l-8 8q-18 0 -61 -15q-26 11 -38 52l-13 21l4 4v4l-4 4v4l4 25l-8 17q14 66 41 66q7 99 25 99q11 0 25 29l-4 25l4 4h4v-4q18 0 29 83q7 0 25 62q22 11 37 75q8 0 17 24l-4 5v4l4 12l-4 21q36 12 37 25q-3 41 -8 41 l24 103q0 28 25 42v8h-4q29 71 29 91l21 71q8 0 8 20q20 45 37 62q0 50 21 50h4v4l-4 66q25 36 25 58l-4 4v5q6 46 33 62q33 41 66 41z" />
<glyph unicode="B" horiz-adv-x="1166" d="M248 1366h12q24 -16 24 -36h12q64 36 80 36l36 -8h20v8h12l32 -12v4l32 -8l12 4l140 -60q13 -23 48 -32l56 4q14 0 28 -20q0 -12 -16 -12l-4 -12q0 -12 24 -12l12 -28l-12 -84l32 -12l4 4l4 -4v-32l-4 -16l4 -16v-4l-4 -36l4 -12q-32 -56 -32 -68q-3 -48 -32 -48l-24 -40 l-16 -116q12 -16 12 -36q47 0 68 -60q0 -36 24 -60l-4 -20q1 -28 36 -84q0 -22 -48 -76q0 -20 -8 -20q0 -19 32 -40v-16q-12 -1 -36 -64q-18 0 -28 -40h4l-4 -4l4 -20v-12q-12 0 -12 -12q0 -8 -48 -12l-52 -40q-23 -48 -48 -48l-36 12q-80 -30 -80 -52v-4h-20q-15 0 -36 60 h-4l-24 -20l-12 4v-4l-4 4h-8l-4 -4h-4l-4 4v-4l-48 12l-68 -20l-24 8h-8l-16 -20q-20 0 -20 -12l-44 24l-28 8h-36q-28 90 -28 148l-20 20q-12 0 -12 8q0 25 20 40v4q-24 37 -24 92l4 28q-4 16 -20 16v20l12 24l-20 52l4 4v4l-12 32q15 12 32 52l-4 4v8l4 16q-27 37 -28 56 q15 17 28 84q0 12 -20 12l-4 20v36q12 15 12 28l-12 12v28l4 4l-4 4v4l16 36l-8 28l8 16l-16 100q16 47 32 136q0 43 -20 60v12q14 0 32 64l24 16h4l48 -12l4 4l16 -4l-4 -4v-8q8 8 56 12l8 8l4 -4q36 3 36 16zM200 1150l4 -16l-28 -4h-8v-8q-20 -1 -20 -20l4 -4v-4l-4 -16 l40 -56q-35 0 -44 -36l8 -60l-4 -52v-8l-4 -4q0 -16 52 -16q12 -18 12 -36q36 0 36 -36h4l4 4l4 -4h4l28 8l24 -12l20 4l32 -4l24 20q50 -10 68 -28l20 4v44l28 4l40 -12q12 0 12 12l44 -12q0 6 44 16q23 40 44 40l24 -8h4q24 9 24 40v4q0 8 -20 8v20l24 48q-18 0 -24 40 q-44 5 -44 44l8 32v8q0 10 -32 20l-28 -4l-44 48h-52q-8 0 -8 12l-4 4h-28q0 10 -12 20q-49 -4 -92 -20l-28 4l-12 -4l-24 16l-4 -4l-32 8q-84 -18 -84 -44zM788 670v-4l-8 -8v4zM220 622l-16 8l-4 -4v-4l8 -8v-8q-20 -28 -36 -28l-12 4l-28 -4v-4l8 -12l-4 -4h-4l4 -4v-4 l-4 -28l12 -56v-20q0 -13 -12 -28v-12l16 -28q0 -25 -20 -36l4 -40v-40l-24 -44l12 -32l-4 -4l4 -4l48 12q14 -17 60 -32l8 8q7 -28 32 -28l20 12l36 -12q35 3 44 12q23 -16 36 -16l4 4h4l24 -4h4l48 12l36 -8q36 16 56 40l16 12h4l4 -4l12 4l12 -4v4q23 44 52 44v40 q0 9 52 12l16 12l-4 4q0 34 32 68l4 20v24l-16 8l-4 -4q-16 27 -20 60q-24 0 -24 44l-8 24l-24 12l-12 -12h-12l-36 16l-4 -12l-24 8v-4q-32 12 -32 40q-2 16 -32 16l-8 -8q-29 0 -36 28h-28q-9 8 -28 8v4l-40 -16l-52 20l-16 -4l-4 4h-4l-24 -8l-44 8q-18 -7 -28 -24z M576 554h8v-8l-8 -8l-8 8z" />
<glyph unicode="C" horiz-adv-x="1331" d="M704 1180l-8 -54l8 -8v-8q-10 0 -12 -16q-12 0 -12 -16l8 -36l-4 -32q8 -20 68 -80q0 -17 72 -20l12 -12l4 4h4l-4 4v8q0 40 28 40q9 56 16 56q8 1 12 24h-4q-12 0 -20 56q-24 0 -24 20h-24l-16 44q-39 0 -52 40q-4 12 -24 12h-4q0 -16 -20 -16zM704 1190l4 28h-8l-12 -8 q-8 0 -28 28l-20 -4h-8l-28 4l-20 -16q-48 4 -48 12l-64 -16l-28 4q0 -28 -68 -28q-27 -22 -84 -32q-22 -60 -40 -60l-16 4q-19 0 -32 -52h-8l-4 -16l4 -4v-8l-48 -48q-7 0 -8 -28l12 -40l-4 -4v-4q4 -17 20 -28l4 -16q0 -8 -36 -36q0 -68 -8 -68l4 -4v-8q0 -8 -12 -8l-4 -4 v-4l4 -20h-4q12 -20 12 -40v-4l-4 -4l4 -4v-8l8 -104l-4 -4v-4l8 -24l-4 -44q10 -3 24 -52l20 -36q18 0 32 -28l-4 -24q0 -21 28 -36q23 -24 36 -24l-4 -28q0 -30 76 -68q37 -9 52 -24q35 -24 64 -24l16 4q0 -7 28 -24q16 24 36 24l20 -12h40l28 28l24 -4l72 36l16 -4 q12 0 12 20q15 3 44 36l32 8l12 -12l20 4l-4 20v24l16 24v8l-8 32v4l16 40q16 0 16 28l-4 32l4 4v4l-4 16v4q12 13 28 60l-4 40h4l20 -4l36 4q36 0 52 -76l4 -44q-13 -88 -44 -88l-12 -32l8 -24l-12 -24v-4l12 -40q-11 -15 -48 -28l-8 -36l-4 4h-24l-8 -8l8 -28 q-20 0 -20 -24l-40 -32l-24 4l-44 -44l-16 8q-26 -9 -64 -52q-16 -4 -44 -28h-8q0 27 -40 36q-16 0 -64 -28h-8l-48 24l-24 -4q-19 16 -156 40l-16 20l-4 -4h-4q-21 0 -76 68q-3 12 -40 20q-6 28 -48 56q-6 46 -28 72q0 20 -24 60v4l4 12q0 8 -20 24q-11 40 -16 40l8 44 l-24 100l4 16l-16 40l4 28l-4 4q8 0 12 44l4 4v24q12 0 12 8q-8 10 -8 52q-16 0 -16 72q24 19 24 52q8 0 8 12l-4 16l4 12l-8 8v8l8 32v12q12 0 12 8v12l-4 28q20 5 20 36q12 0 48 64q17 32 36 36l40 36q0 35 44 68l8 8l20 -4q0 12 64 24q9 20 32 32l4 -4h4q21 0 80 32h28 l20 -4q0 11 56 24l52 -20h36q0 -12 8 -12h4v8l52 -16l20 4q23 -22 84 -44l4 4h4q26 -25 44 -28v4q20 -20 52 -20l88 -136l-4 -24l24 -72q0 -18 -24 -68l4 -4h-4l4 -4v-4q-22 -104 -52 -104q-24 -28 -60 -28q0 -8 -20 -8q0 -14 -20 -24l-48 4q0 -14 -24 -24q-67 16 -108 72 q-10 0 -28 68q0 8 12 8l4 4v16l-24 4v24l4 16q-10 52 -20 52l4 4v4l-4 20q26 80 44 80q24 0 40 40h8z" />
<glyph unicode="D" horiz-adv-x="1378" d="M214 1390l28 -8l4 4q0 -8 12 -8q20 0 20 8l4 -4h4l24 4v-4l4 4h4l32 -24l48 8l76 -12l16 20l32 -8h40l4 4q67 -44 104 -44l48 12h4q12 0 12 -24q39 -8 80 -76q14 -26 60 -44q2 -9 32 -20q0 -29 28 -40q24 -9 24 -16l-4 -24q12 -16 24 -72q20 -7 20 -20l-12 -24 q28 -16 28 -48l-4 -52q20 -42 20 -72v-20l-24 -32q2 -20 32 -20l24 -32l-8 -36l4 -4v-4l-4 -4l4 -20l-8 -36v-16l40 -64q-30 -38 -48 -80q-20 0 -20 -40q-9 -47 -44 -80v-16l12 -16q-5 -12 -84 -48q-20 -32 -20 -44v-4l24 -28q0 -52 -44 -60l-60 12q0 -26 -52 -60v-8h8v-20 h-4l-36 16l-20 -8l-20 8q-5 -13 -40 -24q0 -16 -36 -16l-20 -16h-8l-16 12l-12 -8l-28 8v-4l-72 12l-16 -8q0 24 -44 24l-12 4h-8q-32 -16 -60 -16l-40 16h-28l-4 -4h-4l-4 4l-16 -12l-4 4h-4l-16 -4l-20 8l-20 -8l-24 8l-12 -4l-36 4h-4q0 16 -20 32l-4 28q12 16 16 64 l36 16l4 -4v4l4 -4h8q8 8 56 12l20 20h16l12 -8h4l12 32q0 36 -16 72h4l-4 4v20q12 18 12 36l4 12h-4q-32 20 -32 40l12 28l-16 48l8 8q-2 23 -12 36q32 58 32 88v16q-36 24 -36 44q12 4 12 24q0 23 -16 48l24 56l-12 36l4 24l-36 80v12q18 0 44 48q16 0 16 16 q-9 126 -36 144h-8l-12 -4l-68 12l-4 -4h-12q-41 18 -96 84v16q5 16 24 16l8 12l-8 24q13 52 36 52q11 -8 56 -12l20 24l52 -8q24 20 36 20zM518 1162h-24q-15 12 -28 12l-28 -4l-24 4q-44 -13 -44 -32h-28q0 -16 -12 -16l-12 8l-4 -20q36 -21 36 -32q-14 -32 -36 -32 q0 -8 -20 -16l-8 -12v-8q17 0 24 -20l-4 -12l4 -24h-4l4 -4l-4 -16l8 -76l-16 -8v-16l8 -8l-4 -4q16 -64 44 -112q-24 -20 -24 -48q7 0 12 -20q-28 -24 -28 -48l20 -32l-12 -80l16 -24v-24l-4 -16l4 -4v-4q-8 -18 -16 -20l4 -4v-56q-12 -15 -12 -28l8 -32l-16 -64l28 -32h-4 q0 -20 48 -20l8 -8l40 16h4l12 -8l12 4q48 -3 48 -8q54 8 84 36l12 4l40 -16h8l4 20v28l16 8l36 -4q140 50 140 96q16 0 16 12l-4 12l44 40q6 34 24 48q0 32 12 32v20l8 12l-4 4l4 4h4l4 -4l4 4v4l-4 4h-4q-16 -5 -16 -20h-12v20h8l-20 24v4q19 41 40 48l12 44l-12 20l8 32 l-12 32l4 44v4l-4 16l4 12q-8 0 -12 24h4l-4 4v4l4 4v4q0 20 -44 20q-17 23 -24 128l-20 20q-29 65 -64 80l-4 4q0 29 -64 68l-16 16l-32 -12q-62 14 -80 28h-8q-16 0 -56 -28z" />
<glyph unicode="E" horiz-adv-x="1274" d="M262 1356q14 0 60 -24h8l36 12h40q18 0 32 -16l32 8l24 -8q57 3 96 20h52q23 0 48 -16h36q17 0 32 12l32 -16l56 16q76 -8 76 -25q0 -8 24 -28l20 -37q-51 0 -68 -61l-8 -8h-16q-13 13 -44 16q-18 -28 -40 -28l-32 20l-28 -8q-12 0 -12 16l-16 4q-17 -40 -36 -40 q-5 17 -20 24h-8v-8q-12 0 -12 -8l-48 28q-24 -16 -44 -16q-28 0 -28 8l-40 -4l-100 8l-24 -4l-56 8v-4q0 -8 -24 -8l-52 4q-28 0 -36 -49l-8 -8q6 0 12 -114q8 0 8 -49q-36 0 -36 -48q0 -40 24 -65l-8 -29l4 -12l-4 -4q7 -17 44 -17q36 -6 52 -20h4l24 4l4 -4h4l20 8l16 -8 q100 0 100 61l12 8q37 -11 60 -69l24 -12h8q15 0 36 20h20l44 -49v-12q0 -6 -40 -32q-5 -26 -20 -37v-4h-32q0 12 -20 12l-80 -28l-16 -4l-52 16l-16 -4h-8q-21 24 -44 24q-2 -12 -32 -12h-12q-20 0 -20 8q-35 -28 -56 -28l-20 12l-28 -33q0 -12 28 -61v-40l-8 -33l4 -4v-4 l-4 -20l20 -21l-16 -97l8 -13l-4 -20l4 -20h-8l-4 -57q13 -61 24 -61l24 -9h16q27 25 40 25l16 -12h8l40 12l24 -8h24q115 0 136 -21q84 0 124 17l16 -4l28 4l52 -17l20 21h12q16 0 40 -25q14 0 56 49l4 4h4q67 -21 80 -49v-32l4 -25q-19 -69 -32 -69l-84 -28l-44 20l-32 -4 l-24 8l-32 -12l-4 4h-4l-68 -12l-12 4l-52 -20q-35 52 -68 52q0 -12 -64 -12h-8l-4 -4l-32 8q-60 -3 -60 -16v-28q0 -30 -12 -33q-12 17 -12 33l8 24l-8 8l-44 -8l-4 4q-2 -12 -32 -12h-8l-40 28q-45 -23 -68 -44h-28l-4 16h4q0 14 -32 20v25q-12 0 -12 20q-12 2 -32 57h-4 l4 41v12l-4 20q18 7 28 25v36l12 53q-5 21 -20 33l-4 16q16 19 16 33l-4 4v4q8 52 20 77v4q-18 31 -28 65l12 41q-2 15 -32 45h24l12 65q0 25 -32 142l8 53l-8 53l8 8l-4 41v12l8 12v8h-4q-28 0 -28 -20h-12l-8 8v12q0 9 20 9q24 28 24 48l24 90l-4 20l4 41l-4 32 q0 28 72 82l36 -20q16 0 16 16l32 8l52 -8z" />
<glyph unicode="F" horiz-adv-x="1249" d="M84 1401l108 -25h4l64 8q23 0 48 -33q49 4 60 12l52 -4q13 0 36 29h4l20 -4l32 9q0 -34 56 -34h52q36 15 36 29h20q18 -15 36 -16q0 -13 8 -13h32l44 8h4l48 -16l12 4v-4l28 8q51 0 64 -42l4 -17l-24 -46l8 -34l-24 -42h-4q-42 29 -116 29l-8 -8h-16q-19 0 -28 13l-20 -5 h-24l-32 13l-24 -13l-96 22l-16 -17h-24l-48 -13h-32l-24 13q-51 0 -84 -21l-32 -9h-36q-20 -1 -20 -8l-4 4q-64 -10 -64 -67q-7 0 -8 -42v-17l12 -42l-4 -17l20 -55q-23 -16 -24 -25l4 -4v-4l-8 -43l4 -37l-4 -13l16 -17l32 -4l72 8q56 -9 80 -29l40 17l36 -9h12l64 13 q0 20 68 38h4q48 -20 48 -93l16 -4v-17q0 -25 -44 -50l4 -21v-17h-28l-4 -4l-4 4h-20q-49 -10 -68 -21l-4 4l-20 -4q-13 0 -44 25l-20 -13l-88 21q-12 -8 -64 -16q-24 16 -36 16l-4 -4l-4 4h-4q-44 0 -44 -29l-8 -29q4 -17 28 -17l24 4v-21q-14 -18 -16 -51q12 -21 12 -42 v-21q0 -20 -20 -33l-8 -30l8 -17l-16 -33q6 -17 12 -17l-4 -63v-68l4 -4l-4 -12l8 -42l-8 -26l4 -21v-42q0 -20 -64 -25q-8 0 -77 1q1 41 1 54l12 67v13q-16 45 -16 71q16 25 16 38q-28 27 -28 42l8 13l-4 4v46q7 17 24 17v4q0 11 -16 13v8l4 17l-4 13l4 46l-4 4v4l20 64 l-12 25v21l12 42l-4 4h-4q-8 0 -8 -17h-4q0 41 -8 55l8 55l-16 50l12 80l-16 25v13q48 0 48 55l-28 25l-4 21l4 38l-16 38l12 29v42l4 63q-16 9 -16 26q0 63 40 63l8 42l-12 21v12z" />
<glyph unicode="G" horiz-adv-x="1422" d="M780 1402l28 -4h32l20 4v-12l12 -76q-20 -20 -20 -52q-6 0 -16 -28q-24 -23 -24 -72l4 -4v-4l-8 -36l8 -24v-4l-4 -4l20 -48q0 -25 20 -44l-4 -32l12 -36l-8 -24v-4l12 -24q-39 -52 -60 -52q0 25 -32 44l-4 -4h-4l-32 64v4l4 36q-13 20 -24 60l4 4v4l-32 24l-8 12 q3 28 8 28q-33 64 -40 64q-68 14 -68 32l-28 28q-22 0 -36 -24q-29 -21 -52 -24q-29 32 -44 32q-9 0 -44 -36l-24 4l-68 -48h-4l-12 12h-8q-32 0 -40 -40q-13 -10 -24 -96q-12 0 -12 -20l4 -28l-28 -108l4 -16l-4 -4v-4l8 -20l-24 -64q-20 -8 -20 -44l16 -40q0 -18 -12 -36 v-32q0 -60 20 -76v-4q-12 0 -12 -44q24 -29 24 -64q13 -19 28 -100q8 0 20 -36q14 0 56 -40l52 -20h12q0 -40 32 -40l4 -4l44 8l52 -4h8l56 -20q0 11 52 24q10 28 40 28q0 10 56 40q15 40 52 40q0 20 40 52q0 17 20 60h-4l16 76v16l-68 52l4 4q0 11 -44 36q-10 -8 -36 -8 q-11 -28 -36 -28l-12 -16h-36q-8 0 -8 16q-13 0 -32 36l8 8l-4 4v4q50 78 76 80h8l24 -8q15 12 36 12h4q25 -19 64 -24l12 -12h28q8 0 28 36l20 4l16 -8q53 14 68 28h12q18 -24 36 -24v-4q28 0 72 36h16l16 -28l28 20l32 -28v-40l4 -4q-11 -68 -16 -68q-32 -15 -60 -60 l-32 24l4 4v12h-16v-8h-20l-24 8q-55 -19 -64 -48l4 -16v-4q-25 0 -56 -24h-4l4 -100v-12q20 -23 32 -64l-8 -20l4 -16v-4h-8q0 -12 -16 -32q0 -65 40 -96v-4q-33 -56 -72 -56v4l-36 -8q-20 14 -20 40q-16 0 -16 8q-8 -8 -44 -8l-16 -16h-40l-4 4l-4 -4h-8q0 -24 -40 -24 q-14 -28 -40 -28l-84 8q-19 -20 -44 -20l8 -32h-16l-24 24l4 4v4q-9 0 -24 20l-88 36q-8 19 -64 32h-4l-24 -24l-24 28l4 12q-28 96 -52 96q0 21 -36 48v8q-19 0 -28 32q24 29 24 44l-4 16h4q-8 9 -8 44l-8 32q-22 0 -32 60q-9 0 -16 32l4 16h-4l4 4v4l-16 24q4 48 20 92 l-12 44q10 15 16 92h-4l4 4l-8 80q13 0 16 88q12 31 48 72l-4 36l32 44l40 96q31 0 36 56q6 0 12 36h44l44 20q40 0 52 20l44 16q14 0 40 28h8q0 -8 20 -8l12 -12h40l20 4l28 -32l32 4l28 -16l60 40l24 -4q12 12 56 20q28 17 28 24z" />
<glyph unicode="H" horiz-adv-x="1213" d="M48 1400l24 -8h48q12 0 12 -16q27 0 40 -76l4 -4q-9 0 -12 -20l12 -36l-4 -36l8 -28q0 -36 -24 -36q-7 -44 -28 -44l-8 -16l4 -4h12l4 4h4l4 -4v-4l-4 -32l12 -12l-8 -12v-28l-4 -16l28 -92l-4 -28q14 0 40 -32q43 0 52 -24q24 0 24 -16h12l24 8l24 -4l4 4h4l16 -4l4 4h4 l16 -8l68 12l4 -4h4l28 16v-4l40 16h40l24 -4l20 4l12 -12q27 20 40 20h8l4 -4l12 4l32 -4q21 0 44 60l-8 8q8 40 24 68l-8 12l4 4v4q0 15 -16 36q0 20 8 20l-4 20v8l8 64q0 16 -32 44v4l4 4q-6 35 -16 48q16 58 24 60l8 44l-4 16l4 12h20l4 -4l4 4h4q9 -7 56 -12 q0 -12 20 -12l20 -44l-8 -44l4 -16l-4 -16q24 -40 24 -60q8 0 8 -20v-8q-6 -16 -28 -24l4 -20v-12l-8 -12q18 -19 24 -44l-4 -4v-4l4 -4v-4q-12 -48 -24 -60l4 -24q-12 -4 -12 -24q0 -19 28 -92v-4l-4 -4l4 -12l-20 -48l4 -4v-4l-8 -44l4 -28l-12 -16l4 -16l-16 -28l24 -24 v-12q0 -14 -16 -28q28 -42 28 -72l-8 -24q9 0 16 -40l4 -4l-4 -16l4 -36v-4l-4 -4l4 -4v-36l-4 -4l4 -4v-20q1 -40 8 -40l-8 -36l8 -32l-8 -12l4 -56q-12 0 -12 -64q-19 0 -24 -16l-4 4h-4l-12 -8h-20v8h-8q-71 0 -100 44v12q20 21 20 36l-12 32l8 32q-15 23 -16 68l24 64v4 l-4 16l12 44l-4 16q12 0 12 8l-16 56l12 32l-16 20h-4l4 28q-44 15 -44 24q42 33 44 48h-4q4 16 20 16l-16 20l4 4l-4 12h-24q-15 -12 -36 -12q-4 12 -24 12h-28l-16 -12q-8 0 -8 12h-4q-10 0 -12 -16h-16q-15 12 -36 12h-4q-22 -20 -48 -20q0 10 -16 12l-32 -4l-12 4 l-44 -16q-8 -16 -24 -16v4l-16 24l-20 -4h-4q-22 20 -48 20q0 -21 -56 -24q0 -7 -36 -16l-4 4l-24 -44l4 -36q0 -49 -24 -76q20 -52 32 -128l-4 -12l4 -12q0 -36 -20 -52v-28l12 -28l-8 -16l8 -12l-4 -4v-4l4 -24l-8 -44q16 -6 16 -28v-4q-16 -14 -16 -32l4 -4l-76 -36 q-34 0 -56 84q-28 22 -28 40l4 12h-4l16 36v36q0 17 32 64q-11 40 -24 60l20 44l-8 32v4l8 12v24q-24 0 -24 16l-4 12l4 36q8 0 8 -12l4 -4h4l8 16l-4 12l8 16q-4 17 -24 36v4q0 39 12 60l-8 104h4q8 0 8 16l-8 44l8 16q-24 31 -24 88l8 24v28l-20 88l24 16l-20 48l4 20 l-8 24v28q0 11 28 44v4l-24 44l4 20l-4 4v4q0 55 24 96l8 20h8z" />
<glyph unicode="I" horiz-adv-x="829" d="M350 1468q104 -10 104 -44l24 -56v-12l-12 -16v-24l-16 -4q3 -24 8 -24q-16 -68 -44 -124l-12 -16h4l-4 -4v-4l4 -12l-8 -8l12 -32l-12 -64l12 -20l-12 -32v-20l8 -12l-8 -64v-4l24 -24h-4l4 -4v-16q0 -24 -20 -36l12 -48q-8 -9 -8 -48q-8 0 -8 -28h-4l4 -4v-4l-4 -4v-4 q32 -40 32 -72v-12q-24 -48 -36 -56l16 -36l-24 -40l16 -24l-4 -16l8 -16q-16 -20 -24 -64q12 -14 20 -72q16 -16 16 -44l-40 -148l8 -8l8 8h4v-4q0 -11 -24 -16q0 -38 -24 -44v-8l-12 4l-40 -4v4l-4 -4h-4l-4 4l-20 -4h-4q-18 0 -36 24q-36 0 -44 48h-8v4q0 25 36 104v28 l-8 36l8 16q-4 17 -20 32l4 4v4l-4 36l12 12v16q0 31 16 56q20 47 20 64l-16 16l4 20l-4 4v4q8 16 8 44v28q0 8 -12 8l-12 20l4 4v36l4 16l-4 16v16l8 12v24q0 28 -24 48l-8 48q17 0 20 48q11 0 16 36q5 0 16 68q-12 15 -12 28l4 4v4l-4 4l16 52l-8 28l8 44l-4 24l4 16 l-12 28l4 28q-11 0 -20 20l12 44l-4 56v20q0 34 88 64q40 0 40 24h4zM182 744h8v-12h-8v12z" />
<glyph unicode="J" horiz-adv-x="1100" d="M692 1410q53 0 72 -36q12 -10 12 -24h4l-4 -20l20 -68l8 -28l8 -8v-16l-20 -16l8 -28l-4 -24l8 -36v-4q-16 -13 -16 -32l-12 -48q12 0 12 -16q0 -88 12 -120l-4 -44q16 -26 16 -60q-16 0 -36 -80l20 -108l-28 -48v-44l-12 -16v-12q0 -8 32 -12l4 -4v-4l-28 -44l-4 -12 q8 -16 8 -44v-16l-12 -40l16 -12l-8 -20l4 -16q0 -13 -32 -64q0 -33 -20 -48q-20 -25 -20 -44q-34 0 -52 -60q-20 0 -36 -24q-25 0 -56 -20q0 12 -48 16l-8 -12l-4 4h-4q-11 0 -20 -40l-4 -4h-4q-7 36 -28 36l-12 -12h-4l-4 4q-24 -19 -64 -24l-48 24h-24l-32 -32h-4v28 q-29 44 -40 44l-12 -12v8h-16l-40 -4l-4 4q3 11 20 20q0 53 -72 84q0 27 -32 40l-4 20h-4q-8 0 -8 -16h-4l-8 8l8 28l-20 68l4 4v4l-4 16l4 12l-8 24q0 12 12 12q16 21 16 36l-4 4v4q18 13 40 80q8 6 16 56q22 0 44 28q17 0 36 32q9 0 24 16q14 0 28 20l24 4v-4l4 4h4 q56 -44 56 -64l-20 -28v-8l8 -12v-32l-8 -16h-4l-4 4h-4l-20 -20q0 -18 -32 -24v-12l4 -4q0 -13 -44 -28q0 -14 -20 -24l4 -40l-4 -48l4 -24l-4 -12q26 -56 52 -56q0 -29 76 -36l32 -8q0 8 24 12l4 -4l20 4l16 -4q36 4 36 12l-8 8v12q16 0 36 -24l24 -8l72 48l20 -8 q0 8 20 8q0 20 -8 20l4 12h32l48 52l8 28l-4 24h4l-4 4l20 68l-12 20v20l8 32v28l-4 28q16 0 16 12v16q-11 15 -20 56q-16 0 -16 24q8 2 16 20l-4 32l4 28l-4 4v4l4 16q0 25 -20 72l4 32l-4 12l12 72l-12 8l4 4l-4 24l16 64l-16 60l8 8v40q12 0 12 12q0 55 -20 68v40l-28 56 q0 22 36 60q13 44 36 44z" />
<glyph unicode="K" horiz-adv-x="1263" d="M88 1402h4q0 -17 42 -59v-29q0 -13 13 -29l-5 -76q30 -13 30 -25q-38 -14 -38 -21l-8 -33l8 -25l-4 -50l12 -25l-12 -130l12 -42l-4 -21l4 -21h-4l4 -12q-11 -63 -16 -63q11 -88 75 -88q28 13 33 29l-4 17l38 54l4 -4h4q24 0 46 67q62 39 67 54q22 48 63 80q31 96 71 96 v13q0 11 25 46q0 21 13 21l46 -9q0 21 29 21l26 67q12 0 29 30q27 0 50 83q63 16 63 38l12 8h13q63 0 63 -50l4 -4q13 0 13 -17l16 -8v-25l-25 -55q-33 0 -46 -50q-13 0 -33 -29q-14 0 -55 -63q-37 0 -37 -29l-17 -4l-4 4h-5q-60 -101 -100 -101q-6 -25 -55 -58l-4 -13 l4 -29q0 -9 -37 -29l-9 -21v-21q-12 0 -12 -9v-8h25v-25q0 -23 50 -55l-4 -54q9 0 13 -29q7 -17 75 -59l54 -63q37 -44 76 -50v-4l-4 -29q21 0 54 -88q14 -17 63 -50q0 -23 46 -59l-8 -38l33 -62h-4q-27 -63 -34 -63h-16q-48 0 -59 46q-39 37 -71 37v17q0 20 -46 50 q0 11 -21 30q-9 62 -34 62l-12 5v-5l-17 13l4 17q-13 63 -63 63q-25 18 -25 62q-22 0 -42 46q-20 10 -46 55q-9 0 -58 46q0 31 -46 42q-13 0 -21 -38h-25l-67 -42l-9 -17l4 -12q0 -21 -33 -63q0 -7 -38 -38l-17 -41v-21l9 -34l-9 -25l21 -29v-4l-8 -21l-4 4h-4l-9 -9v-8 q21 0 30 -25q-5 -42 -21 -42l8 -50l-8 -25v-30q-33 -18 -92 -29l-5 -4h-16l-26 25h5l-30 67v21l17 25q0 47 -21 67v8q13 55 38 88l-17 46v9l8 33l-16 25l4 30v25l-8 83l12 21l-4 42v25q1 21 8 21l-4 50v21l13 34l-25 46l4 21v88l-13 16l4 21l-8 25l17 93l-4 37l8 42l-17 46 l4 46v9l-8 33v42q13 9 13 42l62 16z" />
<glyph unicode="L" horiz-adv-x="1285" d="M88 1414q29 0 60 -44q39 0 76 -52l4 -36q-28 -75 -28 -108l-20 -24v-12l4 4h4q9 0 16 -44l-4 -4v-4l4 -44l-20 -36l12 -24v-24l-4 -28q40 -46 40 -64v-4q0 -28 -44 -28l8 -48l-16 -36q8 -11 12 -60q17 -25 24 -68l-4 -12l4 -4v-4l-12 -16l4 -20v-4q0 -35 -20 -80l4 -12 q-4 -24 -12 -24l8 -52q-8 0 -8 -20l-8 -8q16 -29 16 -44l-8 -32v-8l8 -32v-12h8v-4l-4 -12h4l-4 -4v-4l28 -36h4l4 4h4l12 -8l20 4h16l36 -4q16 8 44 8q0 -8 12 -8l12 4l8 -8h4l20 16h12q24 0 24 -24h40l24 24l44 -20q48 0 48 8l32 -8h16l100 32h16l12 -8q53 10 108 44l4 4 h24l8 -8l4 4h24l32 -36v-4q0 -39 -40 -132q0 -39 -24 -52l-32 4l-56 -16l-24 8q-8 0 -8 -20l-16 -20q-44 19 -64 40l-4 -4v8h-8l-60 -28q-42 0 -52 -8l-16 16l-12 -4q-22 8 -32 20h-8l-4 4l-4 -4q-28 -20 -72 -20v4l-24 -8l-32 12h-32l-4 -4l-4 4h-4l-80 -12l-28 12l-36 -4 l-56 4l-44 -4l-56 16h-8l-32 60v8l8 16l-8 64l20 4l-4 4v4l4 20q-8 0 -24 20v16l20 72v8q-16 0 -16 20l4 4h-4q3 21 24 36v8l-8 12v28q-20 0 -20 56l24 40l-20 116q16 79 40 92l-24 40l4 4v4q-12 11 -16 64l-4 4v4q0 15 40 104l4 56l-20 44h-4l4 20l-4 12h-4q0 -12 -8 -12 q-4 32 -20 32l20 100l-12 84q17 67 24 68l28 64z" />
<glyph unicode="M" horiz-adv-x="1306" d="M912 1386h20q22 -33 60 -56q4 -19 20 -36v-12q-10 0 -16 -20h4l-4 -4v-16l12 -56v-8q-16 -13 -16 -24l4 -12l-24 -20l4 -4v-4h-4l28 -36v-4l-20 -28v-20l-24 -8q0 10 -56 48q-6 0 -12 36l4 12q-12 28 -28 28v4l4 4v4h-8q0 -10 -12 -20l-4 -20l4 -24l-24 -100 q-8 -55 -28 -92q0 -36 -16 -36v-4l8 -12l-32 -104q-5 0 -8 -32h-4l8 -60q-20 -36 -20 -52l4 4h8l8 -20v-12h-24l-4 -20l4 -4v-8q-17 -13 -32 -52l-20 -20v-40l-12 -16v-20q-20 0 -20 -28l-12 -24l4 -16q-16 0 -24 -64l4 -4v-4l-28 -108l-4 -12l4 -40h-4q-48 -33 -48 -80 l4 -4l-4 -4h-4q-68 17 -68 68l-20 64l4 4v8q0 8 -12 8v4l4 20q-12 0 -12 12q-36 5 -36 12l16 56q-15 29 -20 100q-8 24 -28 44q0 31 -28 80v4l8 24q-28 9 -28 48q-6 60 -12 60l8 36q-12 16 -12 36q-12 0 -12 8v20l4 4q-36 53 -40 92q-9 0 -16 16l4 24l-12 20l8 16l-12 28 q3 64 8 64l40 12l28 -32v-4q0 -13 -24 -40q20 -64 56 -64q16 -17 16 -32l-8 -12l8 -56v-4q12 0 12 -28h8l4 4q20 -6 20 -40q-10 0 -16 -36l4 -4h4l16 4q6 -34 24 -48l4 -12l-4 -4v-4l8 -32v-12q0 -28 -8 -28q26 -76 68 -136q12 -22 12 -44l4 -4h8q13 4 24 44q8 0 8 16 q27 0 32 56l8 8l-4 4v4l8 32l-8 20q19 53 40 64l4 16l-4 -4h-4l-8 8q0 19 32 44l4 12l-4 16l8 16l-4 4v4l56 136l16 8l-4 32q5 28 12 28l-4 4v4l4 4l-4 4v4q0 24 32 60q0 39 24 60v4l-8 16l4 4h36v4l-8 8l-4 -4h-4l-4 28l8 16q-8 2 -16 20l40 104q-5 20 -16 20l-4 40 q0 41 60 60q19 24 44 24zM148 1346l44 -32l24 -64q12 0 28 -44l-4 -20q20 -9 20 -20q0 -32 -32 -36v-4q17 -13 20 -32q0 -12 -24 -12v-12q0 -7 20 -12q0 -11 12 -24v-32h-20q-8 0 -8 20h-4l8 20l-4 4h-16q0 -12 -12 -12q-16 0 -40 32l-16 8q-20 -20 -20 -76l-44 -36h-28 l-20 44l-4 4v4l16 32q-32 27 -32 56q6 40 12 40l-24 44l4 4l-4 20q2 40 8 40l-4 4v48q0 20 108 40h4l16 -4zM924 1018q32 -4 32 -12l4 4h8l12 -28l-8 -16l4 -32l-4 -96v-4l-4 -4v-4l4 -4h4l-4 -4v-4l16 -60l-12 -36l8 -28q-8 -40 -24 -40l8 -32v-8l-4 -28q16 -6 16 -28v-16 l-20 -24v-4q32 -36 32 -48l-4 -32q16 -6 16 -28v-4l-16 -96q5 -36 12 -36l-8 -56q16 -29 16 -44l-8 -24l4 -16q0 -54 -24 -72q0 -31 -64 -48h-8q-10 0 -44 52h-8l-4 12q2 16 12 16l-4 16l16 48v8q0 13 -12 28v28q20 25 36 64l-4 12l12 96q-18 8 -20 16l8 16q0 41 -20 64v12 l12 20l-4 28l20 56l-4 16l4 4q-14 0 -28 32l4 4v4l-8 24q11 0 20 52v4l-4 4l8 20l-12 12v16l8 24l-4 12q28 27 28 36l-8 24l4 16l-4 16l12 16v16l-16 24q0 36 20 44zM52 934q23 -14 68 -24l24 -112l-4 -40l4 -20l-4 -16l4 -20l-12 -24l8 -24l-16 -68v-24q19 -21 32 -64 q-8 -25 -20 -28l-4 4h-4l-8 -12v-12l4 4h8l12 -24v-16l-4 -16l8 -24l-16 -36l-4 -20q28 -9 28 -44l8 -36v-4l-4 -24l8 -24l-4 -12l12 -32l-24 -32v-36l16 -52q-13 0 -20 -40l-4 -4l-20 4q-24 -4 -24 -12q-64 10 -64 60l-20 44l8 16l-12 64l20 32l-4 4v4q3 32 8 32l-8 16 q11 0 16 36q-8 0 -8 24l-20 4v12l16 8l12 -4v4q-3 24 -8 24l-4 -4h-4l-12 4v48l4 16l-4 16l8 28l-4 20l12 32l-8 44q9 0 12 44q-9 0 -12 44l4 28q-12 0 -12 44l28 96v8l-24 88q23 28 32 28zM44 518v-12l8 8l-4 4h-4z" />
<glyph unicode="N" horiz-adv-x="1197" d="M152 1422q37 -68 76 -76q0 -19 44 -24l32 -48q0 -16 12 -28v-36l-8 -44v-12q19 0 32 -68q20 -25 20 -48l36 -44l44 -104q0 -32 -8 -32q2 -28 32 -56q0 -24 24 -24l32 -24l-4 -4v-16h4v8h4l36 -92q0 -55 36 -100q22 -5 44 -56l44 -64q24 0 24 -72l-4 -4v-4q17 -49 36 -64 v-8l-4 -16q0 -32 28 -32q14 5 24 24q0 24 -32 24l4 28l-16 24q7 23 28 40v12l-12 40v24q-11 0 -20 32l24 76v12l-12 32l4 56l-4 16l4 12q-24 4 -24 20q0 8 32 36v8h4l-20 28v4l16 56l-16 56l12 24l-24 76l16 16v16q-32 48 -32 76l8 24l-12 24h-8q0 -12 -8 -12l-4 4v8l8 32 l-8 8v12q20 13 20 32l12 8l-16 56q29 42 32 64l36 12l60 -16q27 0 36 -52l8 -36h-4q20 -30 20 -44l-4 -4v-4l20 -44l-4 -4v-4l8 -24v-8l-20 -24v-28l-28 -76q10 -73 28 -96l-12 -68l4 -16l-8 -28q7 -28 12 -28l-4 -4v-4l4 -36l-12 -24l8 -20l-4 -24q0 -28 16 -28v-8l-4 4h-8 q0 -9 -32 -48v-4h8v-48l-12 -36l4 -16l-16 -68l12 -8l-4 -4v-4l16 -52l-12 -68q0 -19 32 -52v-8l-8 -12v-28l4 -4q-16 -46 -20 -88q-14 -7 -32 -68l-20 -16l-4 4v4l-4 -4h-4q-41 37 -92 48q-12 0 -28 24v12l4 4q-7 72 -32 72l-12 -4v4l-8 28l8 12v8l-16 60l4 4q-8 0 -12 28 h-20q-19 0 -32 68q-28 0 -36 48q-13 0 -16 64v12l4 16q0 9 -48 64l-16 44v24h-28q-7 0 -12 28q-12 0 -24 16v40q-8 0 -28 24q-48 20 -48 48l-4 4l-8 20l-4 -4h-4q-32 14 -32 28l8 12q0 21 -32 28l-28 32l24 60q-4 21 -24 40q-14 0 -20 -40l4 -16l-4 -44v-12l-8 -12l12 -116 l12 -20l-8 -32v-8l4 -24l-4 -20v-4l4 -4l-4 -4v-12l8 -28h-4l-4 -4l16 -76q-18 0 -28 -40l8 -36h-4q5 -23 48 -52l8 -8l4 -12q0 -16 -40 -40q0 -28 28 -56v-28q-16 -58 -20 -128l-4 -12l8 -36q0 -44 -32 -44q0 -10 -24 -24l-4 4l-44 -8q0 8 -12 8q-48 42 -48 52l-4 20v4 l8 48l-4 28l12 32h-4l8 24l-28 80v12l8 8l-8 92l4 4h4q0 26 -20 64l4 16l-4 16l4 36h-4q8 39 24 68l-4 4v4l20 76l-12 16l4 32l-24 160v24l12 20l-4 28v12l12 40v16q-20 0 -20 8v16l16 52l-4 4l-24 28q16 5 16 36v20q0 26 -44 56v12q21 0 40 52q15 0 40 32l48 44z" />
<glyph unicode="O" horiz-adv-x="1373" d="M600 1408h4q68 -21 68 -48l48 -12q16 -24 20 -52h8l16 8q86 0 100 -48q36 -12 36 -40q0 -36 16 -36l24 -44l24 -8v-8q7 -55 40 -84v-8l-8 -32q15 -68 36 -68q28 0 28 -28v-12q0 -8 -16 -8l-4 -4v-88q24 -32 24 -60l-8 -16l12 -32l-44 -160l4 -16q0 -108 -44 -108l-8 -24 v-40l4 -24q0 -16 -24 -16q-7 -6 -12 -52q-20 0 -20 -24l4 -20l-28 -44h-4l-12 8q-13 0 -28 -40q-64 -21 -64 -56q-11 -16 -76 -24q0 -20 -32 -20l-12 -40h-4q-17 24 -44 24l-24 -20q-15 23 -24 24l-84 -20l-4 4h-4l-60 -8q-31 24 -68 24l-8 8l-4 -4h-4q-17 4 -28 20 q-19 0 -68 40q-36 0 -44 64l4 12q-76 91 -76 104l4 16q-13 43 -28 44q-16 35 -24 84q-56 39 -56 64l-8 44l4 36l-20 56l16 80l28 72v8h-4l4 48v64l4 36l-4 12q16 27 28 160q56 24 56 84l84 84q7 33 32 52q35 58 116 84l48 20q21 0 72 -20h20q15 12 28 12q0 -9 20 -12 q35 28 52 28zM596 1256l-20 4l-16 -8l-52 4l-72 -28l-24 8h-16q-28 -12 -28 -48l-28 4h-4q-30 -28 -40 -28q-45 0 -60 -92h-8v-8l4 -28q-32 0 -52 -64q-12 -16 -20 -52q-24 -17 -24 -36h4l-4 -4l4 -44l-4 -76l12 -36q-8 -15 -16 -84l4 -4v-4l-12 -56v-8l20 -36l-4 -4v-24 q7 0 24 -36l4 -4v-4l-4 -24q19 -43 84 -104q32 -60 68 -60l72 -64q80 -10 80 -36l28 -24q0 21 72 48l32 -4l8 8q0 -16 16 -20q30 0 60 32q40 2 72 40q16 0 16 28q26 23 40 64q26 0 44 44h8v12l-16 48l76 72l-8 12q8 18 8 52v8l-4 4l4 12l-4 24l4 36l-16 40v8q20 29 20 52 l-12 12q0 36 12 80v4l-20 28l4 4v4l-8 60l4 16q-26 100 -60 100l-4 4v4l8 24l-52 40h-20q0 42 -56 76q-20 0 -20 24v12h-4l-56 -4l-24 12z" />
<glyph unicode="P" horiz-adv-x="1204" d="M92 1408q9 0 48 -36h8l56 16l4 4q4 -12 24 -12h16q14 0 32 16h28l36 4q26 -12 64 -12l4 4v4l68 -4h12l4 4l4 -4h4l4 4l20 -4h4l16 12h44q16 -8 16 -24h12l12 8q21 0 44 -32l20 -8l12 4q60 -13 60 -32h4l-4 -4v-16q40 0 96 -108q0 -21 24 -40v-24l-4 -24q28 -36 28 -56 l4 -32l-24 -56v-8q0 -16 24 -36v-24q-40 -26 -40 -80q-28 0 -28 -52q-17 -36 -48 -36q0 -15 -56 -56l-4 4h-4l-48 -40q-15 12 -28 12l-20 -20l8 -32v-4h-4q-47 0 -76 28l-28 4l-12 -4l-12 4l-16 -4l-36 8l-24 -8l-44 20l-4 -4h-12l-4 4l-132 -28l-24 8l-44 -12l4 -16l-4 -4 v-4q0 -35 24 -56v-8l-4 -4v-4q20 -10 20 -32q-10 0 -12 -16l12 -60v-8l-12 -32q0 -35 24 -52l4 -24l-28 -154l-4 -4v-52l8 -8q0 -24 -52 -32l-52 -44q-30 47 -44 56q-4 37 -24 84v78q0 40 -36 52v4q56 85 56 108l-32 136l20 84q16 5 16 36h-4l4 4v4q-28 87 -28 144v12 q8 2 16 20l-12 124l12 12q-5 23 -20 40q0 71 32 96l4 28l-12 32v8l4 40q-8 0 -8 16l-16 8q8 24 20 24v16l4 20l-4 24v20q0 19 20 48q10 40 20 40zM428 1248l-28 8l-20 -4l-16 4l-8 -8h-4l-44 12l-76 -28q-4 -12 -24 -12h-12l-8 -32l8 -24h-4l4 -4v-4q-24 -67 -24 -104 q8 -68 28 -68l8 -12q-20 -32 -20 -48v-16l4 -28h-4l12 -48l-12 -32v-16l32 -12l20 4q11 0 32 -20l12 -4l20 4l32 -4q4 12 24 12l16 -12l4 4h4l28 -16l36 8v-4l20 12l24 16h16q22 -16 40 -16q24 16 44 16q9 0 20 -32h8q9 0 12 20l-4 4q49 17 52 24l8 24v4q0 8 -24 16v4l8 12 l24 -4q33 0 64 24l-4 4v28l-16 4v28l4 4l-4 4v4l16 12l32 -4q33 29 36 40l-4 4l4 4v12q-28 23 -28 40q0 15 -32 20l-8 24v12l4 4q-13 52 -40 52q0 20 -20 20q-30 9 -60 40q-17 16 -32 16l-12 -12h-8q0 21 -64 32l-20 12h-8z" />
<glyph unicode="Q" horiz-adv-x="1267" d="M408 1382h24q54 0 76 -20l4 4h8q0 -16 8 -16h8l8 16l28 -16l16 8q14 0 44 -20h8l12 8l72 -40q0 -11 32 -32q0 -26 60 -68q0 -8 24 -28q4 -28 12 -28l8 8q8 0 8 -12q32 0 32 -24l16 -36l4 -20q-10 0 -12 -16q0 -37 20 -60v-20q16 0 16 -24v-8l-4 -4l8 -24q-12 0 -12 -8 l4 -36q-20 -8 -20 -24l12 -12v-24q1 -40 8 -40l-4 -28v-24l20 -56l-4 -28l16 -56q-4 -20 -16 -20v-24l-8 -12l4 -4l-4 -12l4 -60l-16 8q-16 -4 -16 -16l4 -24q-26 -33 -40 -88q-17 -5 -40 -60q-14 0 -32 -44q0 -17 -40 -36q0 -12 -20 -28l-4 -12q0 -26 28 -72v-32 q0 -14 44 -20q9 -9 20 -56l12 -4l4 4h4q15 0 20 -60l-4 -36h12l36 20l32 -20l36 8h4l4 -4h4q0 8 16 8v20q16 14 20 48l4 4v4l-4 4q0 20 64 28q22 0 32 -24v-24q-32 -35 -32 -48l-16 -16l-4 4l-4 -4v-4l4 -4h4l4 4l8 -16l-12 -16l-12 4q-21 -59 -44 -88l-104 20q-5 17 -20 24 l-36 -4q0 12 -24 12q0 8 -32 8q-25 42 -60 68v8l4 16l-32 36q0 28 -20 28l4 20v4l-8 12l4 20l-16 24h-20l-20 -4l-76 16q-4 -28 -28 -28l-68 -40q0 -16 -8 -16t-8 24l-32 12l-16 -4q-9 0 -36 24l-48 24l-24 -8l-4 12h-4l-4 -4h-4l-4 4l-8 -8q0 22 -28 36q-58 60 -72 116 l20 20h12l-8 -36l28 8q20 -6 56 -36q29 0 76 -44l28 -12v4l24 -8l8 8h8l20 -4l24 4q20 -1 20 -8l4 4h16l20 -12l4 12h8l16 -4l4 4h4l16 -4q7 0 36 36l4 4h4q20 0 20 -8q80 6 80 40l4 32l-4 36q8 0 8 20q28 0 28 108q6 0 24 48l4 -4h4q9 0 16 28q32 18 32 72v56l12 56v16 q-6 36 -24 36v4q0 13 12 28v12q-12 15 -12 32l8 48q-16 5 -16 36v8l4 36q-12 18 -12 52l-4 16q-16 0 -24 44l-8 20q-16 0 -40 64l4 12q-17 20 -28 20q-9 64 -24 64q0 23 -52 44q0 10 -64 52q-26 0 -36 -28q-6 -16 -12 -16h-32l-36 24h-16q0 -11 -104 -16l-24 8v-4l-20 8 l-20 -8v-24q-16 0 -16 -16l-12 8h-8l4 -28v-8q-16 -16 -28 -44q-14 0 -24 -40q-8 0 -8 -20q-25 0 -52 -40q0 -16 -12 -32l8 -28h-4l4 -4v-16q0 -18 -20 -36l4 -4v-24q-20 -33 -40 -44q0 -42 32 -76l-16 -8l4 -40v-4l-24 -44l8 -24l-16 -4l4 -20l-4 -24l44 -44v-4h-8v-8 q32 -3 32 -32q0 -16 -8 -16l12 -24v-4l-20 -36l16 -32q20 0 20 -16l-4 -16l4 -24l-16 -24v-4l8 -8h4l16 12h8q16 -27 16 -44v-12h-12q0 24 -12 24q0 -10 -20 -28h-4q-7 0 -12 36q-24 5 -40 40l-28 36l4 4v28l-24 28l-40 84q1 29 24 68l-4 20v16q-24 0 -24 16l-8 20 q10 26 20 28l-12 72v12q8 100 40 100q16 0 16 8v4l-20 32l4 28l-8 52q21 24 32 24q0 16 8 16l-4 4v28l8 32v48q31 67 44 72h4q0 -12 8 -12q15 56 36 56q75 68 104 68q9 15 64 44q20 0 20 -8l20 4h12l8 -8v-4q20 6 20 32zM868 1134v-8h4v8h-4zM424 414l8 -8h8l36 4l4 -4h4 l40 8l80 -36q0 -16 16 -16l36 -48v-4q0 -64 -16 -64q-37 0 -72 32q-28 36 -48 36v4l4 4v4l-12 8h-4l-12 -16l-92 32q0 10 -12 20q-16 12 -16 24q0 15 48 20zM336 390l44 -32v-24q-16 0 -16 -20h-24l-16 -12h-8l-16 44q15 0 36 44z" />
<glyph unicode="R" horiz-adv-x="1301" d="M316 1372l20 -4h28q0 -7 40 -32h4l12 8q24 -16 36 -16h20l16 4l16 -8l28 4h24v8q12 0 12 20h8q24 0 36 -36l48 -20l12 4l8 -12l20 4l48 -32l40 -16l44 16q32 -11 32 -28l-8 -36q12 -42 28 -68l-4 -24q18 -22 32 -68l-4 -4v-12l16 -24l-20 -52v-4l8 -28q0 -20 -32 -88 q0 -22 -48 -64q0 -27 -44 -68q-28 0 -28 -8q0 -12 44 -72v-8q-19 -20 -24 -48l20 -56h4v-12l-12 -24q16 -26 16 -52q-16 -41 -16 -64q8 0 8 -40q20 -16 20 -44l44 -12v-8l-8 -36l8 -20q15 12 28 12l52 -56h32q29 0 64 -52v-16l-12 -16v-36l-24 -20l-52 4l-36 -52 q-43 52 -56 52l-60 16h-4l-20 -4q0 8 -12 8l-4 4v4l4 4v4q0 13 -20 32q0 53 -20 72l4 20v4q0 8 -16 8v12l-8 32l12 40l-16 44q8 16 8 44v20q-12 51 -12 108l4 4q-27 20 -36 52l4 16q-33 39 -52 48l-16 20q-20 -1 -20 -8l-36 8l-20 -4h-28l-44 -4q-8 8 -76 12l-28 -32 q-7 0 -20 24h-12l-16 -12h-12q-36 21 -36 40h-4q-62 -23 -68 -36l-16 -28l4 -4v-32q0 -14 16 -40l-4 -4v-4l8 -32v-12l-20 -64l28 -32l-20 -68q5 -39 28 -60q0 -14 -16 -32v-20l8 -72q-14 -20 -24 -20q1 -20 8 -20q-6 -64 -40 -64l-12 -4l-4 4h-4l-4 -4q-12 0 -52 52 q0 62 -68 112q24 0 28 48l-4 4v4l4 16l-8 36l12 24l-4 16q20 17 20 36l-8 68l4 4h4l-8 16l28 84q0 21 24 40q-8 55 -16 64l4 4l-8 28q7 24 12 24l-16 24v44l-4 36l4 20l-4 24q16 22 16 56q-12 15 -12 28v12q0 20 16 48l-16 68l16 32v16l-28 68q8 16 8 44v28h-8v8l4 16l-8 32 q40 11 40 16l32 24q5 18 36 32q8 -16 20 -16q46 0 60 16l52 -8h4zM660 1204l-8 20q-15 0 -36 -20h-4l-12 8h-12q-34 -26 -60 -32l-68 8l-24 -8q-26 20 -52 20q-15 0 -40 -20l-32 8h-4l-12 -8l-40 16l-44 -32q0 -66 -40 -172q0 -46 -12 -52l36 -76h4v-12q0 -21 12 -36 q0 -8 -12 -8v-28l32 -24q17 0 28 20l40 8l108 -28h4q64 0 64 44q0 8 20 8v4q11 0 32 -44l-4 -12l28 -8l24 12l44 -12h20q16 15 64 24l64 56q0 12 16 20l16 -4q11 48 40 48q16 35 20 84q-26 22 -36 52l4 16q0 21 -40 56q0 23 -36 48q-12 0 -24 20v4l20 52l-8 8 q-24 -12 -60 -16q0 -9 -20 -12z" />
<glyph unicode="S" horiz-adv-x="1197" d="M364 1454h24q22 0 32 -20h-4q8 -20 32 -20q21 16 36 16h8l60 -40h8l8 8q42 0 56 -32q36 -5 36 -20l20 4q76 -13 76 -28q6 -21 36 -40q52 -60 52 -80l8 -72q-15 0 -20 -92l8 -24q-26 0 -32 -24q-20 -6 -28 -44l-4 4h-4l-12 -4q-48 23 -48 64v24l-12 20l12 28 q-14 55 -52 76q-12 44 -44 44q-32 21 -32 44l-40 12l-32 -12h-16q0 -10 -16 -12l-24 8h-24q-40 -16 -40 -28q-12 0 -68 32h-28v-8l-76 8q-44 -70 -44 -84q-28 -28 -36 -28v-40l16 -16q0 -23 -16 -48q20 0 20 -36v-8l-4 -40l52 -56q78 -13 92 -32l24 -20h12l12 8 q6 -30 76 -36q0 -6 56 -16q29 -19 104 -36q0 -9 20 -12l32 8q16 -16 28 -52h8v-4l28 8q14 0 76 -40q24 0 24 -28q48 -32 48 -48l28 -36l-4 -28v-4l24 -52v-4l-12 -48l4 -28q0 -81 -28 -108v-8l4 -4v-4l-4 -4v-4l4 -32h-4l4 -4v-12q-10 0 -20 -16q-47 0 -64 -88l-64 -28 q0 -20 -52 -20q-6 -20 -52 -20l-4 4q-43 -28 -68 -32l-4 4h-4q-40 -6 -40 -32h-8l-4 4q-30 -20 -52 -20h-8l-24 4l-16 -4q-20 48 -28 48h-32l-4 -4l-4 4h-4l-32 -4q-30 0 -40 20l-4 -4h-12q-27 35 -52 44q-1 25 -60 52q-31 36 -64 36q0 51 -40 68v4l8 36v8l-8 32v32l4 16 l-4 4v4q26 92 40 92q11 3 24 20l4 -4h12l16 12h8q19 -87 28 -92v-20q-12 -10 -16 -48q0 -72 40 -72q23 -24 44 -24l16 12l24 -20h4l20 4l48 -48h36l52 -24h32l20 16l20 -4h8l4 4h4v-4q12 0 12 12h28l28 -4l20 28l4 -4l28 4h32l8 8l-4 4q18 44 52 44q32 22 32 84q8 2 16 20 q-4 56 -20 100l12 4v16q-13 0 -28 36l-12 -4q-18 37 -36 40l-16 -4q-14 3 -44 40l-32 28l-48 16h-16l-4 -4h-4q-37 36 -56 36l-12 -4l-60 16l-24 -8q0 8 -12 8l-4 16h-8q-16 -6 -16 -24h-12q0 36 -28 36l-16 -4q-40 0 -40 32l-60 4h-16l-8 28v40q0 9 -28 12l-24 40l-4 -4h-4 l-64 100l4 48h-4l4 4v24l-8 48l8 12l-4 4v8q0 17 44 72q4 52 12 64l-4 32l4 12l28 -4q32 13 56 72v4h12l4 -4q61 30 80 56l4 -4h4l28 8l8 -8q58 0 64 44z" />
<glyph unicode="T" horiz-adv-x="1304" d="M684 1420h4l44 -32h24l24 24h4q23 -32 76 -32h8q14 0 56 36h8q72 -18 72 -24l4 -12l-4 -20l4 -16q-13 -100 -48 -100v-8h-20l-4 4h-4l-8 -8h-48l-40 -32h-12q-26 20 -40 20h-40l-32 -8h-16l-4 4l-24 -12q0 8 -52 24q-38 0 -48 -60q20 -16 20 -28q-10 0 -24 -64 q-7 0 -8 -28v-8q8 -8 12 -52l8 -8l-8 -24l8 -8l-4 -48q0 -9 32 -40v-4l-24 -8v-12l16 -44q-12 -23 -12 -52h4q-9 -28 -28 -44l12 -32h-4l4 -4v-24l-4 -40q8 0 16 -32q0 -20 -24 -52q40 -20 40 -120l-8 -24v-4l16 -84l-8 -48v-24q-28 -29 -28 -72l8 -36v-52q0 -17 -96 -48 q-49 7 -60 24q-40 22 -40 52q4 84 20 84l-8 32v8l4 16q-7 29 -32 44l-12 16v8h4l40 -12v4l4 4v4l-4 16l4 48l-4 48q11 0 40 76q-24 18 -24 36l20 56q-16 27 -16 56q14 72 28 72l4 4v4q0 12 -12 12l-12 48l8 32l-12 48v12q14 0 36 36v4q-28 0 -44 56v8q16 18 16 28l-16 108 l20 36l-8 16l4 24q-3 12 -16 16l4 4v8l-64 -8q0 9 -20 12l8 12h-20l-48 -28l-76 16l-12 12h-4l-4 -4l-56 20l-20 -12q-39 2 -92 52l-12 56v4q11 84 52 84q9 0 32 -24h4q30 0 104 20l24 -8h40l12 8h56l12 -8h12l20 16l12 -4l28 4q52 -2 52 -8l4 4h32l4 -4l4 4h28l68 -20l12 4 l4 -4l12 12l24 -4z" />
<glyph unicode="U" horiz-adv-x="1238" d="M828 1410l28 -12l12 4q24 -44 48 -64q1 -16 24 -16v-8q-8 -8 -8 -36l-4 -16l-12 -20l12 -36l-4 -4v-36h-8v-24q0 -21 -28 -40l8 -12v-12q0 -41 24 -84v-4q-19 -52 -20 -84l4 -28l-4 -12h8v-8l-8 -12v-8l8 -16l-8 -24v-40l12 -80l-4 -4q15 -1 24 -16l-36 -48q0 -17 20 -40 l-8 -52l4 -24q-10 0 -24 -44l4 -4l-4 -20l4 -36l-16 -52q8 -12 16 -76h-4l-16 4q0 -7 -36 -28l-4 -4v-4q2 -23 12 -36q-17 -15 -24 -40q-61 0 -96 -44h-8v-16h12v-8q-28 -40 -52 -40l-16 4l-4 -4h-4l-12 4v-12h-20q-31 0 -40 -20l-20 8q-13 -2 -28 -36h-4q-8 0 -8 12h-8 l-4 -4l-72 16l-8 -8l-52 12l-12 -24h-4q-7 0 -16 36q-16 12 -16 20l-40 -4h-12l-4 4h-4v-12h-8l-4 24l8 20l-4 20v8l4 20l-16 24h-4l-12 -8h-4l-40 4q0 -12 -8 -12v8h-16q-29 0 -44 36q-25 0 -60 52l-4 16l4 12l-8 24l8 16l-24 56q-7 0 -8 20v12l24 48l-8 52v8l4 4l-4 4 l4 12q0 39 -20 68l-12 52l20 40l-4 12l12 56l-4 12l4 36l-4 20l8 24v12q-32 34 -32 72q-16 0 -16 12v4q23 0 28 60q6 0 20 36v12q-12 8 -24 64l4 16l-4 20h8v4l-8 28l4 16l-24 48l8 8v4l-4 20q24 17 24 36l-8 8v4l8 12l-8 8l56 28q8 0 8 16l16 4q51 0 68 -32q28 -17 28 -24 v-4l-12 -32l24 -52v-4q-8 -15 -8 -72q-8 0 -8 -24l12 -32v-20q0 -6 -32 -16l-24 -32q6 -57 24 -72l-4 -16q16 0 16 -20l-4 -4l4 -20v-16q0 -35 -28 -92l16 -32l-4 -36q0 -20 20 -20l4 -20v-4q-12 -18 -12 -36l4 -20q-9 0 -28 -56q16 0 20 -52q19 0 28 -8l-4 -4v-4l4 -4v-4 q-8 -52 -24 -68v-24l-4 -44q2 -16 12 -16v-12l24 -64q0 -16 16 -16l12 -16l-4 -16q21 -6 32 -24q33 -32 48 -32l8 12q10 0 24 -24l28 -8l68 24q17 -28 52 -28q17 0 68 28h4v-4q25 11 40 40q44 0 44 24q32 7 32 24q0 24 24 36l4 -4h4q9 0 20 32l-8 20h4q12 0 12 20l16 8 l-4 16l8 20l-8 20l4 4v4l-8 20q12 0 16 64l12 12l-8 44h4l-8 20h4l-8 28l16 24v8l-12 16l4 20v4q-10 40 -20 52v16q11 20 20 20v20q0 14 -16 28l4 52q-7 0 -12 20l12 60q-24 29 -24 40q11 52 28 52v8q0 27 -28 80l4 4v4l-4 20q0 30 24 48l4 4v20q0 6 -32 16v4q28 12 28 32 l4 20l-12 12h4l-4 4v12q9 20 32 20q0 31 40 44z" />
<glyph unicode="V" horiz-adv-x="1301" d="M52 1391q27 0 72 -61q29 0 40 -73v-8l-8 -8h4l-8 -24l16 -45l-4 -20q44 -53 44 -122l4 -4l20 -57q29 -23 40 -93q11 0 20 -37l-4 -4h-4l-4 4v-12l8 -44l4 -8v-9q0 -22 28 -28l8 -16l-4 -16q9 -6 16 -86h-8v-8q24 -14 24 -81l24 -48v-13q21 0 60 -28v-24q19 -17 28 -49 q20 0 20 -8q-24 -23 -24 -37q16 -64 44 -64v4l4 -4h4q34 0 44 60q17 0 20 45l4 12q12 0 12 33q7 0 16 24q-8 16 -8 45l12 -9h4v4l-4 21q9 0 24 36q0 130 36 154q44 51 44 98q15 0 28 85h8l4 -4h4l4 4v4q-6 24 -40 24v8q20 0 20 17l20 24v36l16 25l4 -4h4q10 0 16 44l4 4 l-8 49v12q0 6 16 12l4 4v13l-8 28q17 8 28 41q25 0 32 97q11 36 32 36q4 19 24 33q8 0 20 -25q24 0 24 -20q16 0 16 -61l-12 -36l8 -8v-12l-16 -61l4 -49l-44 -53q0 -11 -28 -20v-4l8 -45h-4l8 -16q-16 -26 -24 -85v-16q12 0 12 -8t-24 -8q-4 -25 -12 -25h-8v8h-8v-4l4 -4 v-4q-21 0 -24 -97l8 -8v-8q-24 -19 -24 -69l-4 -4v-4l4 -4v-5q-18 -64 -36 -64l-4 4h-4q0 -31 -12 -45l4 -16l-20 -65l-40 -28q0 -17 -8 -17l4 -4v-4q0 -12 -12 -12v-12q-24 -55 -40 -150l4 -12l-4 -17l-4 4h-4q-8 -8 -16 -60l-20 -41l-48 -61q-17 0 -48 -16l-4 4l-8 -8h-24 l-8 8l-4 -4h-4q-12 0 -12 28q-14 0 -32 21l4 4v4l-24 28l-12 49l8 16q-8 30 -36 53q-12 9 -12 40l-24 25q11 10 16 56q-17 0 -20 65l16 17l-24 40l4 12q-12 17 -12 37l-36 40q-32 51 -32 86l-4 4h-4l12 64q-32 49 -48 49l-16 16v57l-28 57q-12 0 -12 12l-16 8q0 35 -8 57 l4 16l-8 8l4 21q-12 0 -12 44l-40 53v49q-20 19 -20 44v25q-27 33 -32 89q15 0 24 69q20 0 20 20l4 4h4z" />
<glyph unicode="W" horiz-adv-x="1317" d="M446 1391l76 -8h8l20 4q2 -9 52 -33l-8 -69q14 -45 24 -45q0 -35 12 -77l-4 -5v-4l4 -16l-8 -33l16 -146q-6 -41 -24 -74v-28q36 -44 36 -94l-12 -57l36 -61l-4 -17l4 -41q-20 -5 -20 -12v-28l20 -111l8 -8l-4 -4v-36h8l-4 -29q28 -45 60 -45q24 19 24 53l4 4l4 12h4 l-4 13l8 32l-4 17v12h8l8 12l-8 41q4 40 16 53v4l-4 4l8 20l-4 17v4q12 15 12 28l-12 41v25q24 130 44 142q0 33 32 53v5q-20 0 -20 85l-4 12h-4l4 29v33l8 12v8l-4 16q24 105 44 151q11 18 16 70h-4q23 61 36 61h12q48 -39 48 -127q8 0 8 -20v-8q-21 -20 -28 -53l8 -25 q-32 -45 -32 -134l8 -25q0 -26 -36 -98q-12 0 -16 -57l-4 -12l4 -24l-8 -13l4 -4v-49l-20 -24l8 -17l-24 -150q-7 0 -20 -29v-4h8v8h4v-12q-15 0 -20 -33l12 -12v-12q0 -15 -16 -33v-41l16 -65q0 -67 -28 -90q12 -11 12 -81q-41 -119 -76 -119q-14 -15 -64 -20l-32 12 l-32 -4l-24 78l4 12q-3 33 -8 33l16 57q-16 0 -16 53l-20 28v8l24 37v16q-11 0 -20 98q-6 0 -16 78q-12 4 -12 24q0 15 16 33v8l-8 12l4 62q0 34 -24 81l8 33l-32 69v4l4 12l-4 25v12q16 0 16 8q-12 4 -12 25v8l4 16l-8 25l4 4v4l-12 37l4 20l-16 20v21l8 24l-8 41l4 37 q-28 20 -28 41l-4 4h-4l-24 -62v-24l4 -37l-12 -65l4 -12q-1 -27 -24 -45q-26 -155 -60 -155v-8q0 -13 16 -13l12 -24l-4 -12l4 -37v-12l-4 -4l4 -4q-6 -37 -12 -37l12 -37q-8 -18 -16 -20h-12l-8 8q-20 -7 -20 -20q0 -33 12 -49v-4l8 -123q0 -44 -24 -65v-12l8 -13v-4 l-4 -4l4 -4v-4q-13 -73 -48 -73q-12 0 -24 53q-24 6 -24 28l28 70l12 12l-8 16l4 21h-12v12l8 57l-8 8q12 73 48 73l16 21v4l-28 41l4 65v12q32 0 32 78q0 26 -16 45q4 39 44 134h8q0 38 -44 70l8 8l12 -12q36 10 36 16l-8 65q0 15 24 37q0 42 32 65l4 25l-8 12v12l4 4l-4 4 v49l-20 25q7 20 24 20zM66 1387h4q44 -18 44 -33l8 -20l-4 -4l4 -21v-28q0 -30 -20 -45l-4 -12q20 0 36 -114l-4 -17l4 -16l-4 -4h4l-16 -45q4 -13 16 -16v-9l-12 -28l16 -65v-33l4 -4l-4 -4v-4q16 -58 24 -139l8 -12l-4 -25l12 -65q-9 0 -24 -33q23 -24 32 -57l-4 -4 q0 -12 28 -65v-4l-4 -53l4 -25l-8 -32v-12q0 -73 36 -119q11 0 44 -36h24v-13l-12 -20l4 -4v-33q0 -50 -32 -61l-32 -29l-28 -16l-24 16q-55 0 -64 54l-8 24v4q12 11 16 49q16 7 16 29q-8 0 -20 44l4 5q0 25 -32 77l-8 33l8 16l-12 73q8 80 28 106l-20 29l-8 24l8 29h-8l4 4 l-28 122q-23 164 -36 164q0 69 36 69l4 4v16q0 9 -20 9q-36 32 -36 126q-7 0 -8 29q-10 0 -28 20v4q60 0 60 33v4q-28 37 -28 61l12 24l-4 17l32 28l24 29v4zM610 636v-8h4v8h-4z" />
<glyph unicode="X" horiz-adv-x="1183" d="M768 1384q9 0 28 -36l44 -40v-4l-4 -4q3 -34 16 -56q-36 -51 -36 -68q0 -33 -72 -80q-16 0 -24 -36q-9 0 -16 -44q-48 -44 -48 -56q-22 -16 -28 -76q-18 -24 -28 -24v-12l12 -16v-4q-25 0 -60 -56v-8l8 -12v-16q-24 -17 -24 -56q0 -32 28 -52l56 -32q-4 -24 -12 -24 l16 -76q40 -36 40 -76q21 -35 68 -64q0 -32 20 -32q11 -32 20 -32h20q0 -36 44 -36q16 -20 16 -64l36 -56l24 -4v4q20 -5 20 -12v-8q0 -6 -32 -16l-52 -80q-3 -12 -28 -20q-28 4 -28 16l-48 -4h-12l-4 20l4 4v4q-12 72 -32 72v16l4 4q0 37 -52 48q0 46 -32 64v4q8 0 8 12 q0 31 -32 60l-36 84l-24 12v12q0 13 -40 84q0 40 -16 40q-8 16 -24 24l-4 -4q-8 -12 -52 -32q0 -16 -44 -56l-4 -12l4 -4q-11 0 -16 -56q-10 0 -16 -40q-47 -22 -60 -72l-4 -16l-20 -4v-32q-4 -36 -28 -56l-12 -28h-4l-12 8q-21 0 -32 -80q-9 -22 -28 -36q-24 -56 -68 -56 q-52 13 -52 52l-4 32l20 36h4l20 -4q9 11 12 40l4 4h4l-4 20v4l8 8l4 -4v4q20 -5 20 -12l32 24l-4 28v16q28 42 28 68l-4 4v4l36 48q0 35 36 76l16 28l-4 12q13 36 28 36q36 11 56 68q30 0 44 88q-8 0 -12 24l4 12l-4 -4h-4q0 14 -24 20v4l4 24l-12 20l4 4v4l-8 32h-28 q0 20 -40 56l-4 24h12v4q-48 39 -48 76l-52 48v8l4 4q0 14 -36 36q0 36 -20 56q0 8 -44 56l-24 64h4l-4 12v4h4v-8h8q0 22 28 44l4 -4h4q9 0 24 44h16q0 -14 48 -60l4 -4q14 0 28 -68q10 0 24 -20v-40q8 0 28 -24l20 -12l4 -32l-4 -24q54 -52 92 -52l-8 -32l4 -4 q0 -12 28 -12l24 -52l-8 -28q0 -36 56 -36l8 -8l12 4l-8 16l8 16l-4 40l12 12v4l20 -4q40 0 56 64q21 0 24 32q28 0 48 76q22 0 36 64h-4l20 72q6 0 16 60l-4 12l20 28l4 -4h4q13 0 48 56z" />
<glyph unicode="Y" horiz-adv-x="1299" d="M826 1426q44 -4 52 -12l4 4h4q48 0 76 -44q11 0 20 -36q15 -7 20 -24l-16 -32l8 -52q-24 0 -24 -28q-15 -13 -24 -40l-56 -64q0 -16 -28 -16l-8 -24q7 0 12 -24q0 -48 -28 -48q-12 0 -12 -36q-20 -9 -32 -32q-12 0 -12 -28q-20 -6 -20 -28l12 -44v-12q-22 0 -36 -36 q-24 0 -24 -36q-12 0 -12 -12l4 -20q-18 -52 -36 -52l-48 8l-8 -16v-12q16 -26 16 -40q0 -19 -28 -48h-16l-12 8h-12v-36q16 -18 16 -28l-28 -60h8v-16l-8 -24q16 -24 16 -36l-4 -4l12 -80l-20 -72v-4l32 -72l4 -16q-8 -24 -16 -24l4 -4v-20q0 -32 -40 -52q0 -13 -36 -32h-8 l-44 16l-16 -8l-16 56v44l4 4l-12 32l12 52l-4 68l8 8l-12 12h-12l-4 -4h-4l-8 28l12 20v8l-4 56q20 52 36 72l4 20v28l-16 4v20q-36 32 -36 52q0 36 -24 36q0 8 -24 8l-16 12l-4 4v24q0 8 12 8v8l-24 48h-4l-8 -8l-44 52l8 24h-8v8l4 16l-28 36q0 41 -28 88l-8 36l8 24v4 q0 11 -48 24v36l-20 44q0 24 -24 24q-41 54 -60 116l-32 28v12l4 16l-16 36l4 24q0 9 -28 20l-4 16l8 8h36l40 20h12q0 -8 12 -8q6 -12 68 -12q32 -11 32 -44q7 0 24 -44l-4 -44l16 -48l-8 -32q18 -17 28 -48l36 -12q-12 -23 -12 -48q45 -60 52 -60v-16l-4 -16q1 -15 36 -28 q15 -23 24 -76q7 0 16 -28q29 -14 52 -64q24 -20 24 -40q13 0 24 -40l20 -4v4l4 -4h8q0 10 28 24l12 24q0 20 -8 20q0 12 40 24l28 44l-8 20h4q7 26 36 68h20l8 56l-4 16l84 104q33 119 64 156v4l-4 4q20 42 20 96l-12 8l4 48v12z" />
<glyph unicode="Z" horiz-adv-x="1217" d="M192 1409l4 -4l56 -35v-4h13l4 4l4 -4h4l26 4q39 -2 39 -8l21 4h21q17 -22 34 -22q23 22 64 22l13 8l25 -4h4q14 17 43 17l77 -25l17 4l8 -13l60 9l35 -9l4 5q8 29 34 29h4q0 -11 90 -21q21 -22 30 -22l-4 -20l8 -31v-4q0 -8 -21 -8q-26 -56 -26 -78l-34 -99l-21 -4l4 -4 v-10l-26 -16l-29 -34l4 -4v-4l-13 -13l-4 4h-4q-12 0 -14 -18l4 -34q-39 -85 -102 -112q-10 0 -24.5 -26.5t-37.5 -68.5l-31 -33l-22 -35l5 -47q-28 0 -30 -14v-37q-26 -25 -26 -73q-10 -12 -12 -44l-39 -12l-25 8q-14 0 -48 -20q-16 0 -29 -22q0 -107 -31 -107 q-27 -35 -68 -35l-17 -17l-21 13l-12 -4v-17q8 -22 16 -22l-8 -39v-4q37 -19 42 -30v-21q31 -18 64 -18h9l4 4l51 -16l21 4l31 -9l42 9q63 -22 120 -22q9 9 47 9l13 13l21 -4h8l51 8l5 -4l119 17h26l17 -13l30 4l13 -34v-21l-5 -28l5 -12q0 -43 -73 -43l-13 -5l-51 18 q-10 -27 -17 -27h-12l-6 18h-4l-29 -18l-34 9l-9 -9h-13q-18 18 -34 18h-12q0 -18 -14 -18h-8v9h-5v-9h-4q-10 9 -42 14l-18 17l-25 -9v5l-33 -22q-29 38 -48 38q-72 -23 -72 -43l-60 -8q0 22 -21 22l-22 -5q-63 0 -63 18q-22 0 -22 -9l-26 17l-43 -4l-16 8l-22 -8l-17 30 l-8 8l-12 26l8 9q-12 15 -12 30l10 6q11 12 46 99q22 30 40 64l43 -9l17 4v13l-4 -4h-4v4q0 61 43 72l25 70q13 0 13 30h43l-5 4v5q11 30 52 98q0 21 50 108q13 14 13 29q19 35 26 35q33 0 34 92l52 19l9 29l38 39q21 24 21 65q32 8 39 22l-14 22q22 29 43 29q13 15 13 51 l-5 5v4q9 0 9 22l12 13l-4 4v4q18 18 31 18l16 20q-64 16 -64 35l-33 -9h-27l-4 -4h-4v4l-4 -4h-4q-40 7 -56 22l-21 -14h-13q-14 0 -30 14l-51 -26l-30 12q0 -7 -46 -21l-6 4h-4q-16 -8 -46 -8h-13q-17 6 -17 25l-47 -8h-4l-18 8l-21 -4q-8 20 -17 22l-16 -13h-43l-22 17 l-34 -8h-9l-8 39q0 19 43 67q39 22 102 22l4 -4l47 13l-4 22v8z" />
<glyph unicode="[" horiz-adv-x="733" d="M363 1679q68 -12 68 -40l-12 -32l20 -16l-4 -4l8 -20q-3 -45 -16 -56q0 -12 32 -12l24 -28v-12q-44 0 -44 -24q-16 0 -16 -24l-12 -12l-12 -8l-36 4q-24 0 -52 -76q-8 0 -32 -36q4 -32 32 -32q-2 -20 -24 -20q-15 -34 -36 -40q-13 -4 -16 -16h4l-20 -44l8 -20l-4 -12 l4 -4v-4l-20 -32q20 -36 24 -72l-28 -52v-24l-12 -80l8 -36h-4l8 -28l-4 -24v-16l4 -4l-4 -4v-12l8 -12v-8q-16 0 -16 -12q8 -6 12 -80q-16 -36 -16 -56l4 -4h4q-3 -24 -8 -24l12 -28v-8l-12 -60v-12q0 -7 24 -20q0 -65 28 -84q10 0 44 -36l-12 -44v-4q16 0 24 -16l-4 -40 q35 -44 56 -44q32 -41 32 -100q52 -28 72 -52l16 -24l-4 -40v-40q0 -48 -56 -48l-32 -4q-49 29 -84 80l8 28q-12 16 -12 36q-60 28 -60 60q-5 0 -16 36q-11 0 -24 32l4 4v8l-40 60l-12 24v16l4 4q-32 43 -40 124q-15 32 -24 116q-16 0 -36 96h4l-8 20l4 24v16l-4 4l8 28 l-8 16l8 32q-22 0 -32 112l-12 32q0 56 16 56l24 12v20l-4 4l4 4v4l-4 4v4l12 24v4q0 13 -12 28q8 84 28 84v32l-8 16q0 28 8 28l-4 4v24q19 0 40 48q0 46 44 88l28 52l-4 24q24 31 24 56q20 51 44 80q0 41 36 52l16 64q11 0 32 24q25 24 40 24z" />
<glyph unicode="\" horiz-adv-x="1306" d="M99 1378q36 0 36 -19q32 0 32 -32h-4l-4 -3q0 -7 44 -46q23 -50 32 -51q29 -78 52 -78q13 -32 28 -32q20 0 20 -30q0 -8 32 -46q0 -16 12 -16v-16q36 -33 36 -48v-6l16 -3l20 3l4 -3l-4 -26q0 -12 20 -27q0 -8 12 -8q0 -14 8 -14l-4 -24l20 -24q36 -8 36 -14v-11l-12 -10 v-3l12 -8l-16 -16v-3l8 -8q0 -8 12 -8q21 -19 28 -19q15 -38 36 -38q0 -10 16 -10v-3l-4 -24l40 -49v-19l-4 -2q11 -22 44 -33q20 -61 40 -89l-4 -21q0 -9 32 -19q36 -29 36 -54q20 0 28 -40q44 -24 44 -32q0 -21 24 -38h-4l8 -19q0 -9 28 -40q37 -24 52 -46q12 -43 32 -49 q9 -16 16 -16l-4 -16q0 -9 18 -30v-2q-3 0 -14 -35l-12 2l-38 -20l-28 2l-8 -5l-20 3l-22 31h-4l-4 -2l-28 18q-7 43 -24 43q0 25 -24 25q-11 0 -28 59q-7 0 -36 24q0 23 -24 38q0 19 -12 19q-10 2 -32 29l4 19l-12 11h-12l-4 -3v3l4 16v3l-4 2h4l-8 25l4 2h-4q-6 27 -24 27 v19q0 20 -48 73q0 12 -36 32l-20 51q-28 0 -28 27l-4 -2q-11 0 -16 24q-28 17 -28 27v21q0 30 -24 49l8 24v3q0 8 -44 24l-40 13l8 30q-7 0 -16 32h4q0 5 -20 8q-11 38 -20 38v3l4 2v3q0 11 -28 27q-14 40 -36 40v14q-12 19 -20 19q0 22 -36 37v11l12 3l-4 11q-21 12 -44 51 l-20 16v3l4 2l-4 3h8v13q-22 38 -36 38l-12 22q-28 14 -28 35q-51 35 -56 56v3l4 3q0 5 -12 5l4 22l-16 21q0 23 52 59l12 -5h4l12 8z" />
<glyph unicode="]" horiz-adv-x="723" d="M104 1692q41 0 56 -44q6 0 20 -40l-4 -44q60 -44 60 -68v-20q8 0 8 -20q17 -19 32 -60l28 -36v-12l-8 -8q31 -68 36 -68q28 -19 28 -68l8 -8v-20q16 0 16 -28h4l-4 -28v-16l16 -56l-4 -16l4 -4v-4l-4 -12q20 -5 20 -12v-20l-4 -4q16 -35 16 -52v-8l-12 -20l28 -96 q0 -14 -28 -28l4 -28l-8 -12v-4l16 -20v-12l-4 -4q0 -62 40 -76l16 -20v-4l-28 4h-4q-9 0 -16 -44q-17 0 -24 -40v-32l-4 -4l4 -4v-20h-8v-48q-16 -13 -32 -88l4 -4v-16q-32 -19 -32 -72q-20 0 -20 -32l-4 -32l4 -4v-4q-16 -24 -16 -44l4 -4v-4l-4 -12l4 -24h-4q-8 0 -8 -12 q-28 0 -28 -24q-9 -76 -28 -76q-17 0 -28 -28l-12 -12l4 -4v-4q0 -33 -48 -48q-20 -52 -44 -52h-12q-80 10 -80 44l-8 8q18 32 28 32v4q0 44 24 76l16 32l-4 28l20 4v4l-8 12v8l4 20h24l32 32v12l-4 4v4q10 0 16 32v20l20 4l-4 20q0 26 28 72q0 28 36 68q29 0 40 28l-4 12 q0 18 20 40l-12 24h4l-4 4q0 48 32 84l-4 44l16 16q-16 53 -48 76v4h-20l-28 -4v4q8 8 8 36q30 32 40 32l4 4v4h-4l-12 -4v4q0 12 16 12v8l-4 -4h-4q-13 0 -20 68l12 24v16q0 21 -20 60v4h4l12 -4l-12 36h4q0 18 -24 24v40l-8 28l4 24q-16 2 -44 64q-20 0 -20 44l-20 -8 l-8 12l8 60q-14 16 -28 16q-12 48 -36 48q0 17 -16 32l4 4q0 10 -24 28v4l8 16q-3 56 -12 56l-12 -4q-18 32 -24 32l-4 4v4l4 4v4l-4 4v4l4 28l-4 4v4q22 75 52 96l20 4l20 24q0 16 12 16zM412 588v-8h8v8h-8zM256 236l4 -4h12v4l-8 8z" />
<glyph unicode="_" horiz-adv-x="1100" d="M391 -29l-12 -4q-28 0 -100 24l-16 -4l-28 4v-8q-46 -5 -60 -16h-8q-22 24 -40 24q0 -11 -12 -24l-16 4q-47 -9 -76 -32h-4l-8 8v16l4 4l-60 36l-16 -4l-6 -1l-6 1v4l-4 4q-16 0 -24 84q7 0 44 64q27 11 56 40h4q14 0 28 -16h16l12 8l12 -12l20 4l16 -16q20 0 24 28 l24 -24v-4l36 4l12 -16l36 8h4l20 -4l12 12h28l20 4l32 -16l28 12l40 -8v4l24 16h4q0 -10 20 -24l44 4l40 -12q53 0 76 32h20q20 -24 64 -24q0 12 12 12q20 36 44 36h4l32 -32l40 -44q0 -18 40 -32l-4 -4l4 -24q-7 -32 -16 -32v-4l4 -4v-4q-20 -12 -20 -44q-32 -16 -32 -24 l-20 4l-32 -20q-36 10 -36 20l-36 -8l-32 8l-4 -4h-8l-4 4l-16 -16h-4q-28 17 -28 28q0 16 -52 16q-16 -6 -16 -12l-28 24h-12l-12 -8q-18 -56 -44 -56z" />
<glyph unicode="`" horiz-adv-x="591" d="M4 1669q0 18 16 56q-16 24 -16 36v4q24 31 28 52l-4 16v4l24 4l32 -8h16v-8h16l12 8h12q7 -8 72 -16q24 -33 32 -72q12 0 32 -28q24 -17 24 -60l60 -64l-4 -32q0 -20 24 -64q0 -12 16 -20l-4 -28l4 -52q-8 -24 -32 -24q-52 33 -52 52q-12 0 -12 12l-4 4h-4l-20 -4 q0 12 -28 12q0 25 -44 36q0 13 -32 36q0 12 -16 12v-4q-28 10 -28 40q-12 0 -28 40z" />
<glyph unicode="a" horiz-adv-x="1306" d="M557 1401l69 -46l-4 -42v-4q0 -41 41 -62l8 -13v-4l-12 -79v-9q0 -26 41 -45v-9q-13 0 -13 -21v-12q0 -10 53 -29q0 -22 33 -54l-21 -21v-9l9 -12v-67q0 -14 12 -29l-4 -25q0 -17 24 -17l8 -12v-4l-4 -21q49 -26 49 -63l4 -12v-9l-8 -33l16 -75q14 0 21 -67q17 0 24 -62 l-4 -30q0 -27 41 -95l48 -71l-4 -30v-12q0 -7 41 -29l-8 -50l4 -4q-43 -44 -53 -88q-24 -12 -77 -17l-41 42l-4 13l4 20q-1 30 -32 75v17l4 29q-41 22 -41 55v8h8v12l-16 38l-4 21v41q-11 17 -53 34l-33 -17l-12 8h-16q0 -16 -21 -29h-4q-40 0 -44 34l-29 4q-24 -6 -24 -13 l-86 17l-32 4l-20 -4q-7 17 -13 17l-28 -25l-45 4h-4q-10 0 -20 -38q-29 0 -37 -33l-41 -117l-12 -12q8 -17 8 -46v-4q0 -11 -40 -25l-13 -34l13 -21q-17 -71 -37 -79h-28l-5 4l-24 -8h-4q-10 2 -37 42q-13 0 -24 25v4q0 32 12 71l-4 25q38 58 41 112q7 0 12 21h-4 q27 61 65 113l-4 4v4l33 92l-9 25l33 54l-4 29v21q0 18 16 42l29 58q0 34 20 54l32 75l29 46l4 4l-4 38q23 0 28 63q-24 42 -24 58l33 25l-9 25q9 0 9 38q16 4 44 41v4l-4 5q7 70 33 70l16 25v5q-12 0 -12 12q0 22 49 29l4 -4q28 42 57 42zM407 1042q3 -25 8 -25 q-12 -41 -41 -75q16 -6 16 -29q-12 -18 -20 -58l8 -42q-32 0 -32 -33q0 -14 -21 -25l-8 -29l12 -13q0 -12 -16 -12l-4 -5v-29l4 -4l-28 -38v-8q12 -15 12 -29q0 -48 45 -54l101 8q8 -19 17 -21h16l4 4l4 -4h4q16 13 37 13l32 -13h12l70 17l36 -17h16q26 25 53 25l13 -4 l-25 29l-4 17l4 37q-45 41 -45 71q-20 0 -28 59l12 33q-7 9 -12 67q-34 30 -53 125l4 4v4l-12 34l4 4v8l-8 29l4 29l-4 5h4q-6 25 -29 54l-20 -4q-32 22 -32 33h-5q-34 -18 -36 -33q-24 -96 -57 -96q-12 0 -12 -9z" />
<glyph unicode="b" horiz-adv-x="1152" d="M160 1400q18 -8 20 -16l20 4h4q0 -9 16 -20l4 4l20 -4l24 8l20 -4l44 8l32 -16l20 4h36l64 -32q21 0 44 20h8q21 -25 60 -32q6 24 28 24h32q7 -1 20 -40q24 0 32 -32l44 -20q24 0 48 -80q11 -13 24 -84q12 0 12 -20q-16 -17 -16 -32v-8l20 -4v-8q-17 0 -24 -28 q0 -29 24 -48l-4 -4l4 -28v-8q-28 -80 -48 -80q0 -8 -20 -8v-8l-20 -60l-8 -8h-8l-4 4h-4v-8q11 -13 16 -48l4 -4q0 -8 44 -40q16 -106 36 -140q24 -13 24 -40l-8 -24l8 -16l-8 -44l8 -24v-20q-12 -11 -16 -32l4 -20q0 -34 -36 -60l8 -52l-4 -4h-16v4l8 12l-4 4h-24 q0 -24 -32 -60l-24 -4q0 20 -12 20l-12 -4v-16l28 -28q0 -8 -20 -8l-4 -4v-4l-4 4h-12l-12 -32q-36 4 -36 12l-20 -4q-13 0 -36 16h-12q-37 -20 -68 -56l-100 24l-12 -8q-26 0 -28 16h-4l-44 -16l-20 4q0 -8 -12 -8l-20 4q0 -23 -56 -36q0 18 -72 32l-12 -16h-8q0 24 -52 32 q-16 28 -24 80l4 24l-8 12v40l4 24q-3 29 -24 52l-8 16q0 16 20 32q0 30 12 32l-12 68v4l16 32h-4l12 24l-4 4v4l4 4v4l-4 4l12 60l-4 36l8 12l-20 36v4l8 24q-12 36 -16 104l-4 12q7 0 12 20l-8 32q12 21 12 48l-12 8q3 32 8 32l-4 4v20l4 4v4h-4l8 28q-8 18 -16 20l4 20 v12l-8 32v8q12 12 20 56q-20 37 -20 72l16 16l-8 48q0 70 64 80q25 40 68 40zM328 1212v4l-24 -8l-12 4l-16 -16l-32 8l-4 -4q-24 7 -24 12l-16 -8l-16 4l-12 -16v-24l-16 -4v-40l-8 -44l8 -8q0 -14 -36 -76q0 -14 16 -32v-4l-4 -4l20 -76q-20 -11 -20 -24q24 -56 56 -80 q14 -40 28 -44h8q0 24 32 24q15 40 40 40l32 -16l32 12q56 -14 56 -40l8 -8l56 -4q49 56 72 56h36q16 10 32 52q10 20 28 20l16 -4l12 24q-8 0 -8 20h-4q44 57 44 76l-4 4v4l4 16q-20 56 -36 56l4 4v32q-2 8 -20 16l4 4v4l-36 64l-68 24h-24q-12 0 -28 -48h-8q-14 11 -76 24 l-12 24l-40 -8q-2 8 -20 16zM472 688l4 -4v-4q-21 0 -52 -28l-24 -4l-12 12q-21 0 -44 -32h-36l-4 4l-36 -8l-4 4l-20 8q0 12 -16 12v4l-64 -16q0 -7 -28 -20l-12 -84l12 -20l-8 -16l4 -4v-4l-8 -16l4 -104q20 -8 20 -28l-12 -28h4l-8 -16q24 -24 24 -64v-16l-8 -8l-12 4 l-12 -20q18 -32 52 -32l20 -12q31 20 48 20l16 12h4l32 -24l4 4h12l16 -4l24 12l28 -16l80 16q4 16 24 16q44 -27 44 -40q0 -8 20 -8q32 0 48 80h24l64 52q20 68 52 68q0 21 24 40v4q-11 7 -20 84l-4 4q-19 35 -36 44q-16 44 -44 48q-60 49 -60 84l-96 -4l-16 -4l-12 16v4 l16 20v4l-8 8h-8z" />
<glyph unicode="c" horiz-adv-x="1352" d="M460 1406h12l52 -28l36 4l8 -8l36 16l4 -4h4l20 8q35 -28 76 -28l28 4q0 -13 72 -28l4 -4h4l12 12q8 0 12 -24q10 0 12 -20q64 -20 64 -40q0 -18 60 -36q16 -21 16 -36l-8 -8v-4q17 0 28 -40l-12 -12l20 -72q-20 -143 -56 -184q-8 -11 -16 -60h-64l-12 -8h-8l-16 4 l-12 -8l-4 4h-4l-36 -16l-24 20h-24l-16 -8q-64 33 -64 40q0 10 -40 52q0 13 -28 40l-12 52l4 16l-4 4l4 4l-4 40q0 26 48 64q0 36 40 48q0 8 28 8q16 -41 16 -64l-20 -36l36 -48v-16q-16 -14 -16 -36l-16 -24q12 0 12 -20l32 -4l4 4h4q38 -28 56 -28q32 24 32 48h8v4l20 -8 q8 20 24 20l4 20h-4l4 4v4l-4 12q4 41 16 64q-24 64 -56 64v12q0 29 -40 36l-56 56l-64 -8l-28 8q-16 0 -68 -32l-4 4v24l-12 4q-20 0 -20 -12h-8v8l-16 -12h-20q-8 0 -8 12l-12 4l-40 -8l-20 8v-4l-4 4h-8q0 -20 -28 -20v-4l-4 4h-4q-24 0 -40 -32l-64 -16q-5 -21 -20 -32 q0 -11 -24 -24l-8 -24l8 -28l-20 -24v-12h-8l-12 8l-12 -12l4 -12q0 -39 -48 -52q-26 -13 -28 -24v-4l4 4h4l20 -64q0 -52 -20 -52v-16h8v-16l-4 -4l32 -32l-4 -32l4 -28q-14 0 -32 -60l20 -36v-28l4 -20l-12 -64q27 -84 32 -84q32 0 32 -12l4 -16l-8 -8q0 -10 28 -48 q12 -48 32 -84l16 4q20 0 32 -32q12 -16 44 -16q20 -40 72 -40h4l4 4l40 -16l4 4l20 -20h8l36 12l52 -16l36 8v-4q23 0 32 32q41 32 60 32l4 -4l20 8l16 -8q1 8 40 24q0 12 12 12q11 10 52 104q13 0 60 48q20 0 20 16q-20 0 -32 60l-4 4l16 24l-16 36l36 56q2 28 20 28 l24 -12l4 4h4q16 -2 16 -12h8l12 8h8l12 -16h-4l4 -4v-36q-16 -16 -20 -60q-16 -9 -16 -20l12 -48l-8 -24q1 -20 8 -20q-4 -44 -16 -44h-20v-24q0 -6 -36 -24v-4h8v-12l-24 -40v-20h-8l-4 4q-12 0 -48 -40q-44 -22 -44 -52l4 -4q-14 0 -36 -36l-4 4h-4q-19 0 -44 -28 q-43 0 -64 -28l4 -12l-20 -16q-31 0 -36 16l-20 -4h-4q-16 16 -64 24l-32 -4l-36 20l-28 -28l-36 -16q-17 2 -36 24q-26 0 -68 44q-4 16 -24 16l-4 -4q-15 40 -36 40q-38 37 -60 48q0 21 -48 40l-44 52q-9 92 -24 92l-36 20v8l12 56l-16 24v20l8 12v20q-24 16 -24 84l4 20 q-8 32 -20 44v20l4 4l-4 4v4l16 80v16l-12 12l4 4v12l4 68h-4q6 22 20 32l-8 48q20 54 20 80l4 -4h4q24 56 40 72q32 34 32 88q10 24 32 24q0 26 52 68q0 32 32 32l16 4q0 5 32 8q12 36 48 36l60 16v-4q28 5 28 24z" />
<glyph unicode="d" horiz-adv-x="1356" d="M294 1418l20 -12l24 12l36 -12l4 4l8 -16h8q28 0 28 8l60 -20l4 4h4l36 -12l48 12l92 -24l20 4q0 -12 36 -16q27 -36 68 -36l12 4q0 -8 44 -24q6 -20 28 -20l4 4q24 -33 24 -52l4 -28q26 0 48 -56l44 -24v-12l-4 -4l12 -40v-16l-4 -16q7 -40 28 -40v-8l4 -84l-8 -24v-4 l4 -32l-4 -32q0 -22 32 -40l8 -36q-17 0 -24 -40l8 -24q-7 -8 -12 -64q24 -18 24 -28q0 -43 -20 -72l4 -4v-4l-12 -36l4 -24q-12 -43 -40 -72q-23 -29 -32 -56v-4l4 -4v-4l-12 -8l-12 4q-12 -10 -12 -48q-22 0 -32 -40q-6 -36 -36 -36q-19 0 -36 -24l4 -12q-37 -32 -48 -32 q-23 0 -64 -60l-4 -4h-4l-24 4h-8q0 20 -28 20q-8 -18 -16 -20q-18 0 -36 12q-16 -4 -16 -20l-20 4l-20 -24l-56 12l-8 -8h-4q-15 12 -28 12l-68 -24l-36 -4l-12 12l-28 -8q-10 24 -28 24l-12 -8q-40 9 -40 24h-24q0 -14 -16 -20h-12l-20 4l-24 -36l-44 48h-20q0 18 -20 52 q35 65 80 112l16 -8l4 4h4l16 -8q45 4 56 12l-8 52h4l16 8v12l-4 4l8 24l-12 20l12 48v4l-4 4v4h4l-4 4l4 12l-4 44v12l8 32v4l-12 32l4 12l-4 36h4l-4 4v4l4 20l-4 12l8 56l-16 32l4 24l-8 24v16l4 28q-8 0 -8 20q-16 0 -16 12h8l-4 60v24q24 17 24 64q11 0 16 60l-4 20 l8 -8l4 4h4l4 -4h4l4 4v12l-16 8l-4 -4q0 36 -8 36l4 4v4q0 64 -36 112h-8l-4 -4h-4q0 8 -12 8l-12 -4l-4 4q0 -8 -16 -8v-20q0 -20 -8 -20t-44 44h-4l-12 -8l-16 16l-40 -4h-16v16l-8 24l4 24v4l-12 20q9 36 20 36l28 24l16 -4l28 16h40q16 -8 16 -24h8q15 12 28 12l4 -4 l32 28l4 -4q55 11 80 28zM602 1178h-8l-20 16v-8h-4l-4 4l-24 -20h-4l-4 4h-4l4 4v12l-8 8q-9 0 -12 -20q-16 0 -32 20l-36 8q0 -14 -40 -32l-12 -12l-12 8l-44 -16l8 -48v-4q-8 -63 -20 -72v-12l4 -4l-4 -4v-8l4 -36l-4 -12l12 -4l-8 -56l8 -24l-16 -44l8 -12l-4 -4 q3 -24 8 -24l-8 -52l8 -40l-4 -4v-4l12 -36l-4 -24v-4l12 -16v-12l-12 -16l4 -20v-16q14 0 16 -28l-8 -24l4 -4v-4l-16 -88v-32l4 -16l-8 -12l4 -4v-4l-8 -16q5 -40 12 -40l-4 -16l4 -20l-4 -24l12 -8q24 5 24 16h16l28 -8l20 4q39 -28 52 -28q0 10 20 12q29 -4 44 -20h4 q19 0 60 32h4l-4 4v8q12 0 12 8l4 -4h4l4 4l28 -16q13 10 36 12q3 28 28 28l36 -8q20 0 20 20q31 15 40 40l16 4h12l4 28v8l-4 4l4 4v12h-8v12l16 -8l20 4l4 -4v8h-12v8q19 0 48 60v16q10 0 32 24q0 15 -20 32l8 44q-27 44 -40 44v16l16 28l-12 40q9 0 28 52q12 0 12 8v52 l8 12q0 8 -20 8v8h-4l8 32l-8 36h4q-3 28 -28 48l4 24q-35 55 -52 68q-17 76 -52 76l-12 -8q-27 20 -56 24v4l-4 -4h-4q-28 4 -28 12l4 4v4l-68 60h-4q-40 -18 -40 -32z" />
<glyph unicode="e" horiz-adv-x="1242" d="M232 1348q0 -8 12 -8q46 -11 60 -28l28 4h16l68 -20l20 4l28 -4l16 4q28 -3 28 -8q21 3 36 20l24 8l64 -12l4 4h4l68 -8l20 8l40 -4q27 20 40 20l24 -4l16 4l4 -4v-4l-4 -4q18 -16 48 -16l28 -32h4q0 28 28 28l-8 -44v-16q-20 0 -20 -56l4 -12l-36 -20q-17 12 -100 12h-4 l-44 16l-12 -4l-4 4q-40 -38 -40 -48h-4q-8 0 -8 12l-4 4h-4l-24 -4l-32 28l-28 8l-24 -8q-21 0 -36 12l-72 -24l-44 8l-32 -12q-45 12 -60 24l-16 -16l-28 8l-24 -4l-20 8q-56 -22 -56 -80l8 -40q-11 0 -20 -44l-20 -16v-8q16 -18 16 -28l-20 -68q7 -28 52 -52v-4 q-3 -20 -20 -20l-8 -20q0 -18 84 -48q17 2 40 28q98 -44 116 -44q25 28 64 28v-12h4v8h8l16 -4l24 8l20 -8v4q76 -9 76 -76l8 -12v-4q-16 -17 -16 -32v-16h-12l-4 4l-4 -4h-4l-4 4h-4l-12 -4l-20 20h-36q-22 -17 -56 -28q-24 20 -76 32l-36 -12l-12 8q-38 -20 -72 -20l-20 8 l-32 -8l-16 4h-8q-24 -13 -28 -28l8 -56q-16 -19 -20 -60l-12 -12v-8q0 -17 20 -40v-8l-4 -16l24 -92l-4 -68l16 -56l20 -4h4l4 4h4q8 -16 24 -16v4l4 -4h4l56 4q16 0 36 -28l36 -4h4l12 16h8l44 -16h8l20 16l40 -16l24 8h28l4 4h4q0 -9 44 -20q0 11 44 24q25 -20 40 -20 l16 4l36 -4l92 4q45 -10 72 -32l-4 -32l4 -32l-36 -24q-73 24 -92 24l-16 -20l-12 8l-52 -20q-54 10 -72 20h-12l-16 -12h-4l-32 8h-28q-23 16 -36 16q-8 -16 -20 -16l-32 12h-4l-12 -8l-16 4l-44 -16h-8l-4 4l-4 -4h-8l-60 16q-15 0 -40 -24q-13 32 -32 32l-20 -4l-24 4 q-36 -20 -52 -20h-12q-14 5 -68 64l4 40l-8 44l8 24l-12 68h4l-4 4v32l4 16l-8 64l8 20l-8 8v4l12 60h-4l4 4l-4 20l4 16q-7 20 -20 20v16h8v8q-16 20 -16 64q28 44 28 56q0 23 -32 44l-4 4v12q20 21 24 60l-8 56q9 0 12 20q-7 8 -12 76l4 16l-4 16l12 60l-4 4l16 8 q0 13 -12 28v20q16 16 16 44l-8 32l8 32l-16 4l4 4v20l-8 32v28q36 40 56 40v-4l12 4l4 -4l20 4h8l4 -4l4 4h12l12 -8h8q33 0 44 32h16z" />
<glyph unicode="f" horiz-adv-x="1246" d="M392 1384l68 -26l4 -5h4l28 22h8l4 -4q13 -31 20 -31h16l4 5l24 -9l16 13l48 -9l20 5l44 -18q28 13 76 18v4l4 -4h4l24 13l44 -5l20 5q20 -6 20 -13l4 4h8l24 -22v-4l-4 -5l8 -26l-12 -22q15 0 20 -39q0 -18 -16 -22l-24 4q-31 -38 -132 -57h-8q-23 20 -56 22h-8l-40 -4 l4 4v4q-8 20 -16 22h-12q0 -13 -8 -13h-20l-32 9l-12 -4q-20 0 -60 17l-28 -4l-8 9q-11 -14 -80 -18l-36 -44q0 -17 -12 -17h-4l-12 8l-12 -4v9h-4q-8 0 -32 -44l-4 -4q-20 0 -20 22l-64 21q0 -8 -20 -8l-4 -27l8 -8l-8 -9v-5q10 0 12 -17l-8 -22l12 -35v-17q0 -20 -28 -53 l4 -31v-8l-8 -14l4 -17l-4 -13q0 -41 48 -48h40q11 -22 76 -22l16 8l4 -4h4l48 26l4 -4h4l12 4l20 -4l36 13l24 -26h4v4l-8 13q0 9 48 13v-4l4 4h4q39 -13 48 -35l-4 -43l4 -35l-68 -57q-23 0 -28 -31h-4q0 9 -16 9v8h-8l-4 -4l-4 4h-4l-32 -8l-4 4h-4q-20 0 -20 -17h-12 q0 21 -12 21l-24 -4l-8 9h-8l-20 -5l-8 14l-28 -9l-72 13h-12q-19 -18 -20 -33q0 -13 -10 -13l4 -4l-6 -27q4 -77 16 -109l-4 -13l12 -27l-20 -52v-44l-20 -22l24 -48v-4l-8 -31l4 -18q-3 -22 -28 -22l-4 -4v-13q20 0 20 -40l4 -13h4q0 -13 -12 -13v-9l16 -48v-13l-16 -26 l4 -13q-31 -28 -60 -31l-4 26l-36 -8q0 8 -32 8l-28 88l4 17l-4 14l8 26l-4 48l28 79l4 4l-12 27q0 78 20 184l4 52h-4q2 24 24 44v4q-28 0 -28 27l-8 30q0 52 -12 66l12 -4v4l4 4h4l-12 40l4 59l-8 39l4 5v4l-12 57l4 26l-4 5v4q16 41 16 75v4q-16 21 -16 35l24 101l8 13 h-4l8 26v13q-18 35 -24 35l-12 13h-4l28 27q0 20 96 57l4 4v4l64 -17l16 4l68 -17q0 9 12 9q0 8 20 8l4 13h4q0 -13 8 -13q22 13 52 18l4 -5q2 10 20 18z" />
<glyph unicode="g" horiz-adv-x="1442" d="M804 1424h8l20 -28l12 -4l8 8l12 -24l4 4h12l4 -12q-8 -18 -16 -20l4 -20v-28q0 -31 -40 -56l-4 -48l4 -16l-28 -40l-4 -12q32 -36 32 -100q18 -42 36 -60l20 -84l8 -8v-12q-17 -57 -32 -64l-24 8v-4l-4 4q-40 -4 -48 -12q0 12 -12 12q-3 17 -32 40l8 52q-12 4 -12 24 l12 20q0 7 -32 32q0 70 -52 136l-4 32l-52 -16l-52 56h-12l-28 -20q0 13 -40 40q-97 -25 -104 -40l-4 4h-4q-26 0 -52 -48h-8l-24 4l-48 -36q-29 0 -36 -68q-10 -9 -32 -92q-12 0 -12 -12l-8 -24l4 -20l-20 -80l8 -32v-20l-4 -4l4 -4v-96q0 -20 -12 -20v-4q12 -12 12 -40 l16 -24l-4 -40q0 -21 24 -48l12 -28l-44 -72v-12q41 0 52 -40q0 -59 44 -88q16 0 16 -24q0 -8 44 -48l56 12q6 -11 52 -20l28 8l16 -4l64 16l12 -4l8 8q41 -8 56 -20h8q21 16 36 16l4 -4q32 39 32 48t48 12q13 -36 20 -36l16 8v12l-24 36v12q12 61 28 68q3 19 20 32v56l-4 4 q0 8 -24 8l-4 12l24 28v8h4q0 56 -16 56l-4 4h-4l-64 -20l-40 8h-8l-4 -4q-9 7 -56 12q0 8 -20 8v40l-8 8q6 36 24 36l20 4v-4q35 20 84 20v-4l28 8l44 -12l4 12l40 -4h16q36 30 36 40l52 -28h20l8 40h8q8 0 8 -16q11 -12 32 -12v-4l40 20l24 -4l4 4v4q44 0 56 -24 q3 -16 24 -16q17 -17 32 -52l-4 -16l4 -4v-4q-11 -43 -48 -60l-16 12h-4l-24 -8v-4l-28 8q-20 -28 -40 -28h-4q-16 11 -16 20h-8q0 -12 -12 -12l-4 -4q-16 0 -16 -32h-4l4 -4v-8l-12 -40h-32l-12 -28v-4l4 -16l-12 -48q8 -16 8 -44v-16q-16 0 -16 -36q-8 0 -8 -12 q2 -11 20 -16l4 -20v-12l-4 -28l4 4h4l4 -88q0 -18 -64 -32l-24 -8v4q0 18 -44 72l-16 28v12h-12l-60 -60q0 -8 -24 -16q0 -23 -32 -32l-16 -12l-88 8q-45 -18 -60 -32l4 -4v-4l-4 -28h-8q0 17 -52 60q0 23 -48 28l-24 -4q-16 36 -32 36l-28 -12l-20 44l-12 -8h-8 q0 16 -16 16q0 28 -20 28l-8 28l4 20q-15 0 -20 36q-44 11 -44 44l4 20q0 48 -28 48q-12 0 -12 20l-20 4v20l-28 96q-9 0 -16 40q-9 0 -12 32l20 36l-4 36l8 40l-12 12v12q15 82 24 88l-4 24q0 43 28 112q0 44 32 44v20l16 48q-12 17 -12 32q0 24 24 24v12l-4 20l20 24v16 l-12 40q22 11 92 108l24 4h24q9 9 48 16q0 15 48 24l4 4l36 -8q22 40 44 40l68 -4l16 4q0 -22 80 -48v4l4 16h12q0 -21 24 -36q0 -14 60 -32q20 0 36 20l-12 24q3 15 28 32v8h4l-4 20q0 48 36 48l8 8v4zM128 1072v-12h4v12h-4z" />
<glyph unicode="h" horiz-adv-x="1231" d="M790 1413q28 -4 108 -100v-20q-20 -25 -20 -52l8 -8v-12q-13 -66 -36 -108v-16l20 -24l-8 -44l16 -52l-8 -56v-60l-16 -8q20 -22 20 -84l-12 -32l20 -44l-4 -4v-4l20 -108q0 -12 -16 -12l-4 -4v-4l4 -20l-4 -36q0 -20 8 -20l-20 -56q42 -83 44 -144l8 -24q9 0 12 -20h-4 l4 -4v-16q-9 -52 -16 -52l4 -48v-12q-28 -27 -40 -64q-37 -32 -76 -32q-7 0 -32 40l4 20l-20 76v4l20 88h-4l8 28q-20 27 -20 40l20 44v4l-8 12l4 36l-8 16l8 32l-16 40h4l-12 44l4 28l-12 20v24q0 13 12 28q-28 15 -28 44l-20 4h-4l-44 -8l-16 4l-28 -8l-24 4l-156 -48 l-12 4l-24 -8q-9 0 -40 36h-28l-36 -4l-12 4l-72 -8l-8 8h-40l-20 -20l8 -44l-20 -44q16 0 24 -64v-12l-8 -28l8 -64v-8l-4 -56q0 -61 32 -128v-12l-8 -8q0 -25 24 -44l8 -32q0 -64 -36 -64q-8 -13 -44 -24l-48 4l-24 -8q-15 0 -36 32l-8 8l4 36l-4 24l4 28l-24 56l4 24 l-4 4v4q9 43 48 88v20l-8 16l-4 112l8 36v4q-20 38 -20 64l20 116l4 4v8l-4 4l8 24l-16 52v32l-4 4l4 4v12l-8 32l4 16l-8 36q16 36 16 64l-12 44v8l20 32l-20 40l16 40v16l4 36q-3 27 -28 52l-4 12l4 28l-12 48q28 80 48 80h24l4 -4l4 4h24q40 0 52 -64q8 0 8 -12 q0 -32 -8 -32l8 -48q0 -16 -28 -76v-12l8 -32l-8 -80q10 0 16 -32l-4 -48l8 -24q0 -15 -16 -36v-24q24 -40 52 -40l20 4q8 -24 32 -24h20q11 12 32 12l68 24q14 0 48 -28l52 -8q0 8 12 8l52 -24q43 0 96 24q20 0 20 8l4 -4h8l44 16l40 -8h4l24 16v20l-16 28l28 64 q0 19 -20 60l4 20l-24 56l28 52l-20 52l4 16l-16 40l4 28l-4 28q0 92 56 92z" />
<glyph unicode="i" horiz-adv-x="876" d="M417 971l-1 -39l-13 -29q17 0 32 -14h8l4 3h4l12 -25h-4l-20 -51l8 -32l-12 -22l12 -36l-4 -18l4 -33h-8v-4l4 -21q-24 -35 -24 -47q13 -36 36 -62l-16 -33l-4 4h-8q0 -11 -12 -11l-4 -11l12 -25l-4 -22l8 -21l-4 -19l4 -3v-4l-8 -14l20 -91h-4l4 -3v-26q-12 0 -12 -25 l16 -33v-25l-24 -22v-3h8l-4 -4v-4l12 -29h4v-2q16 -5 16 -33q-24 -20 -24 -51l-12 -15q-27 0 -32 -14l4 -15q-10 -7 -56 -14v-4q-18 11 -48 14l-4 -3v-4l-4 4h-4l-16 -4q-29 13 -54 40q0 11 30 25v33q0 15 -12 29l8 43h-4l16 22l-16 18v22q15 22 24 22v14l-8 26h4l-4 3v29 l12 18l-4 15l4 14l-8 7v19l4 3l-20 25v33l-4 4l12 25q-6 0 -12 15l20 39v8l-12 14v36q5 84 28 84q8 0 8 10q-5 18 -28 29v8l20 39l-4 19v3l4 15l-16 39l4 11q-15 0 -28 44l16 21l4 80l4 4h4l-4 18l8 11v7l-24 25l12 29l-20 26l16 25v4l-16 50l4 11l-8 33l4 3v4 q-10 25 -24 25v22l-4 25l8 8l-8 25l-6 22q1 43 50 43l12 11q30 -4 40 -11l40 11h8q30 0 40 -22l16 -7l4 4h4l28 -37l-4 -14l40 -51q-2 -12 -48 -47v-3l4 -26l-8 -7l8 -76v-11l-8 -7q5 -18 12 -18l4 3v-18l-8 -11h4l-8 -14l12 -29l-28 -18v-11z" />
<glyph unicode="j" horiz-adv-x="1102" d="M725 1378h8q48 -30 48 -40q20 -14 20 -76q0 -9 -24 -28l-12 -48l4 -24v-8q16 -2 16 -12v-20q0 -14 -16 -32l4 -32l-4 -60v-12l-16 -24l4 -16l-4 -4v-4l8 -32l-4 -4v-4l4 -4v-4l-4 -24l16 -16l-4 -20l4 -24q0 -12 -12 -24l-8 -96q0 -12 12 -12l4 -4v-12q-12 -16 -12 -44 l4 -4l8 -20q12 0 12 -20v-4l-40 -68l-16 -84q8 -24 44 -52l-4 -4l4 -4q-8 -70 -20 -84l4 -16q-8 -11 -12 -56l8 -8v-4q0 -48 -24 -48l-36 -40l-8 8h-4q0 -10 -32 -32q0 -24 -44 -44l-12 -44h-4l-20 4v-4l-4 4h-4q-13 0 -28 -12l-24 4q-40 -5 -40 -40l-44 16l-4 -4h-4 q-24 10 -24 24l-64 -16l-80 12h-4l-12 -12l-4 4h-4q-8 0 -20 -40h-8l4 40v8l-8 8l8 20l-4 -4h-12q-20 0 -20 12h-8v-8h-4q-23 0 -68 64q-9 0 -40 52q-13 0 -20 64l-8 8l8 28l-4 24l4 24l-24 40l4 20q0 20 -8 20l24 40l-4 32l4 4h4l-12 48q28 0 40 48h20q26 36 108 68l20 -4 q44 3 44 24h12q52 0 52 -92v-4q-24 -56 -48 -56q0 -15 -44 -32q-12 -38 -36 -60l4 -4v-8q0 -8 -52 -20l-8 -8l12 -24q-16 -58 -28 -68v-4q0 -16 36 -48l4 -4q0 -5 24 -8l8 -20l-8 -8l4 -4l4 4h4l4 -4h4l12 4v-4l64 -24l40 16l40 -16l16 4l12 -4q0 16 48 16h16l24 -20h24 l-4 20q35 32 52 32l76 32q3 32 20 32v16h-8l20 44l-4 36q15 0 24 112q-16 4 -16 28l4 4v4l-4 24l8 32l-16 60v8h-4l8 32v8l-4 4l12 20l-12 28l8 24q0 20 -8 20l4 4l-4 20v36q0 8 16 8l-4 20q7 0 20 28q-20 75 -20 104v12q36 40 36 76h-4l-16 20l4 20q-24 24 -44 100 q-12 0 -20 16v16l8 32l-8 24q0 28 56 92q0 7 44 20l12 -4zM217 18v-4h12v8zM-415 -162h4l-8 -8h-4z" />
<glyph unicode="k" horiz-adv-x="1231" d="M844 1405l21 -4h12l30 4q17 -16 29 -72v-8l-8 -34l4 -25l-8 -9v-4l4 -4v-4q-13 0 -13 -59l5 -13q-47 -13 -47 -38v-13q-19 0 -38 -25l-12 8h-5q0 -23 -17 -33q-9 0 -21 -34h-4l4 -21l-25 -72h-8l4 51q0 38 -55 38q-13 -38 -38 -38q-13 -6 -13 -34q-42 -30 -42 -89v-25 l-8 -8l-26 4l-16 -21l4 -21q-17 -1 -17 -17q-33 -9 -42 -30v-29q34 -59 34 -72v-4q-26 -15 -26 -38v-26q21 -23 21 -42h17l9 9v46l21 4q8 0 8 -25q13 0 13 -13q11 -12 46 -12q23 -26 63 -51q0 -8 26 -30l17 -71q38 -10 38 -34h4l4 4h4q21 0 30 -63q7 0 21 -38h4l4 4 q3 -21 43 -38l29 -34l13 -33v-5l-5 -4v-4q15 0 22 -76q8 0 8 -21q-4 -51 -34 -51l-12 -4q0 8 -30 17l-25 -9q-29 19 -59 60l-5 -5h-4l-12 13l-5 -4h-4q-22 0 -29 50l-38 13v13l4 4l-4 4v9q0 30 12 71q0 9 -33 21l-26 34l9 25v5q0 7 -26 12q0 16 -46 34l-46 55l-5 -4l-4 21v4 l4 4q0 46 -54 76q-3 13 -38 34q0 30 -68 42q-25 0 -51 -25l-25 13h-4l8 -13l-8 -34v-17q-16 0 -34 -25q-42 0 -42 -17q0 -9 -21 -13l-4 5q-26 -31 -26 -43l5 -4l-26 -25l13 -63l4 4h9v-13l4 -17l-9 -29l9 -17l-13 -25v-13l4 -4v-5q-16 -2 -16 -33l4 -17l-21 -64l12 -21v-8 l-21 -34h4q0 -21 -38 -42l-16 4l-5 -4h-4q-38 12 -38 59v9q-12 0 -25 16v9l8 12v9l-12 38l8 17l-21 34l8 33h-4l4 5v8l-8 42q21 29 21 42l-13 21l5 26l-5 17q37 15 38 25v13q0 65 -21 84v4q42 37 42 47q-16 38 -16 59v4l4 17l-30 46l5 21v17q0 50 -17 68l8 25l-13 21v9l13 4 l-4 21v4q8 24 8 72l13 17v4l-17 17l4 29l-4 85l9 8v9q-17 0 -17 25l12 46v38l-21 89q32 59 59 59l38 4l38 -42q0 -19 26 -34l-5 -42q0 -50 9 -76q0 -43 -30 -80v-13q30 -15 30 -38v-4l-13 -42l13 -21l-4 -25q0 -49 29 -72q0 -9 -13 -9v-21l5 -4l-21 -63v-34l4 -21l-4 -4 l33 -9l34 4q2 -16 13 -16v8l-5 4v4q18 12 47 60l38 29l4 -4h21q0 8 34 38q23 20 29 88l26 47l4 4l4 -4h25l43 34q18 0 63 38h13v4l-5 25l26 42l-5 5q18 24 72 42q0 55 30 55q45 0 55 38h4l-4 38q30 71 37 71l17 -4q26 3 26 17z" />
<glyph unicode="l" horiz-adv-x="1269" d="M88 1357l32 -12l12 4q0 -8 20 -8l20 -16l-4 -28h4q12 0 12 -8v-36l12 -56h-4l4 -4v-4l-4 -4l4 -20v-12q0 -84 -12 -84h-4v-8q16 -2 16 -12l-32 -160q-8 0 -8 -24q0 -52 20 -52l-8 -72q16 -26 16 -44l-8 -24l8 -40l-12 -12v-4l4 -36l-4 -4l4 -20v-36l-4 -48l12 -12v-16 l-4 -4l4 -4v-8l-20 -24q0 -26 16 -68l-12 -8l4 -16q0 -28 -8 -28l8 -16l-4 -20q15 -7 20 -24q-8 -24 -20 -24v-4h4l16 4q16 -4 16 -24l-4 -4v-4l4 -24l-4 -4h12l64 4l4 -4h4l92 20q0 7 20 12l16 -8l12 4l48 -12h24l4 -4l24 16h8l12 -8l28 4q7 -16 32 -32h24q5 -32 16 -32 l16 16l-4 4v12l8 8h4l4 -4l28 16q6 -28 24 -28v4q11 64 40 64l24 -16q18 0 44 32l12 -4v4l4 -4h4l20 8q49 -25 56 -48q40 -31 40 -72l8 -8v-12q-27 -47 -76 -60h-4q-24 0 -24 8l-4 -4h-24l-4 4q-37 0 -68 -36l-24 -4q-10 16 -32 16q0 28 -32 28l-12 12h-20l-4 -20h-8 q-8 0 -8 12q-24 -4 -24 -12l-16 4q-17 0 -56 -28h-12q0 20 -24 20v-4l-12 4l-52 -12h-12l-32 16q-16 -2 -16 -12q-10 0 -12 16h-4l-12 -8l-68 -4q0 -12 -12 -12q-24 4 -24 20l-16 8l-12 -4l-8 8h-4l-32 -8h-8q-7 0 -12 28l4 4l-4 4h-4q-8 -40 -40 -40h-28q-25 0 -40 80l4 4 l-4 12l-8 8l4 12l-8 8l32 44v4l-12 16v8l4 28q-16 0 -16 8v20l12 16v12q-16 0 -16 24q16 51 16 76v4q0 6 -16 12l-4 4v12q36 36 36 44q-28 56 -28 92h-4v-12h-4q-24 15 -24 44q17 11 24 56v4l-4 4l12 24v4l-8 24l4 28l-8 24l8 16l-16 104l12 28l-8 16l4 24l-4 80l-4 4l8 32 h-4q7 48 32 48v8l-4 4q0 8 -32 32q0 18 -16 36v12h8l4 12l-4 12l12 32l-12 60q0 8 48 12q0 20 32 20z" />
<glyph unicode="m" horiz-adv-x="1287" d="M892 1340q44 -19 44 -52l12 -20l-4 -32q16 -37 16 -56h4l-8 -64l8 -28q-16 -26 -16 -44l20 -60l8 -12l-8 -44h4q-13 -44 -32 -44v-8h28v-8l-4 -16q8 -16 8 -44l-12 -12l4 -28l-8 -24q12 0 12 -8q0 -39 -20 -72l-12 -64l24 -32l-4 -32l4 -4l4 4h8l16 -48l-16 -40l4 -32 q-2 -32 -12 -32l-28 4q-12 -14 -12 -48l28 4q6 0 12 -16l-4 -28l16 -28l-8 -60q20 -39 20 -56l-8 -36l12 -52l-20 -24q-15 0 -32 -28q-52 0 -60 32l4 16q-14 8 -20 24l4 20q-6 44 -16 56v12q12 16 12 44h4q0 16 -20 16v8q28 22 28 32q20 0 20 8v20q-20 0 -20 28q0 11 20 32 v20l-16 28l4 4v4l-8 24h4l-8 24q0 8 12 8l-4 20v8q32 42 32 52v16q-22 32 -28 68q-8 0 -8 32l-8 8v8q24 16 24 48q-12 4 -12 24q24 20 24 80l16 12v20q-32 41 -32 64l4 28l-4 4l16 88l-20 60l-4 4h-24q-10 0 -24 -48l4 -24q0 -50 -28 -76l4 -12l-16 -16h-4v-4l8 -12v-16 q-14 -11 -20 -76q-6 0 -12 -16h4l-12 -20v-8l4 -4l-4 -4l4 -20v-28q-17 -36 -48 -36l4 -40v-8q0 -23 -16 -40v-36q-6 -68 -28 -68l-12 -4l-12 4l-4 -4l4 -4v-12l-20 -36q0 -8 20 -8l4 -4v-4q0 -51 -40 -88l8 -28q0 -18 -40 -24l-4 -4v-16l12 -16l-8 -28l12 -28 q-2 -35 -24 -72l4 -24l-44 -76q0 -9 -32 -12q-52 13 -52 52l4 12l-4 -4h-4q0 22 -28 76l-12 8l4 12l-4 44l12 36q-16 6 -24 20l4 24l-36 52v24l4 20q-6 0 -28 40l4 16l-4 4v4l8 36q-6 0 -16 28l-4 4q0 12 -12 12l-8 16l4 4v4q-16 20 -16 32l8 12l-12 44q-9 0 -12 32 q-8 0 -8 12q-12 0 -12 20l4 4h4l-4 4l8 60q-52 16 -52 32l-4 24l16 48l-24 12l-4 -4l-16 36v16q-15 0 -24 64q3 12 16 16v8q-16 18 -16 48q-15 12 -28 12h-4l4 -4v-4q-24 -9 -24 -20l4 -16q-6 -24 -12 -24l24 -56q-2 -37 -12 -48v-4l12 -16v-12l-48 -72h-16l-8 8v4l12 20 q-23 0 -32 80l-4 4v4q0 66 32 100v8q-22 0 -24 36q-12 0 -12 8v4l4 20l-4 16l4 44h-4l8 40h-4l4 4q-5 44 -12 44q16 41 32 52l28 8h8q112 -6 112 -60l-4 -12l4 -16l-8 -32q16 -7 32 -44l16 -16v-12l8 -76v-16q18 -17 36 -88l-4 -4v-4l12 -32l-4 -12q6 -100 48 -100 q16 -15 16 -32l-8 -8l4 -20l-4 -44q12 0 36 -64q20 -14 32 -88l16 -40v-48q36 -40 36 -56l4 -52v-12l24 -8q27 0 48 36l20 12l-4 4v4l4 4l-4 4v8l4 4l-4 4v12q20 24 40 24l4 12q-14 0 -20 44v12q0 14 16 32l-4 32q38 60 52 60l4 4l28 16v8l-4 -4h-8l-20 4v-8h-8v4l-8 52 l40 44l-4 4v4q8 24 36 40h4l12 -8q21 0 24 12v4h-4l-4 -4q-40 0 -40 28v32q0 19 36 48l20 28l-12 32l8 8v16q-12 0 -12 8v4q24 12 24 64v8q12 0 24 48h4l-8 32l8 8l-4 4q25 10 36 32l-4 4v4l8 32l-4 16v4q58 71 76 72zM84 808q40 0 40 -48l8 -40v-4l-8 -12v-4l8 -28l-16 -44 l4 -104l-8 -24q12 -12 24 -108l4 -4l-8 -12l4 -20v-4l-4 -16l4 -12h-4q16 -51 16 -96l-8 -8v-36l16 -8l-8 -16l4 -24v-4l-8 -12v-28l-20 -76l-88 -16l-8 12q20 29 20 44q-40 35 -40 104l-8 40l8 32l-4 4l8 44l-12 44q10 2 20 28q0 18 -20 40l24 124l8 8q0 119 -24 136 q8 60 16 60l-4 4v12q0 16 28 48q13 0 28 24h8z" />
<glyph unicode="n" horiz-adv-x="1220" d="M844 1394q39 -11 40 -20v-8l-12 -40q23 0 36 -92q-16 -6 -16 -28q12 0 12 -12l4 -4h4l-12 -60q20 -3 20 -12v-16q-12 0 -20 -116l8 -80l-8 -60q0 -14 20 -40l-4 -4l-24 -28l8 -48q0 -45 -36 -60q40 -53 40 -64q0 -21 -12 -36v-4l16 -4v-4l-4 -4l4 -4v-12l-8 -12v-64 q-20 -18 -20 -28l8 -8l-4 -20l4 -12q-4 -53 -16 -88v-16l4 -4q-12 -26 -12 -68q32 -36 32 -64v-8q-12 -12 -32 -72l8 -8q0 -43 -12 -52l-40 16l-24 -20l-40 20l-24 -4h-4q-20 9 -20 40v36l4 4q-9 28 -20 28l-16 -4l-20 20q-4 44 -36 80q0 40 -36 76q-36 68 -44 112 q-16 8 -16 44q-20 27 -28 100q-32 80 -44 80q-20 4 -28 16l4 20v4l-4 4l4 4v4l-12 16l-24 -4h-4l-4 20l4 4l-28 20l4 16h-4l4 4v16l-20 4v8h8l4 16q0 7 -48 48v36l4 4q-52 114 -64 116q-8 0 -8 36l-16 16l4 20v8q-12 0 -12 24l-24 12l-4 -4v-32q0 -18 -24 -44q11 -11 20 -60 l24 -32q-10 -32 -32 -40l4 -4v-52q0 -15 -16 -36q13 -10 36 -12v-28q1 -28 8 -28l-4 -4v-40l-4 -4v-4l12 -12v-20q-16 -20 -36 -20v-8h8v-16l-4 -32l16 -60v-40l-20 -16v-12q0 -12 16 -12l4 -12l-20 -48q22 0 28 -36l8 -8v-28q0 -14 -16 -32l16 -28v-20h8q-3 -24 -8 -24 l8 -24v-8l-4 -4l12 -24l-4 -4l4 -16l-4 -44l8 -24v-12q-16 -19 -28 -60l-20 4h-16l-24 -16h-24q0 19 -32 28q0 12 -12 12q-39 62 -68 68l-8 12l16 16l12 4q0 20 8 20l-4 24l8 72l-4 4v4l8 48l-4 12q23 10 36 28q17 0 24 20v12l-20 24l8 32q-9 28 -32 28l-12 40l36 48v16 l-8 12q1 21 28 48v8q0 24 -28 24l-12 20l8 32l-8 32l4 28l-4 40v16l8 8l-4 28v4q16 21 16 44q-16 6 -24 20v4l8 32q0 33 -20 88l8 8l-12 24l4 28v12l-4 20l12 12v12h-8v4l4 24l-4 20l8 40q0 28 -8 28q0 41 68 52q0 24 36 24q35 3 44 12h12q0 -16 32 -20q16 -16 16 -32 q17 -2 40 -60l-12 -20v-4l8 -8h8l4 4h4l24 -68l-4 -12q32 0 32 -68q-18 -8 -20 -16q21 0 28 -52q9 0 16 -16l-12 -24l4 -4h4l28 4l20 -24l-4 -4v-20q0 -21 12 -36l-4 -4q25 0 48 -64q0 -30 44 -64q6 -80 56 -156q52 -33 52 -72q36 -13 36 -44v-4q-16 -15 -20 -44l-4 -4 q5 -13 32 -36l4 -4v-20l-4 -16q8 -28 24 -28v-24l20 -88l32 -12l16 4q3 -24 20 -24q14 0 20 36q8 0 8 12l-24 36l4 16l-4 4v4l4 12h-4l-4 4l-4 12h-4l24 112l-12 24v16l4 4l-8 20l24 64q-16 0 -16 20q-12 0 -12 12q-16 0 -16 8v32q0 13 12 28v4l-24 68q0 18 16 40l-8 28 l16 72l-8 16l8 24l-4 4v20q0 26 -20 76l-8 32l12 4l-8 28q2 16 12 16q0 57 -24 72l4 28l-12 28q40 14 44 28v12h-20q-16 8 -16 24l4 40l-4 4v4q22 52 80 52zM756 1082v-8h4v8h-4zM800 114v-8h8v8h-8z" />
<glyph unicode="o" horiz-adv-x="1318" d="M380 1392l20 -8l8 8h16q8 0 8 -12l4 -4h32l4 4l4 -4h4l24 16q44 -8 48 -16l4 4h8q20 -1 20 -8l52 16q0 -33 80 -40q7 -24 24 -24l16 4l28 -24q48 -17 48 -60l68 -72l16 -24q0 -28 36 -44q-2 -36 -8 -36l40 -48v-48l-4 -16q16 -21 20 -56h8l4 -12q-4 -36 -12 -36l12 -44 l-8 -32l4 -4v-4l-4 -24v-16h8v-20q12 -15 12 -36v-20l-4 -4l12 -68q-14 -40 -36 -40v-4l4 -24q-28 -50 -28 -152q-22 -44 -52 -44q0 -20 -40 -92l-16 -36h4q-16 -68 -60 -68q-33 -44 -76 -84h-8l-12 4v-4l-16 -28l-4 4h-4l-16 -4l-16 12h-8q-29 -20 -44 -20h-4l-36 16 l-28 -4l-96 4q0 9 -32 20l-12 -4q-24 0 -24 12q-60 -13 -60 -44h-12v36l-20 20l-20 -4q-24 36 -64 36h-4l4 20q-28 25 -28 36t-28 32v8l8 24q-39 48 -56 112l-4 4q-2 13 -28 36q0 21 -20 52l-4 24l4 44q-40 79 -40 112l4 16l-4 24q28 53 28 88l-20 8v4l4 16l-4 16 q0 22 28 24v8q-16 0 -16 24q7 16 16 16v16l-8 24l8 16l-8 28l20 72v20q14 1 40 84q13 6 24 60q23 52 52 52l4 -4l36 88l36 20l20 -4q36 12 36 36q67 26 84 48zM296 1316v-12h8v4zM440 1244q0 -16 -12 -16l-16 12q-20 -7 -20 -20l4 -12l-12 -4q-20 12 -40 12h-4 q-11 -1 -36 -56l-136 -24l-4 -4v-4l8 -32v-4q-14 -24 -32 -24v-28q0 -11 20 -40l16 -40v-4q-28 -34 -36 -60q-28 -20 -28 -36l4 4h4l4 -4h4l-20 -40l8 -40l-8 -28h4l-4 -4l12 -60l-8 -16q4 -51 16 -72l-8 -24l16 -60q0 -21 -16 -40v-8q8 -15 48 -32l12 -72v-16l20 -28l4 4h4 q21 0 28 -40q15 0 56 -36q17 0 72 -40q8 -28 32 -28h12l4 4l32 -24v4l48 -16l28 20l44 -4l32 28h4l24 -12q48 12 60 36q40 23 40 60q50 64 84 80l36 60l8 36l-4 16l16 60l-8 24l16 40l-4 32l4 28l-4 16l8 16l-12 44q20 35 20 60q-16 0 -20 56q5 0 16 40l-12 28v4l4 4 q-4 20 -16 20q0 48 -28 48l-12 44v12h-20q-17 -16 -32 -16l-4 4v8q16 17 16 32v12q0 39 -28 68l-16 -4q-26 41 -72 60v16h-20l-4 -4l-4 4l-20 -4l-48 24h-8l-8 -8l4 -12q-16 -8 -16 -20l-24 4l-12 -4l-16 8v-4q-13 0 -16 32l-4 4h-24z" />
<glyph unicode="p" horiz-adv-x="1179" d="M346 1408l52 -32l88 -28q28 5 28 24h-4l4 12h24l80 -24q13 -3 28 -52l16 -8v4l24 -8v4q15 0 52 -28h8l12 4q20 -20 44 -116q24 -9 24 -32q0 -20 24 -48l-4 -24l40 -60v-4l-8 -32l4 -28l-20 -84q-10 0 -24 -48q-31 0 -36 -52q-11 -1 -44 -68q-26 -9 -36 -40q-24 0 -24 -12 l-20 4h-4q-18 -18 -44 -20l-12 4q-2 -28 -16 -28l-20 4l-72 -8l-4 12h-8q-19 0 -36 -28l-16 -4h-4l-20 32h-4l-52 -20q-33 24 -80 24l-8 8l-28 -12l-12 4q-16 -19 -16 -40l12 -12v-4q-22 -29 -68 -56v-32q0 -66 -24 -66v-12l8 -24q16 0 16 -8l12 -36l-12 -84l20 -32v-40 l4 -4q0 -19 -28 -24v-8q8 -8 16 -48l-4 -4v-4l4 -4v-4q-22 -32 -32 -32v-24l-8 -8l-8 8l-4 -4h-4q-12 0 -72 28q-32 0 -32 12v28l-8 12l4 20v4q-12 15 -12 36v32q28 22 28 40v8l-12 16l12 32q-3 52 -8 52q-16 32 -48 36l-4 4v4q45 16 48 28q0 38 -12 38l-4 4v4l12 28 q7 40 12 40l-16 68l12 32q0 22 -16 48q12 0 12 56l-8 40l12 32q-8 18 -16 20q5 23 20 40v28l-16 36l-4 20v16l8 24l-4 36l16 80l-4 44l8 28l-24 112l4 4l-4 4v56q38 26 44 60l8 8l8 -8l4 4l4 -4h72l20 12l44 -12l36 12l24 -16q27 2 72 28h4zM266 1248q0 -29 -68 -36l4 -28 v-16l-4 -4l4 -4q0 -48 -36 -48l-16 8q-16 -4 -16 -24l4 -56l-8 -24v-8q20 -25 20 -60l-12 -8l4 -28v-4q-11 -11 -16 -40q0 -30 40 -116v-4h8l12 8h16q17 -12 32 -12l16 4q20 -5 20 -16h8l36 24l4 -4h4l4 4l48 -8q0 13 40 24q48 -13 48 -24l40 16l20 -4l24 8l16 -4l20 8 l24 -8h4l16 12l4 -4h4q0 16 32 32q0 69 44 80q21 15 24 40l-4 16v8q0 7 20 12v8h4l-20 32l-24 76l4 20q-27 44 -28 80q-17 16 -40 16v-4q-17 2 -28 36l-40 12q-18 -32 -44 -32q-16 0 -32 24l-24 8h-20q-21 -16 -36 -16h-8l-32 16q-9 -8 -48 -8v-4q-16 0 -16 20l-20 4h-32z " />
<glyph unicode="q" horiz-adv-x="1283" d="M450 1410l16 -20l24 4l44 -32l60 20l32 -20h28l4 4q23 -7 48 -32q27 0 52 -44q56 -16 56 -52v-8q28 0 28 -28q7 0 12 -40q44 -27 44 -72l28 -48v-60l28 -52v-4l-4 -4v-4q16 -6 16 -28v-36l12 -56v-12l-12 -32l4 -24l-4 -4v-4l4 -4v-4l-8 -12l24 -64v-4l-16 -24l4 -16 l-8 -8v-8q0 -13 12 -28v-12q-24 -13 -24 -68q-6 0 -16 -28q-16 -4 -16 -16q6 -32 20 -32l4 -16q0 -21 -24 -36q-13 0 -36 -24q-18 0 -24 -40q-15 0 -24 -40l4 -16l-36 -40l-20 -60l8 -12h-4l4 -4v-8l-4 -4l28 -60q18 -73 36 -100l8 -8l20 -8q5 -13 32 -24q60 9 104 56l4 4v4 l-16 32l16 8l24 -8q24 28 44 28h8q27 0 60 -52v-28q0 -43 -52 -80q-2 -31 -36 -60q-10 -56 -44 -56h-12l-44 4q-11 -20 -32 -20q-121 40 -124 56q-40 38 -40 72q-28 33 -28 76l-52 28l-4 12l12 32q-13 28 -40 28l-16 -4l-20 4l-20 -4l-12 4l-52 -20l-24 4q0 -8 -48 -20 q-51 0 -88 24h-4l-36 -8q-30 32 -92 48q-4 17 -52 44l-44 84q-35 9 -48 32v28q12 18 12 36q0 8 -48 52q-26 100 -48 100l4 4l-24 88v4l8 36v32l-8 32q14 4 20 28l-4 36v16q-9 0 -16 16l8 20l-8 80q24 46 24 60l-8 8v4q8 37 20 40l-8 24l32 72q11 0 24 52q7 0 16 28l24 8v28 q24 16 24 28h4l-8 24q0 32 32 32q52 8 52 28q0 16 56 36q48 0 56 32q12 0 12 16l4 20l4 4h4l28 -12zM490 1258l-72 12h-8q-15 -12 -28 -48l-36 -24h-4l-12 8h-4q0 -20 -36 -20l-4 4l-24 -44q-12 0 -40 -88q-30 -26 -56 -36l-4 4h-4l-4 -4l4 -28v-16l-12 -44q11 -32 24 -48 q-40 -4 -40 -40q-15 0 -32 -64q16 -24 16 -36v-8l-8 -12l4 -24l-4 -4v-4l4 -12l-4 -32l12 -40l-4 -24v-4q0 -16 20 -52l-16 -8l28 -108q38 -107 88 -136q1 -27 52 -72l12 -20h8q0 12 12 12q49 -10 84 -36l60 -16q5 -17 68 -32v-4l36 28l16 8h36q0 16 40 16l4 4v28l-8 12v24 q-24 12 -48 12q-10 32 -32 32q-38 48 -64 48l-20 -4l-32 12l-20 -12q-24 3 -24 8q-16 0 -28 -52h-8q-6 0 -16 28q-32 0 -56 36v16q18 39 48 52h40q0 25 48 32v4l4 -4h32l32 -12l24 8q1 -10 84 -48q11 -37 48 -92q0 -13 32 -48l24 -4q52 54 52 64l-4 20l20 16l-4 4 q0 40 44 88v8l-12 60q24 18 52 104l-20 68l32 88l-4 4l8 8q-36 0 -36 36q-8 0 -8 72l-8 24l8 40l-36 72l4 16l-40 60q0 56 -32 56q-66 39 -104 76l-12 16h-12l-28 -8v4l-4 28h-20l-12 -8h-4l-28 16zM698 214l16 -12l4 4q-6 16 -12 16z" />
<glyph unicode="r" horiz-adv-x="1303" d="M216 1361q64 0 64 -20h4l4 4l56 -12l32 4l12 -4q0 12 36 20l84 -4l4 4h4l16 -4l16 4l20 -8l4 4q48 -6 48 -16l68 16h4v-12q0 -38 60 -80q12 0 12 -16l16 -8l36 4q16 0 16 -24q24 -18 24 -40q32 -24 32 -52l-4 -4l40 -60v-16l-20 -68l16 -32v-24q-3 -44 -48 -108 q0 -11 -36 -64q0 -68 -40 -68q-16 -15 -16 -32l-4 -4h-4l-12 4l-4 -4v-8q33 -66 44 -104v-52l-4 -4l8 -32l-8 -28l20 -48l-16 -56q1 -32 8 -32l-4 -4v-4l4 -16l-4 -32q0 -36 72 -36q32 11 32 20h4q24 -13 40 -48l24 -4l4 4q40 -52 40 -80q-13 -76 -56 -76q-28 -3 -28 -8 l-4 4h-4l-16 -4l-24 16q-15 0 -48 -28h-4l-28 8l-20 -4q-20 84 -40 84h-4q-12 0 -12 -12h-20q1 20 8 20l-16 24l-20 32q4 60 16 76l-12 24l4 20v16l-20 44v8l8 12v12l-8 16l12 44q0 59 -28 96q0 17 -56 52q0 40 -32 40q0 9 -32 28v8h-12l-40 -12l-40 12h-20q-8 0 -8 -12h-8 q-29 0 -48 -20l-8 16h-4l-4 -4l-40 24q-44 -8 -48 -16l-12 4l-56 -60q-16 0 -16 -24h-4l-4 4h-4l-4 -4v-12q25 -22 68 -116q-17 -36 -28 -36l4 -4v-4q-11 0 -20 -64l-4 -4l24 -100h4v-8q-16 -36 -40 -64l4 -28v-8q-24 -64 -80 -64l-16 -4q0 11 -32 16l-20 36l8 12l-16 52 l8 40l-12 28l4 40l-12 52v4q1 8 40 24l4 24q-20 27 -20 40v12q3 24 12 24q-3 12 -16 16l4 36l-4 28q32 31 32 128v48l8 8q-8 11 -8 36h-4l4 4v8l-4 16l8 16l-4 4v44l4 4l-8 28l4 52l-8 44l4 12q0 27 -20 48l4 4v52q12 0 12 12l-4 4q4 76 12 76l-12 20v36q0 13 12 28v40l4 24 l-4 20q12 28 32 28h12l20 -4v4q18 -8 52 -8zM436 1181l-4 4h-4l-12 -4q-10 8 -40 8v4l-68 -44l-64 32h-16l-28 -32l-28 -20l12 -84q-32 -55 -32 -104q32 -55 32 -80l-28 -32v-12q0 -24 16 -24l20 8q0 -18 60 -40l28 12l12 -4q49 17 52 24q0 24 24 24h36l56 -28q3 -11 20 -20 q0 6 32 16q0 12 16 20h4q16 -8 16 -24q15 0 36 24h8l28 -20h16l16 4l16 -4h4q15 16 32 16q0 18 44 24l12 4q8 23 36 44q24 46 28 72l8 8v48l4 16l-52 76l-12 24l-4 -4q-48 5 -48 16l4 24l-4 4q-20 -12 -40 -12h-12l-44 32h-8q-12 0 -12 -40l-12 -16l-4 -4h-4q-12 9 -12 40 q-38 10 -68 32l-20 8z" />
<glyph unicode="s" horiz-adv-x="1169" d="M496 1400q50 -28 64 -28h28l16 -12l28 4v-4q0 -8 28 -8q0 -12 24 -12l12 -16l-4 -4l4 -4v-8l-4 -4q2 -11 20 -16l24 8h4q0 -18 40 -20q23 -36 48 -36q0 -13 12 -28v-24l8 -48q-11 -19 -16 -88q-9 -3 -24 -56q-25 -12 -36 -32l-4 4h-4l-4 -4h-4q-16 4 -16 16l4 28 q-14 0 -20 40l8 12l-4 12l-40 -4l-4 4v4l8 28q0 42 -52 68l-8 24q-14 0 -56 48l-20 4l-36 -16l-20 12v-4l-4 4l-96 -20h-20q-8 0 -12 24h-12q0 -12 -8 -12l-20 12q0 -8 -40 -8l-20 -40l-20 4l-16 -20l4 -4v-4h-8q-37 12 -64 12v-8l4 -4l-4 -4v-4l4 -28q-44 -66 -44 -96 q0 -40 28 -60q0 -13 -12 -28q12 0 12 -20l56 -68q15 0 36 -24l40 -24q49 0 84 -32q23 0 84 -32h12l32 12q91 -28 152 -36q84 -38 84 -80q0 -14 16 -28q0 -12 36 -12q56 -30 56 -72l20 -40l20 -92l4 -4q0 -66 -20 -80l12 -48q0 -58 -48 -72q0 -12 -16 -12l-36 -36 q0 -34 -44 -48l-28 -44q0 -16 16 -16v-4l-12 -16l-28 4h-8l-8 -8l-16 4l-40 -4l-12 4q-39 -20 -100 -20v4l-12 -12h-4q-20 0 -44 16l-20 4h-28l-28 -4q-2 8 -20 16l-40 -16q-21 0 -44 32q-57 9 -84 44h-4l-16 -12h-8l-4 4l-4 -4h-8q-2 21 -56 60q-3 24 -24 24l-4 -4 q0 6 -28 20v32l-8 28l4 4v4l-12 24l8 32l-4 36l12 20v8l-12 20q25 31 36 68l12 -4l28 4q0 -8 44 -12l12 -20q-3 -51 -12 -60l4 -4v-4l-16 -60q0 -23 48 -48q33 -48 56 -48q23 -24 40 -28q16 0 16 -16l16 -12l24 8h12l20 -20l44 12l16 -8l24 12h12q0 -9 16 -16h8q17 16 32 16 h8l12 -8h8l32 4l32 -4l32 36l-4 28v20q0 6 16 12l32 -8q0 9 48 12q0 18 40 24l-8 68q18 0 28 16q-7 0 -12 20l12 44q-10 18 -20 80q-12 0 -12 32l-60 24l-4 -4h-4q-20 2 -56 44q-36 12 -52 32l-12 -4q-12 0 -12 12q-17 16 -32 16h-12q0 19 -32 32l-12 12v4l-40 -8v4l-44 -8 l-12 12h-4l-4 -4q-39 12 -44 20l-4 -4h-12v8l-8 8h-12l-32 8l-16 -4l-4 4h-4l-12 -4q-10 21 -68 40l-8 28h-24q0 28 -24 28v24q-17 0 -24 36q-34 8 -40 28l4 4v20l-16 32l28 72l-4 4v4l4 12l-12 32q0 14 28 60q0 28 28 44q0 20 40 44l20 48q27 0 76 60q28 0 28 28q9 7 56 12 q0 7 28 8q0 -10 32 -16h8q22 20 36 20l72 -12q7 16 28 16zM196 1292v-8h4v8h-4z" />
<glyph unicode="t" horiz-adv-x="1256" d="M440 1380l4 -4h20l4 4l48 -24q19 12 44 12l52 -12l52 12l12 -12h12l12 8h20q29 -20 56 -24q0 8 24 16l48 -12l16 24q64 -11 64 -24l20 -44l-4 -16l4 -24l-84 -48q-32 -28 -52 -28h-28l-20 16l-4 -4h-4l-4 4h-4l-32 -12q-68 0 -104 20q-9 -24 -16 -24h-4q-15 12 -28 12h-8 q-12 -4 -12 -24v-20l8 -12v-8q-20 -48 -20 -92l8 -32l-4 -16q15 -44 40 -44q0 -22 -28 -32l-4 -4v-40l20 -88l-16 -64l4 -24l-4 -36l16 -72v-8l-8 -44l4 -48q-20 -10 -20 -32v-8l16 -16l-4 -20l8 -24q-12 -39 -12 -80q5 -60 12 -60l-8 -52l16 -88l-4 -16l8 -8v-16 q-12 -12 -12 -28q-8 -20 -52 -20q-15 -20 -32 -20h-4q-7 0 -16 24h-8v-8q-12 0 -12 -8q-56 25 -56 52q16 21 16 40h4l-8 32l4 16l-4 16l28 100q-12 4 -12 24v44q-8 16 -20 16v8l32 28v4l-8 16l8 48l-24 60l12 72v24q-12 15 -12 28v28l-4 4v4l4 4q-12 0 -12 12q12 20 20 104 l-8 36l4 12l-12 36l16 32l-4 24l4 4v4l-8 64q16 0 16 24v44l-4 4v4l4 4h-4l8 20q0 59 -32 80q-10 20 -32 20l-52 -24q-17 0 -40 16h-4q-23 -16 -36 -16l-16 4l-36 -4l-4 4h-4q-18 -8 -20 -16q-16 0 -16 24h-4l-12 -8h-8l-84 24q-16 39 -16 96l12 12h-8q0 25 44 40 q0 12 20 12v4l4 -4h24l44 8h36l52 -24q16 0 60 20l20 -12l32 4l24 -16q37 0 76 32z" />
<glyph unicode="u" horiz-adv-x="1273" d="M884 1428l8 -8l-8 -16q15 -40 48 -40v-4l-4 -4l4 -4h4l4 4l12 -20q-5 -16 -24 -16l-8 -28l16 -40q-12 -35 -28 -40q15 -79 40 -120l16 -48q-26 0 -36 -80l-16 -16q6 -24 32 -24v-4l-8 -12l4 -16l-16 -24v-4h8v-16l4 -28q-12 0 -12 -12l-16 -8l8 -32l-8 -16l4 -16l-20 -92 l4 -4v-4l-4 -4v-4q2 -80 20 -80l4 -16v-12q0 -15 -20 -32l4 -4l-8 -40l4 -12q0 -24 -16 -24l4 -4v-12l-8 -12v-4q0 -12 16 -32l4 -36l-36 -52l-16 -56q0 -12 -8 -12l-16 4v-12l4 -24q-7 -27 -24 -36l-12 8l-36 -24v-12l4 -24l-4 -4v-4l4 -16l-24 -12l-20 28q-49 -19 -64 -56 l-4 -4h-4q-20 5 -20 12l-4 -4h-8q-10 1 -36 40l-4 -16h-8l-12 24v32h4v-8h4l8 8v12h-4l-4 -4h-4v4l-4 -4h-12q0 52 40 52q31 0 60 36q29 0 104 100h4v24q6 13 48 40l4 20l-8 48l8 32l-8 32l4 4l-4 4h-4l4 20l-4 4l4 4v20l-12 64q20 5 20 12q-10 84 -20 84v28l-8 40 q16 45 16 68q8 0 8 24l24 20v20q-12 0 -12 20l-24 16v8l8 16l-4 4v4l8 16l-8 20l4 4v4l-4 24l4 20l-4 28h4q-4 16 -24 16v16q12 12 12 28q16 4 16 20q-18 0 -24 96l-4 4v4l4 4q-16 6 -16 12v4q0 16 28 64l8 24l20 -4q0 8 40 28q12 32 36 32zM148 1396h20l20 -24v-52l4 -4v-4 l8 -4l-4 -16l8 -44l-4 -20l4 -12l-16 -24l4 -4v-4l-8 -60q16 -24 16 -44v-20h-8v-4q-3 -76 -12 -76q16 -52 28 -64v-8h-4l-4 4h-4l-12 -16l12 -56v-32l-8 -12v-8q9 -9 12 -44l-4 -20l4 -20q-16 -55 -16 -100h4q16 0 28 -20v-4q-12 0 -12 -16l-4 4h-16l-12 -12v-16l16 -12v-8 l-8 -32l8 -8v-16q0 -23 -16 -40v-4l36 -36q-4 -52 -24 -52l-4 -4v-4l24 -28l4 -24l-8 -16l52 -52q11 0 24 -20h8v-4l24 8q2 -11 80 -36l4 4l12 -4l20 -28l4 4q0 -7 24 -16l16 4l12 -4l8 8h4v-4l-4 -20q15 0 24 -12q-19 -60 -28 -60l-24 -8l-16 4l-52 -8l-16 24l-28 -8l-12 4 v-4l-8 -8h-20l-8 8l-4 -4h-4q-52 20 -52 52l-20 28l-12 -4v4l-4 -4h-12q-13 4 -28 40q-44 28 -44 36l-4 -4h-8q0 20 -8 20q0 -16 -12 -16l4 28v12l-8 32l4 4q-6 0 -36 60l4 20l-32 12l20 52q-5 36 -12 36l4 4v12l-8 24l8 20l-4 4l4 4h4l-8 56q-14 0 -32 28v8q0 8 24 8 q16 16 16 76v4h12v36l-8 8h-4l8 56v4h8v16l-16 20v4l8 32v16l-24 32l20 152v4q-14 8 -20 24q0 31 20 60q4 32 12 32l-4 4l4 20v4q-20 17 -20 56q-8 0 -8 20l-12 12v20q46 80 60 80l24 -8zM200 836h4v-12h-4v12zM544 156v-12l-8 -8h-4l-8 8v8zM444 56v-12h4l8 8l-4 4h-8z" />
<glyph unicode="v" horiz-adv-x="1328" d="M88 1404h48q28 -23 28 -60q11 -8 24 -84v-44q9 -48 32 -48l16 -72l-16 -36q1 -24 36 -52l-4 -20q24 -39 24 -60l-4 -40l4 -12l-4 -12h4l4 4h4q28 -21 28 -48q0 -20 -8 -20q2 -22 36 -56q25 -118 68 -172v-4l-4 -24q13 -9 24 -40q-4 -52 -16 -60v-4q16 -2 16 -12v-36 q24 0 24 -56v-4l-4 -12q21 0 24 -52q24 0 36 -20l4 -4h4l20 24l-4 16q23 86 48 104v12l-4 4q14 44 40 60q28 41 28 52q-24 10 -24 32q20 104 56 104q36 26 36 116q7 0 28 116q9 0 12 36q5 17 52 56l24 44q0 48 20 72q0 37 16 44q0 24 28 24l12 28q-8 20 -8 60l16 68v32 q6 14 32 36q68 -21 68 -60q24 -10 24 -32v-20q0 -37 -44 -96q0 -44 -20 -44v-24q-32 -54 -32 -88q-32 -19 -32 -72q-20 -10 -20 -32h8l4 -12l-16 -72q-28 -39 -28 -76q-10 -2 -32 -68q32 -4 32 -12v-12q-17 -28 -44 -32q0 -12 -20 -32q-16 -48 -44 -48l-4 -16v-8 q20 -32 20 -48v-8q0 -15 -36 -56q0 -48 -24 -48l-4 -4v-12l12 -12q-8 -16 -8 -44v-16q-20 0 -20 -48l-24 -52h4q-52 -77 -52 -112q-24 -15 -24 -36h-4l-12 8h-12q-7 -36 -40 -36l-32 -4q-66 0 -80 44q-9 6 -28 56q-12 4 -12 24l28 36q-32 14 -32 36l-8 36l4 20l-40 84 q0 17 -28 52q0 34 -36 92l-4 16l4 12l-4 4v4q24 30 24 48q-9 0 -28 32l4 32q-41 14 -44 28l12 36q0 10 -36 36l-4 4v8l12 16l-20 60q-9 8 -28 64l-4 4v4l12 20q0 21 -12 36v20q-27 0 -48 44q-19 0 -52 88l4 4v4l-4 16l8 12v20l-4 20l-4 -4h-4l-24 44l-12 12l4 16l-4 16 q18 100 40 100q0 7 44 36z" />
<glyph unicode="w" horiz-adv-x="1304" d="M87 1379q27 0 40 -52l12 -12h4l4 -60l-4 -4h-4q12 -46 12 -104l-8 -24l4 -4l-4 -4v-4l4 -4v-4l-4 -12l4 -16l-12 -44q32 -22 32 -80h-4l8 -20l-16 -40l12 -20v-4l-8 -24l20 -104l-16 -80l8 -12q0 -12 -12 -12l-4 -4v-8q0 -7 44 -28l4 -32q-16 0 -20 -24q0 -12 12 -12v-68 l40 -64l-20 -32v-28l12 -20q0 -23 -32 -48l4 -20v-4l-8 -12q-26 0 -44 52q-7 0 -20 32l12 28l-4 56l4 4v4l-12 24q0 73 -20 92l4 24q-28 46 -28 64l4 16q-4 60 -16 72l4 20l-8 36l4 16q-10 35 -20 40l12 36l-4 20l4 4l-20 36l4 20l-8 32l12 28l-4 44l4 28q-20 14 -20 32 l4 24q-9 0 -16 44q-19 0 -20 28l-4 4h-4q4 37 16 48v28q0 13 40 68v4l-4 16q0 13 44 24zM519 1359q25 -18 92 -32l12 -12l-12 -24l8 -72l-4 -4v-4l4 -40l-4 -60l16 -32q0 -17 -16 -40v-20q32 -33 32 -48h-4q10 -29 24 -44v-8l-16 -16l8 -64l-8 -8v-12l12 -16q0 -8 -12 -8 v-16q20 -27 20 -40l-8 -32l24 -76v-8l-8 -36q12 -140 20 -140l-8 -24l24 -44l-4 -4q8 -29 28 -60l-16 -44l12 -40l-4 -32h4l36 12l16 -4l16 8l-4 20l8 8v8l-8 56l4 4h4l-12 28l4 24q-6 16 -12 16q48 88 48 108q-8 9 -8 44l-24 8l28 124l-12 28h4l-8 32v8q25 40 36 40v4 q0 13 -12 28l4 4l-4 4v12h8v16q0 51 24 112l-8 68l24 68l-4 24l4 4l-12 12q0 17 20 32l20 56l-8 44l44 16l4 -4h4l32 12l28 -20q-20 -45 -24 -76l4 -52v-12q-16 0 -16 -8v-24l16 -52q-8 -18 -16 -20l4 -40v-28l-4 -4l16 -28q-36 -13 -60 -68q0 -21 -12 -24q0 -44 24 -68v-12 q0 -39 -24 -68l-16 -56v-8l16 -16q-2 -92 -20 -92l-4 -16v-4l4 -4l-24 -44l4 -12l-12 -88l12 -4v-28l-16 -16l4 -4v-32l-8 -48l4 -52h-4q3 -16 20 -32l4 -12q-20 -25 -32 -72q-21 -44 -32 -44l-36 8l-16 -4q-38 16 -76 20q-32 33 -32 44h4l-16 52l8 52q0 34 -20 64l-4 48 q16 24 20 52q-20 16 -20 36v12l4 4v4q-11 0 -28 104h-4l4 4v80l-16 24l4 20v16l-4 16l8 12l-16 40h4l-32 60v4l12 16q-4 32 -12 32l4 12l-4 4v4l4 16l-40 36v8h-4l4 4l-4 28v4l24 44v44q0 13 -12 28q2 30 20 56q-36 5 -36 24l-4 16h-4l-16 -32l-20 -28l4 -44q0 -25 -12 -60 l12 -40q-8 -24 -16 -24q-36 0 -72 44q-12 0 -20 20l12 32v4l-4 4l32 108v8l-16 16q24 59 36 128v24q18 0 40 36q8 9 48 20zM435 919q0 -8 12 -8l4 -4v-4l-4 -48l4 -24l-8 -16h4l4 4h4l8 -20q-36 -53 -36 -100l4 -24q-7 -52 -20 -52l12 -24q-4 -44 -12 -44l-16 -12l4 -28 l-16 -44q8 -36 16 -36q-9 -36 -28 -48q-13 -52 -24 -52l-4 -4h-4v-4l20 -4v-20l4 -4l-8 -24q20 -30 20 -44h-4l4 -4v-16l-12 -44l4 -16v-4q-24 -19 -24 -96q0 -21 -64 -48l-8 -8q-88 23 -88 60q0 36 -12 36l4 20v12l-12 60q15 35 24 36q40 -20 40 -44l24 -8q32 0 52 40 q26 0 44 28v8q0 9 -36 16h-32v8q0 9 28 12l20 28l12 36q-12 33 -32 44q0 68 32 68l4 20v8q-19 60 -24 60l4 4v4l-4 44q18 53 44 84v12l-8 12l4 4v4l-16 56l8 36l-4 16q23 20 36 52l-4 4v24l24 16zM851 819l4 -4h8v12h-4z" />
<glyph unicode="x" horiz-adv-x="1197" d="M116 1388q15 -12 40 -12q8 -14 32 -20l8 -44l-4 -4v-4q26 -38 32 -72q12 0 12 -24q12 0 12 -12l4 -24l-4 -12q12 0 12 -40q12 0 12 -28q15 0 28 -56q23 -7 64 -104q33 -14 64 -60v-20h24l-4 -24q5 -20 12 -20h28l4 16q-21 0 -24 28q0 31 36 56q15 0 40 76q32 35 32 64 l44 76q48 15 48 36l-4 24h4q12 0 12 24q20 0 20 32l56 88l-8 20l4 4v12l-12 16l20 4h32q79 -30 80 -40l24 -52v-20l-40 -40v-8l16 -16l-24 -28q0 -17 -52 -40q-4 -13 -40 -44l4 -20v-12q-21 -37 -64 -56l-16 -20l4 -24q-20 -10 -20 -36l4 -12l-16 -20l4 -28l-68 -32 q0 -9 -24 -36q-32 -46 -32 -68l4 -4l-4 -20v-12q0 -13 12 -28v-12l-4 -4v-4q12 0 32 -40q40 0 40 -44l4 -4l-4 -12q27 -21 36 -44l-8 -24q0 -14 32 -20q19 -16 32 -56q34 0 60 -68q32 0 56 -44q11 0 24 -44q16 0 16 -32q21 0 28 -48l8 -20q0 -34 -8 -52l8 -24q-8 0 -8 -28 q-24 -32 -60 -32h-12q-30 28 -48 28l-40 72l-32 96q-20 6 -20 28l-60 52q-6 0 -16 28l4 36q0 7 -24 12l-4 16l4 4v4q0 22 -36 52q0 12 -40 48q-16 32 -56 32l-8 -12l-4 4h-12q-23 -16 -40 -16v-24q0 -7 -28 -12v-4l4 -12h-4l4 -4v-4q0 -31 -36 -44q-3 11 -20 20 q-20 -1 -20 -8l4 -36q0 -16 -24 -56q0 -25 -16 -40l-4 4h-4l-4 -4h-4v8h-4l-8 -48v-24l20 -24v-8q-32 -5 -32 -20q0 -22 -20 -56q0 -21 -20 -32q0 -36 -44 -64v-4l-63 10l-37 -2l-20 -4v12l-4 16l12 20v8l-4 28q11 0 16 28h8q0 28 20 28q0 12 36 56l-4 12q27 19 44 56v8 l-4 4q20 68 32 68q15 0 32 48q16 0 32 36h8q21 0 36 -12h12v16q-16 17 -16 32v12q-16 0 -16 8v8q24 0 24 16q0 10 32 28q0 15 24 28v8h4l-4 4v4q0 6 36 20v8h4l-8 28l8 40l-8 28l8 20q-11 27 -44 48l-20 24q0 17 -32 44l-32 60q0 21 -28 40l-4 4v8l4 4l-20 24q-19 72 -36 72 q-24 5 -24 40q-23 0 -48 92q-44 55 -44 104v4q13 27 36 44q14 48 44 48zM444 864h8v-4h-8v4z" />
<glyph unicode="y" horiz-adv-x="1217" d="M844 1419h8q15 -17 36 -17l4 4q20 -20 24 -50l-12 -21l4 -5l-12 -21v-8l12 -51v-8q0 -23 -16 -34l-8 8h-20q0 -21 -8 -21l24 -63v-4q-6 0 -16 -30q-41 0 -48 -71l-52 -68q-3 -30 -12 -30l4 -21q-3 -33 -28 -33v-21l-4 -17l4 -17l-48 -51l4 -13q0 -9 -32 -46 q0 -39 -24 -55q0 -9 -24 -29q0 -24 -28 -34v-30q-32 -21 -32 -42l4 -25h-4q-7 0 -12 -55l4 -17v-21q-8 -9 -12 -46q-8 0 -8 -26h-4l24 -105l8 -4v-22l-8 -8q4 -51 20 -97q0 -9 -12 -9l4 -29q-28 -12 -28 -38q-32 -5 -32 -38h-8q-12 0 -48 30l-24 8l-4 -4l-8 38l8 25v8 q-20 16 -20 93l4 30l-8 8v17l4 4l-4 5v4q7 17 16 17v21l4 4v4l-12 13v4l4 17q-8 19 -16 21l20 80q-10 38 -60 144l-4 -4h-4q-20 0 -20 50q-9 0 -12 38v4l4 5v4l-16 29q-12 0 -28 47q-44 41 -44 59h4l-8 21l4 13q-45 30 -60 105l-20 68l8 8v9l-16 4v-4l-20 21h-4l-36 29 q0 24 -24 59q0 22 -32 114l-4 21l8 9q-22 22 -22 65l12 25l6 19q19 17 48 22l4 4q40 0 56 -72q20 -55 52 -89q15 -118 44 -118l32 -71q13 -31 28 -43l-4 -33q12 -9 24 -43q8 0 24 -33l20 -5h16l8 -16q0 -30 -12 -47v-4q14 -25 24 -25l-4 -30q0 -8 16 -8q12 -36 40 -47 l16 -34v-21h12l4 5l16 -9q28 27 28 63q21 0 24 64q20 0 20 46q14 34 24 34l4 -4l36 46l-4 21q0 19 20 38l48 101h4v72q11 0 48 38h4l-8 34q4 18 20 29q7 26 20 26q11 0 24 76q11 0 20 42z" />
<glyph unicode="z" horiz-adv-x="1242" d="M414 1350l25 -22l12 -4l65 21l16 -13l13 4q36 -4 36 -16v-4l-12 -16l4 -4v-61l-4 -4v-4l-4 4h-4l-4 -4h-4l-4 4h-4q-41 -9 -41 -28l-4 -4l-21 8l-4 -4q-3 12 -16 16l-65 -16h-4l-17 12h-4l4 -20v-13h-12q0 21 -33 21l-36 -8l-8 16h-17l-49 -12v4l-12 -4l-41 20l-20 -4 l-33 4q0 -14 -28 -24q-48 0 -61 24q-18 0 -29 85q0 29 61 57h21l41 -12h8v8l12 8q26 -12 77 -20l17 4q0 -8 12 -8l45 8l40 -13q21 0 21 9l24 -9h13zM650 1349h49l21 -13l24 9l70 -9l20 9q41 -16 72 -23l16 -48l-6 -47q0 -40 -41 -61q-11 -21 -57 -61q0 -20 -32 -57l-8 -29 l4 -36q-20 0 -66 -58q-22 0 -32 -24q-1 -8 -25 -12l-12 4v-4q-3 -13 -3 -21l-5 -28q0 -7 -29 -16l5 -5l-9 -32h4q-4 -26 -57 -65q-31 -66 -53 -66q-28 0 -28 -57q-33 -26 -33 -49l-20 -20l-33 -20q-22 19 -53 36l-17 4l-32 -4v4q22 49 44 49q0 22 33 49l-4 4l49 37v37l16 45 q12 0 12 8l5 -4h8q49 57 61 57q19 21 24 61l17 12l12 -8h4l8 8v20l-4 41q45 23 45 70q8 0 8 16l-4 24q0 21 69 21l4 -4l4 4v4l-4 12q0 25 25 37l4 4q10 16 28 16l4 12q-15 7 -32 33l-37 16l-33 -28q-16 0 -44 36q0 36 -17 69v8q0 9 41 16zM288 522l8 -8l29 -29l-50 4v21z M358 493l8 -12v-8l-16 -16h-25l-8 8v8q0 8 41 24v-4zM239 489q0 -13 32 -16l30 -29q0 -14 16 -32v-13q-49 0 -49 -16v-4q16 -17 16 -33v-8q-6 -36 -32 -36q0 -31 -37 -78l-4 -33l-20 5h-4l-33 -33l20 -20l28 4l8 -9h12q53 0 74 -8l24 13l86 -25h20q13 6 21 6l4 2l15 4v4 l24 3l35 -15q7 23 36 37q13 0 45 -25h4l12 13q20 0 57 -17q44 41 65 41q34 -28 49 -28h4l17 12l32 -8h25l4 -4l4 4h8l16 -49q-16 -114 -49 -114q-61 0 -73 -20h-12q-23 20 -41 20q-13 16 -25 16h-12l-4 -4l-24 8q-7 16 -29 16h-8q-16 -16 -41 -20q-23 2 -36 12h-13l-4 -4 q-9 -20 -24 -20l-4 -4l-17 4h-4q-44 0 -69 41h-4q-24 0 -24 -4v-12l-17 4l-12 -4l-16 4l-82 -20l-20 12h-12l-33 -12l-24 8h-17l-4 -4l-4 4h-4l-33 -12q-19 30 -32 32l-29 -4l-53 29l-12 60q15 69 20 69q13 0 13 12q27 11 44 37q25 5 25 25l-4 20h4l-4 4v4q0 14 37 61 q0 9 20 9l4 -5q57 49 73 86v4l-4 4q14 49 25 49h4z" />
<glyph unicode="{" horiz-adv-x="768" d="M363 1679q68 -12 68 -40l-12 -32l20 -16l-4 -4l8 -20q-3 -45 -16 -56q0 -12 32 -12l24 -28v-12q-44 0 -44 -24q-16 0 -16 -24l-12 -12l-12 -8l-36 4q-24 0 -52 -76q-8 0 -32 -36q4 -32 32 -32q-2 -20 -24 -20q-15 -34 -36 -40q-13 -4 -16 -16h4l-20 -44l8 -20l-4 -12 l4 -4v-4l-20 -32q20 -36 24 -72l-28 -52v-24l-12 -80l8 -36h-4l8 -28l-4 -24v-16l4 -4l-4 -4v-12l8 -12v-8q-16 0 -16 -12q8 -6 12 -80q-16 -36 -16 -56l4 -4h4q-3 -24 -8 -24l12 -28v-8l-12 -60v-12q0 -7 24 -20q0 -65 28 -84q10 0 44 -36l-12 -44v-4q16 0 24 -16l-4 -40 q35 -44 56 -44q32 -41 32 -100q52 -28 72 -52l16 -24l-4 -40v-40q0 -48 -56 -48l-32 -4q-49 29 -84 80l8 28q-12 16 -12 36q-60 28 -60 60q-5 0 -16 36q-11 0 -24 32l4 4v8l-40 60l-12 24v16l4 4q-32 43 -40 124q-15 32 -24 116q-16 0 -36 96h4l-8 20l4 24v16l-4 4l8 28 l-8 16l8 32q-22 0 -32 112l-12 32q0 56 16 56l24 12v20l-4 4l4 4v4l-4 4v4l12 24v4q0 13 -12 28q8 84 28 84v32l-8 16q0 28 8 28l-4 4v24q19 0 40 48q0 46 44 88l28 52l-4 24q24 31 24 56q20 51 44 80q0 41 36 52l16 64q11 0 32 24q25 24 40 24z" />
<glyph unicode="|" horiz-adv-x="538" d="M135 1591q32 -6 32 -19l-4 -4q48 -51 60 -51l12 -79q8 0 8 -14q0 -12 -32 -69l-20 -65v-9l4 -28l-20 -46h4l-16 -33v-14q21 0 40 -65l-4 -27q12 -5 12 -28q-15 -9 -32 -65l4 -19l-8 -18l20 -42l12 -46l12 -51l-32 -102l36 -79q0 -37 -48 -65l-4 5l-4 -5v-9q24 0 24 -28 q0 -25 -12 -51l8 -37l-12 -23v-9q12 -45 12 -79l-4 -4v-5l12 -46l-8 -24q0 -93 32 -120l4 -28q-16 -4 -16 -28l4 -4h4q-4 -70 -12 -70l4 -14q-39 -83 -100 -83q-35 0 -56 65q-6 0 -20 37q-16 0 -16 9v23l8 33l-12 37l12 32l-16 19v4l4 5v5h-4l12 37v41l16 42l-4 56l12 14 q-21 64 -36 64q2 20 24 42l8 42v4l-4 5l8 33q-24 5 -24 13v14q10 0 12 23q12 0 12 24l4 4l-4 5l-24 14v9l-4 28l8 28l-12 32l4 5l8 18q20 0 20 9v5q0 9 -20 9q-12 12 -12 28q20 19 20 42q24 9 24 18v5q-18 0 -28 46l12 28l-12 28l4 18q-16 0 -16 47q16 38 20 74h8l-8 32 l8 56h-4l-12 14v32q0 19 -24 42v9l8 37l-12 23v5l16 23v5l-8 42l8 13l-8 24l16 32l-4 23q0 16 88 33z" />
<glyph unicode="}" horiz-adv-x="719" d="M104 1692q41 0 56 -44q6 0 20 -40l-4 -44q60 -44 60 -68v-20q8 0 8 -20q17 -19 32 -60l28 -36v-12l-8 -8q31 -68 36 -68q28 -19 28 -68l8 -8v-20q16 0 16 -28h4l-4 -28v-16l16 -56l-4 -16l4 -4v-4l-4 -12q20 -5 20 -12v-20l-4 -4q16 -35 16 -52v-8l-12 -20l28 -96 q0 -14 -28 -28l4 -28l-8 -12v-4l16 -20v-12l-4 -4q0 -62 40 -76l16 -20v-4l-28 4h-4q-9 0 -16 -44q-17 0 -24 -40v-32l-4 -4l4 -4v-20h-8v-48q-16 -13 -32 -88l4 -4v-16q-32 -19 -32 -72q-20 0 -20 -32l-4 -32l4 -4v-4q-16 -24 -16 -44l4 -4v-4l-4 -12l4 -24h-4q-8 0 -8 -12 q-28 0 -28 -24q-9 -76 -28 -76q-17 0 -28 -28l-12 -12l4 -4v-4q0 -33 -48 -48q-20 -52 -44 -52h-12q-80 10 -80 44l-8 8q18 32 28 32v4q0 44 24 76l16 32l-4 28l20 4v4l-8 12v8l4 20h24l32 32v12l-4 4v4q10 0 16 32v20l20 4l-4 20q0 26 28 72q0 28 36 68q29 0 40 28l-4 12 q0 18 20 40l-12 24h4l-4 4q0 48 32 84l-4 44l16 16q-16 53 -48 76v4h-20l-28 -4v4q8 8 8 36q30 32 40 32l4 4v4h-4l-12 -4v4q0 12 16 12v8l-4 -4h-4q-13 0 -20 68l12 24v16q0 21 -20 60v4h4l12 -4l-12 36h4q0 18 -24 24v40l-8 28l4 24q-16 2 -44 64q-20 0 -20 44l-20 -8 l-8 12l8 60q-14 16 -28 16q-12 48 -36 48q0 17 -16 32l4 4q0 10 -24 28v4l8 16q-3 56 -12 56l-12 -4q-18 32 -24 32l-4 4v4l4 4v4l-4 4v4l4 28l-4 4v4q22 75 52 96l20 4l20 24q0 16 12 16zM412 588v-8h8v8h-8zM256 236l4 -4h12v4l-8 8z" />
<glyph unicode="&#xa1;" horiz-adv-x="678" d="M185 -130h-41q0 17 -37 47l-5 -5h-5q-16 0 -47 47h-5v11l16 26q-26 42 -26 68q0 27 15 27l-10 57v22q22 108 42 136q-21 34 -21 52q3 39 15 53v11h-11v20q12 0 42 58l-21 37q13 58 32 58v21l-47 52v11q21 21 21 74l-31 20q4 17 21 22l4 20l-10 27l6 5v5l-6 16l31 152 l20 74q0 21 11 21l10 -11v5l6 -5h5q23 16 47 16q45 -37 45 -68h-4l25 -69l-4 -84q14 -47 25 -47q20 0 20 -26l-35 -90v-10l15 -37l-5 -26l5 -31l-25 -111v-6l41 -157l21 -36l15 -58l-36 -136q15 0 15 -27l-15 -15l4 -6v-5q-3 -47 -30 -84l-5 -16h-6l-21 5q-22 -10 -25 -21 v-47q-41 -13 -41 -42zM265 1532q19 -8 25 -8q16 -40 36 -40q8 -32 18 -32l-3 -33q0 -25 32 -42q-10 -49 -22 -49v-3l4 -4v-6q-7 -30 -18 -30q0 -29 -104 -49q-7 -26 -14 -26h-8l-28 10q-25 7 -40 7l-18 -7v3q-28 2 -28 20l-18 13h-4l-4 -3h-7l-54 55l-14 56q7 13 18 13v16 l-4 3l18 23l-3 20q12 32 43 32q22 40 32 40q12 26 29 29l68 18l40 -12v-3z" />
<glyph unicode="&#xa2;" horiz-adv-x="1067" d="M207 235q2 3 7 6q0 28 14 30q-3 16 18 41q20 10 19 16l-6 14q11 22 17 65q21 10 25 27l-2 1l-3 12l21 38l-5 14l-1 3q11 2 10 9q14 3 20 30q4 1 15 15q8 1 7 7l5 7v1l-13 9l8 7v2l-10 6l-1 2l4 9q7 3 18 8l11 20l-6 16q6 1 5 9q8 2 7 7q10 13 8 21l-2 11l3 8h10l10 5v2 q-2 11 19 39l-3 10q9 1 16 38q5 13 17 40l5 16q-24 20 -49 19q-26 -2 -16 2h-22l-19 2l-17 -10h-31q-20 0 -42 -36q-57 -20 -78 -69v-8h-3l3 -11q0 -17 -21 -17q-31 -61 -31 -87q0 -53 -28 -79v-5l10 -39q-7 -12 -10 -76q0 -47 38 -88l7 -52h-7v-8q0 -6 28 -16v-23 q7 0 21 -20zM293 143q4 -11 20 -11q14 -9 17 8l18 -4l28 -9v-8l10 8l11 -8h3q6 20 18 20q23 0 24 11l-3 21l3 4h4l17 -20l4 3h3l11 -3l7 8l14 -5q3 16 53 49q0 24 17 31l11 -11h3q11 0 11 28q10 0 7 47q14 0 14 41q7 0 7 11q7 0 10 24q23 16 67 16h3q12 -11 42 -20l11 -31 l-14 -25l7 -19l-7 -25v-16l3 -3l-7 -17l-3 5h-14l3 -29l-38 -23l3 -24l-7 -20l4 -4v-4l-18 -40h-3l-14 8q-12 0 -35 -20v4q-14 -4 -32 -40q-17 -28 -52 -28l-14 -31q-35 0 -50 23l-31 -23l-60 -5l-28 21l-3 -5h-4l-14 5h-3l-14 -8l-11 8l-3 -5h-7q-30 0 -42 24l-4 -4h-3 q-10 0 -20 6q-2 -4 -1 -11q-13 -3 -12 -35l-17 -17l-4 1h-3l-21 -20l-14 -4l-6 2l-20 -5l-16 15l-9 -4q-12 25 -21 23v3q17 17 15 24l-5 12q5 1 10 14q15 7 17 39q7 16 25 33q-41 43 -56 72q0 27 -32 48q-8 47 -17 47l7 12l-42 72q7 56 14 56l-7 40l3 16l-10 83l3 28 q-21 6 -21 24q0 28 25 44q3 27 21 44q0 45 17 71q0 11 28 16q20 41 42 56l4 16l-4 12q0 7 28 28q0 17 25 24q0 9 63 20q16 24 21 48h7l14 -8q60 8 98 28l11 -5l24 5l18 -12h38q0 12 7 12h11q12 -24 42 -24l1 1q0 3 1 5t2 3l3 7h3q19 24 18 29l-3 2l-3 -1q23 24 19 28 q24 13 24 18l13 14l9 -4l2 1l9 5q55 -23 57 -39l-9 -18l7 -15q-9 -2 -9 -5l3 -2l1 -2q-1 -15 -34 -49q3 -12 -12 -25q23 -11 28 -25q21 -36 45 -59q0 -45 28 -69l-3 -11q17 -46 17 -68v-23l11 -2v-36l-14 -19l-7 -7q-55 -20 -56 -8l-12 -12l-30 5q-13 21 -5 45l-12 15l-3 5 l11 14q-16 -5 -15 20l-1 22q-2 16 -10 33l-3 13q-10 29 -23 38l-9 -17l-7 -9q-4 -10 -11 -29q-10 -7 -16 -33l-11 -7l-3 -17l-6 -21q-1 0 -2 -1q-4 -3 -6 -15q-1 -5 -2 -11v-4q-3 -1 -5 -2q-9 -3 -9 -6l3 1q-1 -7 -2 -12q-1 -14 -5 -14v-6l1 -8v-6l-5 -4l-5 -4l-3 -2v-2 l-2 -2l-3 -2q-22 -17 -21 -23v-18q-15 -16 -11 -39l1 -3l1 -4l1 -8q1 -6 -14 -21l-3 -3v-4q-2 -12 -7 -15h-2l-2 1v-5q0 -8 -6 -13l-1 -1q-4 -2 -11 -4l-8 -39q-23 -20 -21 -29q-29 -45 -26 -59l2 -14q-14 -3 -14 -22l-3 -1l3 -2l-2 -18h2l-2 -3l1 -2l4 -11l1 -2l-4 2l-8 -2 l-1 -1l-2 -1l-4 -6l1 -3v-1l4 -10q-12 -22 -11 -26h-1q-4 -1 -5 -6v-1q1 -1 -1 -3z" />
<glyph unicode="&#xa8;" horiz-adv-x="1107" d="M153 1752h32q29 0 32 -20l36 16q25 -44 56 -44l32 -72v-4q-17 -88 -40 -88q-8 -44 -36 -44l-24 -24q-13 16 -40 16l-8 16h-12q0 -12 -20 -12l-8 20h-32q-11 0 -16 36q-20 0 -32 44v16q26 78 48 84q6 28 16 28l-4 4v4zM635 1736l148 -28v4q16 -6 16 -12v-36l-4 -16l12 -36 v-16q-12 -12 -20 -44q-14 -20 -32 -24l-8 -8q-7 0 -8 -20l-4 -4h-28q-8 0 -8 12l-12 4l-4 -4v-4l4 -4q-16 0 -16 -8h-4l-16 20q-13 0 -40 40l-36 40l-4 24v52q4 16 64 68zM703 1480h8l8 -8v-8l-20 -20h-8l-8 8h4l-4 4v4q3 11 20 20z" />
<glyph unicode="&#xad;" horiz-adv-x="1274" d="M536 773q26 0 44 -56l12 -8h12l28 24q0 -6 16 -12q52 0 52 16q0 11 28 28h4l16 -16l4 4h8l4 -4l32 8l36 -8q0 10 36 20l32 -20l20 4q0 -8 32 -24q0 -32 20 -44v-4l-4 -4v-4q9 0 16 -32l-4 -24l4 -4q-40 -14 -40 -32l-40 -44l-32 -32h-4q-24 0 -44 36q-12 0 -12 12 q-44 0 -64 -24h-20q-23 32 -76 32l-40 -12l-44 4q-20 -14 -20 -24h-4l-24 16v4l-40 -8l-28 12l-32 -16l-20 4h-28l-12 12l-20 -4h-4l-36 8l-12 -16l-36 4v-4l-24 -24q-4 28 -24 28l-16 -16l-20 4l-12 -12l-12 8h-16q-14 -16 -28 -16h-4q-29 29 -56 40q-37 64 -44 64 q8 84 24 84l4 4v4l6 1l6 -1l16 -4l60 36l-4 4v16l8 8h4q29 -23 76 -32l16 4q12 -13 12 -24q18 0 40 24h8q14 -11 60 -16v-8l28 4l16 -4q72 24 100 24l12 -4z" />
<glyph unicode="&#xaf;" d="M496 1660l12 4q28 0 100 -24l16 4l28 -4v8q46 5 60 16h8q22 -24 40 -24q0 11 12 24l16 -4q47 9 76 32h4l8 -8v-16l-4 -4l60 -36l16 4l6 1l6 -1v-4l4 -4q16 0 24 -84q-7 0 -44 -64q-27 -11 -56 -40h-4q-14 0 -28 16h-16l-12 -8l-12 12l-20 -4l-16 16q-20 0 -24 -28l-24 24 v4l-36 -4l-12 16l-36 -8h-4l-20 4l-12 -12h-28l-20 -4l-32 16l-28 -12l-40 8v-4l-24 -16h-4q0 10 -20 24l-44 -4l-40 12q-53 0 -76 -32h-20q-20 24 -64 24q0 -12 -12 -12q-20 -36 -44 -36h-4l-32 32l-40 44q0 18 -40 32l4 4l-4 24q7 32 16 32v4l-4 4v4q20 12 20 44 q32 16 32 24l20 -4l32 20q36 -10 36 -20l36 8l32 -8l4 4h8l4 -4l16 16h4q28 -17 28 -28q0 -16 52 -16q16 6 16 12l28 -24h12l12 8q18 56 44 56z" />
<glyph unicode="&#xb1;" horiz-adv-x="1297" d="M427 1038l-5 10l15 11v8l-8 8v5q18 16 18 31q-11 0 -18 41l-3 3h3l-7 8l4 2v8h-7v6l10 15q-20 0 -32 21v3l25 18l-11 13v3q11 9 11 18l-3 2h-4l7 37q-11 28 -25 28v8q11 7 18 52q18 24 54 24q25 17 25 26h33l39 -39h11l4 2h3q15 -12 18 -31h7v-20q11 -6 11 -19h4l-25 -36 v-14h7l-4 -2v-2l15 -8v-6q-26 -41 -26 -54v-11l8 -28v-8l-8 -8v-29l8 -18l-15 -10l4 -19q-11 0 -11 -10h-4l19 -40l25 -3l28 10q32 -11 32 -18v-7l-6 -10l3 -4h3l14 4l17 -4q87 18 87 32q28 0 32 7h15q0 -14 10 -14l9 4l3 -4h3l20 14h20l3 -3h3v3l46 -18l3 4l8 4v3 q21 0 21 -25q12 0 12 -14l-7 -14l12 -15q-8 0 -17 -14l3 -3v-4l-17 -14q0 -18 -7 -18v-7q9 0 9 -7q0 -8 -23 -18l-3 -4l-51 18h-21l-11 -10l-18 3l-8 -7h-20l-9 11l-2 -4h-4l-3 4l-14 -4q-31 9 -31 21l-9 4l-11 -7l-4 3h-34l-3 4l-2 -4h-4l-14 4q0 -17 -37 -25q-21 6 -37 20 q-31 -16 -40 -42l15 -37v-2l-4 -11q0 -21 32 -34l11 -11v-5q-12 0 -32 -20h-4v-11l-7 -21v-10l4 -3l-4 -3v-2l4 -3v-2q-11 -2 -11 -16q21 -27 21 -44v-8q18 0 18 -24q-10 -1 -18 -12q18 -24 22 -47l-4 -22q-15 0 -28 -15l3 -10q-8 -16 -47 -29h-10v5h-15q-30 0 -39 21 q-18 0 -18 5l-4 -2h-7q0 7 -18 16l-4 8l11 7l4 -3h7v8l7 21q0 5 -22 13l8 21l-4 10q4 11 22 11l3 8l-11 10l4 2v3l-7 8q2 20 14 20v19l-3 3q2 18 14 18v8l-4 10l4 3v3q-7 6 -18 65l4 2v3q-16 13 -22 68q11 2 11 15l-11 5l3 20q-9 -3 -26 -6h-15l-3 3l-31 -14l-43 11l-35 -11 h-20l-3 4h-3q0 -15 -15 -15h-3l-26 11v4l-2 -4h-12q-14 1 -14 7l-3 -3h-15l-2 3l-20 -7l-23 7l-29 -7l2 -4v-3l-25 -4q-42 24 -47 39l7 11q0 7 -12 7v7q0 17 14 47q6 52 27 71h2l20 -7l58 18q22 -22 64 -22l19 -7q6 -11 17 -11v-3l3 3h6q6 0 6 -14h3q23 16 23 32l49 -3h3v3 h-6v7l9 11h3l5 -7l12 4q36 -18 72 -21zM553 379q26 0 44 -56l12 -8h12l28 24q0 -6 16 -12q52 0 52 16q0 11 28 28h4l16 -16l4 4h8l4 -4l32 8l36 -8q0 10 36 20l32 -20l20 4q0 -8 32 -24q0 -32 20 -44v-4l-4 -4v-4q9 0 16 -32l-4 -24l4 -4q-40 -14 -40 -32l-40 -44l-32 -32 h-4q-24 0 -44 36q-12 0 -12 12q-44 0 -64 -24h-20q-23 32 -76 32l-40 -12l-44 4q-20 -14 -20 -24h-4l-24 16v4l-40 -8l-28 12l-32 -16l-20 4h-28l-12 12l-20 -4h-4l-36 8l-12 -16l-36 4v-4l-24 -24q-4 28 -24 28l-16 -16l-20 4l-12 -12l-12 8h-16q-14 -16 -28 -16h-4 q-29 29 -56 40q-37 64 -44 64q8 84 24 84l4 4v4l6 1l6 -1l16 -4l60 36l-4 4v16l8 8h4q29 -23 76 -32l16 4q12 -13 12 -24q18 0 40 24h8q14 -11 60 -16v-8l28 4l16 -4q72 24 100 24l12 -4z" />
<glyph unicode="&#xb4;" horiz-adv-x="481" d="M294 1793q18 0 56 -16q24 16 36 16h4q31 -24 52 -28l16 4h4l4 -24l-8 -32v-16h-8v-16l8 -12v-12q-8 -7 -16 -72q-33 -24 -72 -32q0 -12 -28 -32q-17 -24 -60 -24l-64 -60l-32 4q-20 0 -64 -24q-12 0 -20 -16l-28 4l-52 -4q-24 8 -24 32q33 52 52 52q0 12 12 12l4 4v4 l-4 20q12 0 12 28q25 0 36 44q13 0 36 32q12 0 12 16h-4q10 28 40 28q0 12 40 28z" />
<glyph unicode="&#xb7;" horiz-adv-x="829" d="M392 504q12 -12 28 -12l32 -20l-4 -4v-8l12 4l52 -8h28q13 0 36 -60l24 8l12 -8l-12 -20l4 -28l-4 -20l12 -60v-52l-4 -16l4 -16l-8 -24v-8l8 -8l-4 -4v-4l20 -28v-8q-25 0 -48 -28q-17 0 -28 -28q-52 -9 -52 -36q-16 -8 -44 -8q-45 20 -80 24q-33 23 -88 40q0 16 -24 16 l-32 -4l-12 32l8 28l-4 36l4 4q-20 5 -20 12l4 28l-8 24l4 52l-4 4h-4l4 4v4l-4 28q0 36 24 36q55 24 80 24q36 28 36 40v8h4l32 -4v4l4 16v4l-4 4q11 40 16 40z" />
<glyph unicode="&#xbf;" horiz-adv-x="1183" d="M537 1210l-14 -20l-42 2l-38 15l-26 4l-10 14q-10 0 -32 40q-31 0 -43 32l3 20l-18 23l4 3v16q-11 0 -18 13l14 56l54 55h7l4 -3h4l18 13q0 18 28 20v3l18 -7q15 0 25 33h15l-4 -3v-7l4 -16l28 10h8q7 0 14 -26q104 -20 104 -49q11 0 18 -30v-6l-4 -4v-3q12 0 22 -49 q-32 -17 -32 -42l3 -33q-10 0 -18 -32q-20 0 -36 -40l-32 -14zM411 956q-1 7 -1 13l2 2q3 22 11 32l-4 16l4 16v8l-4 4v4q19 2 36 56h4v-4l40 20q15 -29 39 -30q14 -37 25 -74l4 -4v-28l-4 -4q0 -14 20 -48v-4q0 -8 -16 -8q-3 -21 -6 -33l1 -1h-2l-2 -6l4 -42l2 -62h-4l-4 4 v-48q12 -3 12 -12l-20 -100l-8 -8l-16 -20l-37 -5l-33 -21l-12 4q-19 0 -56 -36h-4l-4 4h-16l-48 -16l-32 -28q-30 -37 -44 -40l-16 4q-18 -3 -36 -40l-12 4q-15 -36 -28 -36v-16l12 -4q-16 -44 -20 -100q8 -18 16 -20q0 -62 32 -84q34 0 52 -44l-4 -4l8 -8h32l28 -4l4 4 l20 -28l28 4h28q0 -12 12 -12v4h4l4 -4h8l20 4l20 -16h32l52 24h36l48 48l20 -4h4l24 20l16 -12q21 0 44 24q40 0 40 72q-4 38 -16 48v20q9 5 28 92h8l16 -12h12l4 4q13 -17 24 -20q14 0 40 -92v-4l-4 -4l4 -16v-32l-8 -32v-8l8 -36v-4q-40 -17 -40 -68q-33 0 -64 -36 q-59 -27 -60 -52q-25 -9 -52 -44h-12l-4 4q-10 -20 -40 -20l-32 4h-4l-4 -4l-4 4h-32q-8 0 -28 -48l-16 4l-24 -4h-8q-22 0 -52 20l-4 -4h-8q0 26 -40 32h-4l-4 -4q-25 4 -68 32l-4 -4q-46 0 -52 20q-52 0 -52 20l-64 28q-17 88 -64 88q-10 16 -20 16v12l4 4h-4l4 32v4l-4 4 v4l4 4v8q-28 27 -28 108l4 28l-12 48v4l24 52v4l-4 28l28 36q0 16 48 48q0 28 24 28q62 40 76 40l28 -8v4h8q12 36 28 52l32 -8q20 3 20 12q75 17 104 36l-8 52l-5 15l7 39l20 26l-14 40v2h-3v8l3 5q1 13 5 20v44z" />
<glyph unicode="&#xc0;" horiz-adv-x="1204" d="M440 1064q0 -36 -28 -36v-12h8v-12l-32 -60l8 -48q-19 -37 -28 -96q-8 -2 -16 -20h4q-12 -44 -32 -44l-8 -36v-8q-16 0 -16 -32q-36 -30 -36 -40l-12 -12v-20q12 -15 12 -36q-10 0 -20 -32q0 -29 48 -60h12q0 24 52 24q22 0 40 12q63 -20 88 -20h8q24 0 64 16 q21 -20 36 -20v8q10 0 12 16l44 8l4 -4l12 44v4q0 56 -20 56l4 28v8q0 13 -12 28v36q0 31 -16 72l4 20q0 32 -32 56l-44 92l-16 8h-4q0 -16 -8 -16l-4 4v4l8 48q-10 0 -12 16l8 32h-4zM197 265l-1 -1q-34 -29 -64 -76q-8 0 -16 -32l12 -4q-13 -41 -48 -88q0 -11 -20 -40h-4 l-16 4l-16 -4h-12l-12 68v8l4 4l-4 12l8 88l-4 4v4q0 63 36 112q0 6 2 14q5 25 26 66q0 28 28 60l-4 32q0 25 36 44l16 24v12q0 28 -8 28q7 40 48 68q0 13 20 40l-8 36q20 43 24 72q14 0 24 88q10 0 24 36l-4 4q20 0 48 104l-4 16q0 17 40 72l12 128l-4 20q0 28 36 28 q35 44 60 44h16q0 12 20 12l8 -8l32 4q29 0 32 -52l-4 -4q0 -53 28 -68l12 -8l-8 -20q32 -52 32 -68l-20 -56q0 -12 16 -12l20 -16l-4 -4v-4q16 -53 16 -84v-4l28 8v-4l16 -28l-16 -60q4 -64 36 -64l8 -16l-4 -32l28 -44v-8l-12 -48q0 -9 36 -48l16 -92l-4 -16q0 -14 20 -28 l24 -100v-20h20l8 -8l-4 -4l4 -4h-4l32 -40q16 -95 28 -108v-20l-20 -100l-4 -4v-4l8 -32v-4q0 -14 -44 -20q-36 0 -84 132q-8 0 -12 40l4 20q-12 0 -12 12q-24 30 -24 44q-16 0 -16 12l4 24l-4 4v4l4 12h-4q-9 0 -48 36q0 -28 -20 -28l-4 4l-4 -4v36l-64 16l-24 -16h-12 q-10 0 -20 28h-20l-4 4h-4l-28 -40h-28q-7 0 -32 -32h-4q-8 64 -44 64l-48 4q-68 -6 -68 -64h-16l-4 4l-12 -4v-8q8 0 8 -20l8 -8zM298 1707q40 -16 40 -28q30 0 40 -28h-4q0 -16 12 -16q23 -32 36 -32q11 -44 36 -44q0 -28 12 -28l-4 -20v-4l4 -4q12 0 12 -12q19 0 52 -52 q0 -24 -24 -32l-52 4l-28 -4q-8 16 -20 16q-44 24 -64 24l-32 -4l-64 60q-43 0 -60 24q-28 20 -28 32q-39 8 -72 32q-8 65 -16 72v12l8 12v16h-8v16l-8 32l4 24h4l16 -4q21 4 52 28h4q12 0 36 -16q38 16 56 16z" />
<glyph unicode="&#xc1;" horiz-adv-x="1242" d="M540 1376q40 -21 40 -80q8 0 8 -24l-4 -4q20 0 20 -36q24 -29 36 -84h8l4 -12l-8 -12l4 -20v-4l-8 -16q13 -48 28 -48l-4 -4v-4l8 -16l-8 -32q10 0 20 -52q14 -9 28 -100q8 0 8 -16l-8 -8q6 -10 52 -32l-4 -40v-8l4 -4l-16 -36l16 -16l-4 -20v-8q9 -9 16 -56q22 0 24 -24 q0 -14 20 -36l-4 -28q9 -32 24 -32v-4l-4 -4q10 -33 20 -40l12 -36v-4l-8 -24l4 -20l-4 -4q9 0 16 -28l-8 -28q3 -24 16 -24l24 8h8l24 -96l-8 -72l8 -32q-30 -52 -84 -52q-56 39 -56 52l8 12q0 34 -20 68l4 4v4l-4 20l4 12l-12 36l4 16q-17 20 -40 20q-20 40 -20 68v8 q21 0 24 12q0 28 -28 48q-33 -16 -64 -16h-20l-12 8h-12l-60 -28l-24 4l-4 -4h-4l-20 12l-12 -32q-40 0 -76 24l-28 8l-20 -4l-8 8h-8l-16 -8q-28 24 -48 24l-56 4l-4 -4v-4l4 -12q-48 -27 -48 -48l8 -8v-20q-12 0 -12 -28v-4l12 -40q0 -14 -28 -60l4 -20q-16 0 -16 -16h-4 l8 -20q-28 -38 -32 -80l-28 -20h-8q-30 11 -60 44l4 16h-4q-8 0 -8 -12h-8l-8 8v16l24 32l-8 32v12l12 16l-4 4v4l8 20h-4l-4 4h-4q4 15 28 40q0 10 12 20q0 26 28 48l-4 24h8v28l4 4l24 16l4 4l-4 4v8l32 24l12 12l-12 16v16l4 4q-8 12 -16 108q12 0 32 40l-4 4l20 72 q14 0 36 80v12h8v4l-12 32l12 20l-8 20q27 5 36 16l-12 32v4q16 0 16 8v12q-12 0 -12 8v12l28 -4v20l-8 36q39 0 56 68l-4 12q32 16 32 56l-4 4l4 24l-4 40q8 0 24 60v4q0 32 -20 32q28 31 28 52v4l-4 16h4l32 -24l20 12l24 -4zM440 1020l4 -40h4v8h4q13 -4 16 -16 q-16 -5 -16 -24l-12 -8l-20 4q-32 -24 -36 -56l-24 -60l4 -12l-4 4h-4v-4l4 -28l-4 -4q-8 0 -8 -28h-4l4 -4v-4q0 -45 -20 -56q-28 -36 -52 -36v-20q0 -22 28 -32v-8q-11 -20 -24 -20v-20l-4 -20h4l-4 -4v-4q8 -28 48 -28l12 20l-4 4v4l16 8q18 -8 20 -16l-4 -16l24 -12 q2 24 28 24l28 -32h16l36 12l24 -4l12 8l36 -8l12 4l20 -4v4l4 -4h12q17 16 32 16l20 -4q2 11 28 32q0 27 -40 44l-4 4l20 44q0 8 -44 44q0 78 -56 180l-12 44v28q-20 0 -20 12l12 20v8q-6 16 -28 16l12 24q-12 2 -12 28q-29 -3 -40 -12h-4q-14 0 -24 12zM728 1803 q18 0 56 -16q24 16 36 16h4q31 -24 52 -28l16 4h4l4 -24l-8 -32v-16h-8v-16l8 -12v-12q-8 -7 -16 -72q-33 -24 -72 -32q0 -12 -28 -32q-17 -24 -60 -24l-64 -60l-32 4q-20 0 -64 -24q-12 0 -20 -16l-28 4l-52 -4q-24 8 -24 32q33 52 52 52q0 12 12 12l4 4v4l-4 20 q12 0 12 28q25 0 36 44q13 0 36 32q12 0 12 16h-4q10 28 40 28q0 12 40 28z" />
<glyph unicode="&#xc4;" d="M488 1372l8 -8l32 4q29 0 32 -52l-4 -4q0 -53 28 -68l12 -8l-8 -20q32 -52 32 -68l-20 -56q0 -12 16 -12l20 -16l-4 -4v-4q16 -53 16 -84v-4l28 8v-4l16 -28l-16 -60q4 -64 36 -64l8 -16l-4 -32l28 -44v-8l-12 -48q0 -9 36 -48l16 -92l-4 -16q0 -14 20 -28l24 -100v-20 h20l8 -8l-4 -4l4 -4h-4l32 -40q16 -95 28 -108v-20l-20 -100l-4 -4v-4l8 -32v-4q0 -14 -44 -20q-36 0 -84 132q-8 0 -12 40l4 20q-12 0 -12 12q-24 30 -24 44q-16 0 -16 12l4 24l-4 4v4l4 12h-4q-9 0 -48 36q0 -28 -20 -28l-4 4l-4 -4v36l-64 16l-24 -16h-12q-10 0 -20 28 h-20l-4 4h-4l-28 -40h-28q-7 0 -32 -32h-4q-8 64 -44 64l-48 4q-68 -6 -68 -64h-16l-4 4l-12 -4v-8q8 0 8 -20l8 -8l-16 -32q-34 -29 -64 -76q-8 0 -16 -32l12 -4q-13 -41 -48 -88q0 -11 -20 -40h-4l-16 4l-16 -4h-12l-12 68v8l4 4l-4 12l8 88l-4 4v4q0 63 36 112 q0 26 28 80q0 28 28 60l-4 32q0 25 36 44l16 24v12q0 28 -8 28q7 40 48 68q0 13 20 40l-8 36q20 43 24 72q14 0 24 88q10 0 24 36l-4 4q20 0 48 104l-4 16q0 17 40 72l12 128l-4 20q0 28 36 28q35 44 60 44h16q0 12 20 12zM440 1064q0 -36 -28 -36v-12h8v-12l-32 -60l8 -48 q-19 -37 -28 -96q-8 -2 -16 -20h4q-12 -44 -32 -44l-8 -36v-8q-16 0 -16 -32q-36 -30 -36 -40l-12 -12v-20q12 -15 12 -36q-10 0 -20 -32q0 -29 48 -60h12q0 24 52 24q22 0 40 12q63 -20 88 -20h8q24 0 64 16q21 -20 36 -20v8q10 0 12 16l44 8l4 -4l12 44v4q0 56 -20 56 l4 28v8q0 13 -12 28v36q0 31 -16 72l4 20q0 32 -32 56l-44 92l-16 8h-4q0 -16 -8 -16l-4 4v4l8 48q-10 0 -12 16l8 32h-4zM153 1742h32q29 0 32 -20l36 16q25 -44 56 -44l32 -72v-4q-17 -88 -40 -88q-8 -44 -36 -44l-24 -24q-13 16 -40 16l-8 16h-12q0 -12 -20 -12l-8 20 h-32q-11 0 -16 36q-20 0 -32 44v16q26 78 48 84q6 28 16 28l-4 4v4zM635 1726l148 -28v4q16 -6 16 -12v-36l-4 -16l12 -36v-16q-12 -12 -20 -44q-14 -20 -32 -24l-8 -8q-7 0 -8 -20l-4 -4h-28q-8 0 -8 12l-12 4l-4 -4v-4l4 -4q-16 0 -16 -8h-4l-16 20q-13 0 -40 40l-36 40 l-4 24v52q4 16 64 68zM703 1470h8l8 -8v-8l-20 -20h-8l-8 8h4l-4 4v4q3 11 20 20z" />
<glyph unicode="&#xc8;" horiz-adv-x="1249" d="M190 1815h60v-4l20 -20l16 4l12 -12q36 -4 36 -32h44q12 -2 12 -28l28 -76q72 -34 72 -56l-8 -20l8 -28h4l4 4h4l4 -4l4 4h4l4 -4l-8 -20v-4l12 -4l4 -4l4 4l16 -4q15 -16 24 -16q17 -44 32 -44l-4 -28v-8l-16 -8h-4l-64 16l-4 -12h-12q0 16 -12 16l-4 -4q-24 0 -40 24 v24l4 40l-12 12h-20l-16 -12q0 -32 -36 -32q-28 13 -28 24h-8l-44 40l-32 -4l-20 4v-4l-4 -4q-6 0 -12 16l8 8h-20l-40 36q-7 40 -32 40q0 16 -8 16q-4 22 -32 72l16 32l-4 4v16q12 0 16 16l24 -8l12 4l16 -4l4 12l-4 24v8zM482 1365l28 -32l4 4h4l16 -12q1 16 8 16l20 -8 l8 8h4l16 -8l24 8l16 -8l48 24h4q23 -15 44 -56l12 -4q0 31 40 36l8 8h4l60 -12h4l4 20h8q30 0 76 -48l12 -32q-36 -25 -36 -56q-11 0 -20 -24h-28l-12 8q-28 -7 -28 -28l-4 -4h-4q-8 8 -36 8q-11 20 -32 20v-4l-4 4l-20 -4l-68 8l-16 -4v4q-20 0 -44 -48l-16 -8l-12 4 q-12 -15 -12 -36h-12q-20 0 -20 8l-4 -4h-8q0 12 -8 12v24q0 18 -72 28l-4 4q-21 0 -32 -24l-28 20h-8l-4 -4h-4l-12 12q-8 0 -8 -12l-4 -4h-4l-4 16h-28l-12 12l-48 -24q-7 15 -24 20q-72 -27 -72 -64l4 -40q-8 0 -12 -40h-4l4 -28v-8l-4 -4q32 -52 32 -140l4 -4l-16 -36 h-4l-4 4h-4v-4q8 0 8 -12l-4 -48l32 -28q24 5 24 16l84 -4l36 16l24 -8h8q0 12 8 12v-4l4 4l40 -12l4 4h4l28 -8v4q0 6 16 12l44 -28q24 5 24 12l-4 12l4 4h28q9 0 12 -28l16 -8h4l16 4l44 -16l-4 -40v-12q-73 -25 -108 -48h-4q-3 20 -12 20q-32 0 -32 -16l4 -24l-4 -12h-4 l-4 4l-12 -8q-60 18 -120 64l-48 8l-48 -12l-44 28l-20 -4l-16 4q-32 -13 -32 -56q2 -92 16 -92l-4 -20v-16l4 -4v-4q-6 0 -12 -16l4 -4q-8 0 -8 -12t20 -12l16 -4l4 -16q-21 0 -48 -96q-24 0 -24 -8v-8q48 -20 48 -28v-32q0 -20 -8 -20q5 -90 64 -100h8l56 16h4 q56 -22 56 -40l8 -52l-44 -24l-36 4l-8 -8h-16q0 12 -36 12q-9 0 -24 20h-4q-44 -4 -44 -16l4 -28h-4l-24 24q-38 0 -48 28l-8 20l8 36l-32 32l-4 24v28l16 28l-16 32l36 32l-12 16v4h4l16 -4l4 4h4l16 -4v8q0 7 -28 16l-12 -4v4l4 4l-4 4v4l4 24l-4 60l8 44v20l-8 28l12 32 q-28 39 -28 52q9 11 12 40l-8 24v4l4 4v4l-8 8v8h8v24l-12 20l28 40l-16 56h16v4l-28 36q8 16 8 44l-8 8l4 36h-4l12 64l-8 32l20 52q-11 0 -24 64v32q-8 6 -8 44l-8 16l52 44q23 3 56 28l12 -4q16 6 16 12q23 0 56 -28q28 0 28 -8l92 16l4 -4q2 16 12 16h24q20 -1 20 -8 l12 4l64 -12zM718 189h12q0 -24 28 -24l72 -8h24q19 8 36 28q48 -52 48 -72l8 -20q-9 -47 -44 -76h-8l-4 4l-4 -4h-4l-44 4q0 -10 -56 -28q-12 13 -12 24q-28 0 -44 -8q-4 12 -24 12h-28l-20 -4q0 10 -40 20l-24 -8h-52l-40 8q0 -9 -20 -12q0 14 -28 20l-16 -16l-64 36 l-8 12v4q15 25 36 32l4 -4l8 8h20q19 -28 36 -28q21 7 24 28q21 20 32 20l12 -12q24 16 24 28q31 0 72 -12l4 4h4l24 -8q27 0 40 40z" />
<glyph unicode="&#xc9;" horiz-adv-x="1281" d="M847 1804v-8l-4 -24l4 -12l16 4l12 -4l24 8q4 -16 16 -16v-16l-4 -4l16 -32q-28 -50 -32 -72q-8 0 -8 -16q-25 0 -32 -40l-40 -36h-20l8 -8q-6 -16 -12 -16l-4 4v4l-20 -4l-32 4l-44 -40h-8q0 -11 -28 -24q-36 0 -42 4h-20l-12 -12h-6v-24q-16 -24 -40 -24l-4 4 q-12 0 -12 -16h-12l-4 12l-64 -16h-4l-16 8v8l-4 28q15 0 32 44q9 0 24 16l16 4l4 -4l4 4l12 4v4l-8 20l4 4h4l4 -4l4 4h4l4 -4h4l8 28l-8 20q0 22 72 56l28 76q0 26 12 28h44q0 28 36 32l12 12l16 -4l20 20v4h60zM208 1364q29 -4 44 -20q30 -4 40 -12l4 4h4l12 -4l4 4 l52 -12h4l56 8l20 -12l36 8l12 -4l12 4l24 -4l16 4l32 -12l24 4h8q0 28 48 28q23 -16 44 -20v-8h4q14 12 56 16l8 -8l12 20h4l36 -4l4 4h4l16 -4l20 4q24 -3 24 -8l36 8q35 -37 44 -72q5 0 12 -28q-5 -52 -40 -52q0 -14 -100 -32l-12 -44h-4q-9 2 -36 52l-20 4 q-32 -4 -32 -16v-32h-8q-5 28 -36 28l-24 -8l-4 4h-4q-32 0 -32 -36l-36 -40h-8v24q0 20 -8 20l4 4v20q0 28 -36 28q0 13 -48 20l-4 4h-8l-12 -24q-68 9 -68 28h-20l-40 4q0 -10 -12 -20l-48 8l-20 -12h-8l-20 4v-12l-20 4h-12l-4 -4l-4 4h-4q-32 -6 -32 -36l-8 -32l4 -28 q-2 -16 -12 -16v-40q0 -13 -12 -28q6 -31 16 -40l-12 -32q25 -108 60 -108l12 -28l28 -12v4q18 -4 24 -20v-4l-12 -36l4 -16l-4 -12h4q0 -36 -28 -36q-5 -12 -36 -24l-16 -44l12 -4v-12l-32 -44q24 -46 24 -60q-11 -60 -32 -60v-8l44 -56l-8 -44l4 -4l-8 -8l4 -28l-12 -8 q9 -76 28 -76q17 -16 64 -20l28 -8l4 -4v-4l16 4l56 -8q38 9 40 16l4 -4h4l12 8h4l72 -4q34 12 100 20l8 8q28 -19 28 -28l40 16v-4l36 12l20 -16l16 4l40 -16l20 4l40 -8l28 8q40 -14 52 -44q12 -15 12 -28l-16 -36l-20 -8q-3 -20 -12 -20h-4l-4 4l-36 -12l-20 4l-32 -4 l-16 4q0 -12 -24 -12v-4l-4 4h-4l-12 -4l-20 4h-44l-28 -20h-8l-20 20q-14 0 -52 20h-12q-15 0 -32 -20l-4 24h-8l-40 8l-24 -8l-4 4l-8 -8l-4 4v4q-61 -4 -80 -12l-16 4l-24 -8l-40 4l-4 -4h-4l-16 4l-4 -4l-4 4h-4l-4 -4q-25 2 -48 20h-4v-12h-12l-28 20l-4 -4h-4l-16 4 l-12 -8h-8q-15 16 -44 20q-16 21 -16 36v4l4 24l-8 32v32l12 20l-24 48l28 40q-16 22 -24 112q4 28 12 28l-4 20v4l4 4v4q-12 3 -16 16q3 25 20 48q-20 10 -20 32l4 20l-8 16q0 27 24 44q-6 112 -24 112q-12 0 -12 8v4l4 4l-8 20q24 44 24 84l-4 36q24 26 24 64l28 48 q-52 16 -52 36v16q8 7 8 40l20 16l-20 36v60l4 4l-4 4v4q8 96 24 96q17 6 24 20l36 -8l4 4h4l12 -4l4 4v4l4 -4h4q11 13 64 20zM296 788h4q12 0 36 -16l48 4l24 -4l20 4l44 -8q32 10 32 16l28 -4l36 4l32 -16l4 4h4q27 0 36 -44v-4l-4 -36l4 -16q-6 -32 -36 -32 q-30 -20 -68 -28q-2 -8 -20 -16l-20 20q0 -8 -44 -16l-12 28l-12 -4l-40 4v-4l-4 4h-8l-16 -8q-12 0 -12 16h-8q-15 -12 -28 -12q-44 18 -44 56q0 42 24 76v32z" />
<glyph unicode="&#xcb;" horiz-adv-x="1224" d="M67 1548v32q0 29 20 32l-16 36q44 25 44 56l72 32h4q88 -17 88 -40q44 -8 44 -36l24 -24q-16 -13 -16 -40l-16 -8v-12q12 0 12 -20l-20 -8v-32q0 -11 -36 -16q0 -20 -44 -32h-16q-78 26 -84 48q-28 6 -28 16l-4 -4h-4zM567 1550l28 148h-4q6 16 12 16h36l16 -4l36 12h16 q12 -12 44 -20q20 -14 24 -32l8 -8q0 -7 20 -8l4 -4v-28q0 -8 -12 -8l-4 -12l4 -4h4l4 4q0 -16 8 -16v-4l-20 -16q0 -13 -40 -40l-40 -36l-24 -4h-52q-16 4 -68 64zM100 1376h4v-8h-4v8zM824 1372h8l36 -28l16 4l40 -80l4 -4v-8q0 -13 -24 -40l4 -16q-32 -26 -32 -64 q-24 0 -24 32l-84 24q-12 0 -12 -12l-4 -4h-8q-23 32 -56 32l-12 12h-4l-52 -24l-12 -12h-8l-44 8l-12 -16l-4 -4h-12q-9 1 -24 36l-44 8l-16 -8q-60 4 -60 12q-13 -1 -40 -40l-32 -12l-36 20l-20 -4q-5 36 -56 36l-16 16h-4l-12 -12l16 -16h-12l-28 4q0 -8 -20 -8l-4 -4 l-8 -12l4 -40l-8 -8l24 -76v-12l-12 -12q0 -74 28 -112v-20q-16 -21 -16 -36v-8l8 -12v-28l12 -4l12 4l4 -4v4q36 -5 36 -12l-4 -20h4q64 0 92 20l12 4q0 -16 36 -28q29 32 48 32l12 -4l8 8q0 -8 24 -16l24 12q120 -20 120 -44q0 -28 32 -28l16 -24v-8q-4 -11 -44 -28 q0 -12 -48 -48v-4h-12q-12 12 -28 12v4l-20 -4h-16l-28 24l-16 -4l-56 4l-40 -8q-46 0 -60 28l-20 4l-64 -28q-25 -20 -64 -20v-8q0 -8 12 -8v-28q0 -15 16 -36l-8 -24h4q-16 -21 -16 -64v-20l12 -52l-8 -40l8 -8l-12 -60q5 -29 16 -40l-4 -4l4 -4v-8h-12l16 -24l20 -32h8 l16 4q33 -10 76 -36l72 16l8 8h12q0 -32 24 -32q32 12 32 24l36 -8l8 12q42 -36 108 -36l24 8l40 -4l20 20q56 0 56 -28h20q26 32 36 32q21 -12 64 -12l24 12h52q22 0 28 -20l-4 -16l4 -12q-41 -68 -52 -68q-3 -14 -48 -40h-8l-12 8h-28q-77 12 -92 28l-32 -24l-4 4h-36v-8 h-8q-24 8 -24 24q-26 -24 -40 -24l-24 8q-10 0 -22 -10h-4l-4 4h-4l-34 -2l4 -4l-39 -5l-4 4h-48q-18 0 -46 10q-21 4 -61 9q-19 -6 -36 -6q0 16 -12 16h-4q-6 0 -24 -2q-17 0 -36 -12l-32 8l-4 -4h-4l-46 26l-4 4v12q1 20 8 20q-24 25 -24 56l8 20q-40 14 -40 36l4 48 l-8 20q0 12 12 12q40 50 40 84v16h-8v12l8 28l-16 24v4l4 12l-8 68q12 4 12 24l-12 24l8 32l-8 24v4l12 44l-4 28l8 24v8q-12 15 -12 28l4 12l-12 24l8 64l-12 20v8l8 16l-8 24v40l-4 4l8 24v4l-4 16l4 16v20l-8 8l4 40q0 10 -16 28v8l12 16v4q0 60 -8 60l4 20v28 q32 38 32 68q9 0 12 20h4l12 -8l16 4l48 -8l24 8l60 -16q33 20 56 20v-4q4 -20 20 -20l4 4v4l48 -8h24l12 -8l56 20l52 -12l24 12l20 -4l24 4l60 -4q18 -28 36 -28l44 8q31 28 72 28l16 -4z" />
<glyph unicode="&#xcc;" horiz-adv-x="800" d="M288 1442l-2 15q-16 0 -16 12l-12 -8h-4l4 20q0 7 -20 8h-4q-1 -16 -28 -16q0 28 -52 32q-56 0 -56 44l12 24q0 12 -24 12v12l4 4h-8q0 -27 -44 -36h-20v16h-4v-4l-8 -16v-4l-12 4l-8 -8l-16 12q-4 43 -20 88v44l12 16v28q15 56 48 56l12 -4l12 4l16 -4q41 4 52 12 q2 -8 20 -16l16 4h8q38 -18 40 -28v-20l-12 -12l12 -16h12l4 4q37 -21 72 -64l-4 -4v-4l4 -4q16 0 44 -24l-4 -20v-4q44 -35 44 -60q40 -27 40 -68q-10 0 -12 -16h4l-2 -6q57 -17 57 -42q0 -16 -20 -36l4 -4v-20q0 -16 -20 -32l-4 -24l8 -12l-4 -20l4 -40l-8 -52l8 -44 q-28 -14 -28 -40v-12l20 -24v-4l-12 -16v-8l12 -16q-12 -17 -12 -32l8 -20q-11 -1 -16 -20l8 -40l-8 -24q8 -8 8 -36l8 -12l-8 -68q0 -31 32 -56v-12q-29 0 -36 -60q13 -12 20 -68q8 0 8 -16q-11 0 -16 -40v-20l40 -44q-32 -9 -32 -20l4 -36l-4 -4h-4l-12 4l36 -40 q0 -17 -28 -68l-8 -40l16 -72l8 -8l-28 -108q-12 0 -20 -24l-40 -8l-24 4q-11 -1 -16 -20q-76 25 -76 92v40l8 12v16q-12 14 -16 48q4 48 12 48l-4 4v4l12 32h-4l4 4l-16 76l16 52l-4 24l4 12q-13 0 -16 56q12 3 20 28l-8 28l12 72l-8 64l4 12l-8 8h-4l8 88l-8 16l12 28 l-8 28l4 20l-8 32l4 36v8l-4 36l12 44l-8 72l8 12q-11 19 -16 96l4 32v32l36 68v40q12 0 35 29z" />
<glyph unicode="&#xcd;" horiz-adv-x="829" d="M377 1423q13 -7 15 -11v-8l-4 -16l28 -44l-4 -48h4q15 0 24 -20l-16 -48l4 -16q0 -21 -20 -56l20 -24l4 -16v-8l-4 -16l4 -16v-16q-12 -12 -12 -28l-16 -12l4 -28l-12 -52l8 -12l-8 -60l16 -16v-12l-16 -24l4 -40v-12l-4 -36l20 -40v-8h-4l4 -28v-28l-48 -80 q36 -33 36 -124l-4 -12l8 -8v-20q-8 -7 -8 -40q-12 0 -12 -20h-4q8 -32 24 -32v-28q0 -8 12 -8v-36l-4 -36l4 -16l-8 -40l8 -8l-4 -64v-4l-52 -60l-20 -8q0 9 -40 16l-36 28q0 23 -48 68q0 34 20 68h-4l4 4v4l-12 48l12 20l-4 4v12l8 32l-16 40h4q24 6 24 28v8q0 13 -24 44 l-4 32l8 16l-4 4q8 0 8 12q-20 32 -20 56l12 24l-4 12q7 0 12 24q-14 39 -40 68l8 52l-8 8q9 24 28 24v20l8 12l-4 44h4l-4 4v8l4 32l-4 32h24l4 12q-24 26 -24 48q0 38 -16 52l12 28q3 43 20 68l4 32q-7 67 -28 92l-4 12l8 8q0 39 -20 52v28q0 40 36 44q28 0 28 24 q20 6 20 28q5 12 14 18q-3 1 -5 2l-4 20h4q-2 16 -12 16q0 41 40 68q0 25 44 60v4l-4 20q28 24 44 24l4 4v4l-4 4q35 43 72 64l4 -4h12l12 16l-12 12v20q2 10 40 28h8l16 -4q18 8 20 16q11 -8 52 -12l16 4l12 -4l12 4q33 0 48 -56v-28l12 -16v-44q-16 -45 -20 -88l-16 -12 l-8 8l-12 -4v4l-8 16v4h-4v-16h-20q-44 9 -44 36h-8l4 -4v-12q-24 0 -24 -12l12 -24q0 -44 -56 -44q-52 -4 -52 -32q-26 0 -28 16h-4q-20 -1 -20 -8l4 -20h-4l-12 8q0 -12 -16 -12l-4 -40l-20 4z" />
<glyph unicode="&#xcf;" horiz-adv-x="825" d="M249 1412l28 -12l16 12h8l48 -40l20 -4l4 4h4q24 -10 24 -36l-4 -36l4 -4q0 -10 16 -12l8 -24q0 -34 -16 -84q9 0 12 -32l-4 -16l8 -32q-4 -16 -20 -32l-8 -44l36 -8l20 4l4 -4v-8l-64 -32v-36l12 -12h4l4 4h4q17 -14 28 -40v-4q-12 -10 -12 -32q-44 0 -44 -56l8 -36v-12 l-4 -4v-4q16 -8 16 -20h4l-4 -4v-12l4 -24q-12 -27 -12 -60l12 -24l-16 -32l4 -20l-4 -4h-4l12 -124q-12 -22 -12 -44l8 -8l-16 -52q5 -44 20 -44l-4 -20v-8l12 -40q8 0 12 -44h-4l4 -12q0 -7 -28 -24v-8q17 -25 24 -52l-32 -52h-20q-35 -28 -72 -28q-56 21 -56 48 q-13 0 -24 76h4l-16 48l12 28q-12 4 -12 24l8 8l-4 20l8 28h-4l-12 12v16h12q0 45 -28 68l-4 24v4l8 16h36l4 20v4q0 34 -12 48v28l12 16l-4 28l16 60l-16 48v24q0 8 12 8l4 4v16q-7 47 -16 56v8q1 28 8 28l-4 4v4l8 12v12l-8 12l4 36h-4l4 12l-4 12l8 8v12l-4 20l4 4l-8 8 q9 15 16 60q-6 28 -12 28l4 4v12l-16 60l8 20l-8 36l4 16q-10 0 -20 44l4 52l-4 4l-4 12h-4l4 4v4q-16 33 -16 64l40 36l20 -4l4 4v4zM409 1634q0 8 18 14l4 7l-4 19v2q5 0 15 16q10 3 24 21q20 6 20 9l-2 3q35 24 35 30h8v-5l-2 -2q0 -6 15 -14h3l8 5l11 -3l29 26 q11 0 11 -12l4 -9h11l2 -2h2l-2 -3v-2q23 -31 26 -56l5 -9q8 0 8 -7h11l3 2h2q7 -12 19 -21l3 -16h-5v-2l2 -12q-7 -4 -15 -28l-6 -7v-4q0 -5 6 -5l2 -2v-7q-5 -14 -26 -21v-14q-9 0 -9 -5l2 -2v-3l-30 -32l-2 2h-9q-6 -23 -13 -23q-24 11 -24 23l-7 3l-35 -10q-43 4 -43 10 l-2 -3h-3l-4 5l2 18q-8 7 -19 7q-9 14 -9 24v18l-20 17v4l2 3v2q-13 5 -13 23zM-99 1611l3 9l-3 38h3q15 0 32 53l28 11l50 25l2 -3h3l10 3v-3l2 3h3l10 -3l10 6q22 -20 47 -20l3 -3l10 -5l2 3l13 -3h17l8 -8v-3h-10v-3h12v-3q-7 0 -7 -5l5 -6v-3l-3 -2v-3q20 -6 20 -19 l-2 -11q1 -9 30 -36v-9l-28 -8v-11l3 -19q-14 -3 -25 -39l-8 -8l-12 2h-5q0 -24 -30 -33q0 -19 -60 -36l-10 -2q-11 27 -20 30h-23l-10 -6q-12 5 -30 25q-11 69 -27 69q-7 36 -13 36z" />
<glyph unicode="&#xd2;" horiz-adv-x="1297" d="M570 1164l8 -16q-5 -16 -20 -24l-8 12v24zM450 1252l-24 8h-12q-19 0 -88 -44q-20 0 -44 -32l-16 -12l-20 8q0 -17 -36 -48q0 -29 -24 -60q-15 -76 -44 -76l-20 -92h4q-20 -28 -20 -84q16 -8 16 -20q-7 -33 -16 -36l8 -44l-4 -24l8 -40l-16 -52l4 -20v-32l-4 -16 q24 -34 32 -72q9 0 20 -64q17 0 36 -88l32 -32l16 4q28 -17 28 -32q0 -28 40 -52q0 -11 44 -28l4 4h4q13 0 28 -12h12l24 8l44 -4l16 16l32 -20l24 8q12 0 12 -16l4 -4h4q20 0 36 24l40 8l4 -4h4q9 0 36 24q44 13 44 48v16l44 24v4q0 15 -24 52l4 4h8l12 -8q52 44 52 64 q12 0 24 80q12 32 36 56l4 12q-16 36 -16 68h-4q15 26 24 76v12q0 14 -24 44v24q36 38 36 76q-20 32 -28 84q-12 3 -32 72l-4 4v4l8 16q0 23 -36 40l-4 12l-20 -12q-12 1 -28 72q-15 12 -32 56q-10 15 -56 20q-26 20 -40 20h-60q0 16 -44 20q-22 -12 -72 -12zM503 1381 l-97 36q-8 16 -36 36l-20 -8q-2 8 -40 16l-8 -8h-8q-7 28 -16 28h-4l-16 -12h-4q-19 24 -32 24v32q0 20 -12 24h-52q-12 12 -28 12q-3 16 -20 20l-24 28q-3 45 -16 56v12q24 40 40 40l40 72q32 0 32 -16h32l24 -8l12 4l16 -4h12l8 -32q66 -40 88 -100q0 -21 36 -28l48 -44 q0 -16 24 -52q20 0 20 -16q0 -23 24 -32q4 -45 12 -56l-7 -26l3 -3h20q0 12 8 12q33 0 64 -32l28 4q25 0 48 -12l16 16h12l28 -36q52 -40 88 -80q21 0 72 -92l8 -32l-8 -16q16 -29 20 -68q16 -9 24 -72l-4 -4v-4l28 -72v-36l4 -44q-8 -20 -8 -60q12 -2 12 -28l-4 -36 q7 -8 12 -92q-18 -81 -24 -84q0 -28 -32 -52q0 -20 -8 -20l4 -4v-8l-4 -4l16 -24v-28l-36 -28l8 -12q-8 -40 -56 -140l-68 -100l-12 -8h-8q-8 0 -8 16l-4 4h-4l-32 -8v4q-77 -49 -108 -52l-44 -36l-4 4h-40l-40 -36l-32 12l4 12h-4l-4 -4l-4 4h-12l-48 -8h-8q0 29 -64 44 l-32 -4l-16 24q-44 16 -68 60l-32 52l4 16q-12 0 -12 16q-11 16 -20 16l-28 8q0 20 -32 20l-16 20l4 32q-18 0 -32 84l-4 4l-24 28v4l-4 52q6 32 12 32q-3 35 -36 80v4l8 164l28 56l-4 4l8 60l-4 56q19 14 32 120q24 91 36 100l56 60q0 12 16 24q0 7 36 36q0 18 28 24 q10 44 32 44l60 8l24 -4q21 0 36 28l4 4h4l4 -4l16 4l60 -4q0 12 33 17z" />
<glyph unicode="&#xd3;" horiz-adv-x="1346" d="M538 1386l-6 25q8 11 12 56q24 9 24 32q0 16 20 16q24 36 24 52l48 44q36 7 36 28q23 60 88 100l8 32h12l16 4l12 -4l24 8h32q0 16 32 16l40 -72q16 0 40 -40v-12q-13 -11 -16 -56l-24 -28q-17 -4 -20 -20q-16 0 -28 -12h-52q-12 -4 -12 -24v-32q-13 0 -32 -24h-4l-16 12 h-4q-9 0 -16 -28h-8l-8 8q-38 -8 -40 -16l-20 8q-28 -20 -36 -36l-74 -26q26 -13 38 -13l-4 -28l8 -8h16l28 24l80 -36q36 0 36 -20q19 0 44 -32q17 0 36 -76q68 -41 68 -92q9 -27 24 -40l-16 -24q0 -16 32 -52l12 -80q0 -7 -28 -24q-3 -20 -32 -20h-16q-19 12 -48 108l4 16 l-8 88q-18 0 -24 40q-48 0 -48 48q-67 60 -124 60q-24 32 -64 32h-12l-16 -4l-4 4l-20 -4h-12l-20 16l-32 -24h-4l-4 4l-56 -28l-20 -4l-16 4h-4q-25 -8 -36 -40q-28 0 -28 -36v-24h-4q-24 0 -24 16q-17 -20 -40 -20l-16 -32l12 -20v-20l-52 -20l-8 -20q13 0 16 -40 q-7 0 -12 -28q-26 0 -44 -76l-16 -20v-4q12 -15 12 -28v-12l-4 -4l8 -36q-32 -68 -32 -84l12 -40q-10 -24 -24 -24v-24q0 -8 12 -8q11 -17 24 -84q10 -2 36 -44q12 0 12 -8v-4l-16 -20l20 -60l16 -28q10 0 28 -28l32 -36q51 -40 84 -40q46 -40 164 -40l28 -20l68 28 q32 0 56 20v-4q24 0 40 36q38 0 52 44q30 0 36 68q36 56 60 76q0 11 36 56v12q-16 44 -16 68q12 37 16 84l8 16h-4l4 4v4l-4 4l4 4v4l-8 40l12 44l-8 16q12 16 20 52h12l16 -12l24 16l4 -4l16 8q19 0 24 -36l-8 -24l28 -92l-4 -4l12 -84l-8 -8h4l-4 -12l12 -28l-28 -28v-8 q0 -74 -44 -152l-4 -60l4 -24l-36 -100q-76 -35 -76 -56q-60 -13 -60 -28l-8 -20l4 -12q-87 -31 -120 -68l-24 8h-24q-61 -20 -92 -20l-56 -4l-28 12q-9 0 -40 -32h-4q0 11 -20 20q-49 56 -92 56l-20 -4q-23 56 -56 56q-48 49 -80 100l-4 4q-7 0 -8 20q-15 0 -44 48 q-21 13 -36 44l4 4l-4 20l4 20q-3 44 -20 44l24 88l-8 60l4 4h4l4 -4h4l8 16v16q-16 -8 -16 -20h-12l-8 24l-4 -4h-4l-8 8v4q16 0 16 32v4l-8 8l4 4l-4 16l4 36q-12 4 -12 24l4 4v4l-24 48v8q0 57 20 104l-8 24q36 35 36 88q33 23 48 96l20 40q7 56 24 56q16 0 28 24l-4 4v4 q1 17 60 68q31 40 104 40q0 13 52 28h16q13 0 28 -12h16q16 0 68 28q17 0 30 2z" />
<glyph unicode="&#xd6;" horiz-adv-x="1283" d="M291 1462h-32q-29 0 -32 20l-36 -16q-25 44 -56 44l-32 72v4q17 88 40 88q8 44 36 44l24 24q13 -16 40 -16l8 -16h12q0 12 20 12l8 -20h32q11 0 16 -36q20 0 32 -44v-16q-26 -78 -48 -84q-6 -28 -16 -28l4 -4v-4zM773 1482l-148 28v-4q-16 6 -16 12v36l4 16l-12 36v16 q12 12 20 44q14 20 32 24l8 8q7 0 8 20l4 4h28q8 0 8 -12l12 -4l4 4v4l-4 4q16 0 16 8h4l16 -20q13 0 40 -40l36 -40l4 -24v-52q-4 -16 -64 -68zM604 1394q42 -3 92 -52q23 -20 56 -20q0 -7 20 -12q0 -8 12 -8q21 0 48 -76v-8l-4 -40l24 -12q0 8 12 8q23 0 28 -44 q9 -20 32 -20q3 -24 8 -24l-4 -12q0 -20 8 -20l-4 -12q0 -25 24 -84l-4 -36q16 -13 16 -108q6 0 12 -36q-24 -39 -24 -52q0 -49 16 -68q0 -30 -20 -40l4 -4v-20q-24 -27 -24 -64l12 -4v-24q20 -26 20 -40q-44 -51 -44 -152q-32 -18 -32 -40l-4 -4q0 -11 -28 -16v-8l4 -16 q-3 -19 -24 -40q0 -23 -60 -76q0 -16 -24 -16q-19 -23 -68 -36q-20 -20 -20 -32l-44 4l-44 -24l-44 8l-20 -24q0 8 -28 8v4l-24 -8h-36q0 28 -44 36l-60 -8l-12 4l-4 -4q-28 49 -92 76h-8l-20 32l-4 16v4q16 84 32 84l16 12q56 -12 56 -32l40 -24q4 -16 20 -16l4 4h4 q47 -24 80 -24q20 10 20 24l92 -24h4l68 52l28 -4l20 4l24 -4h8q52 33 52 96l4 4q0 20 40 32q0 19 40 56q12 39 12 72l-8 24v4l4 4q0 7 20 8l16 44l-4 28l12 60v4l-8 12v24l8 12l-4 28l24 4v4l-20 60v28q-16 0 -16 12v4l4 16l-4 16l4 24q0 44 -20 64l4 4v4l-4 4v4l8 36 q0 17 -48 48l-8 32v8l12 24q-19 0 -36 72q-19 15 -68 24q0 8 -48 28q-12 28 -40 44q-14 0 -36 -20h-8q-19 16 -68 16l-24 8q-7 -8 -96 -20q-20 -19 -20 -40h-8l-56 16v-4l-4 4h-8q-32 0 -32 -40h-4l4 -4v-8q-21 -44 -56 -44q-31 0 -40 -48q-7 0 -12 -44l-16 -16l4 -12 q0 -28 -28 -60q-20 -32 -20 -100l8 -24v-12l-16 -24l4 -28l-8 -12l12 -88l4 -8l8 -24q-16 -2 -16 -12l4 -20l-4 -20l12 -24q-5 -32 -12 -32q13 -20 24 -60q28 -22 28 -68l24 -28l-12 -20q12 -15 12 -28v-16l28 4q20 -8 20 -32q-4 -28 -12 -28l-20 4q-17 0 -44 -24h-4 q-12 0 -12 28q-15 0 -40 40v32q-11 0 -32 20l-4 -4l-16 12v20l16 4v4q0 23 -20 40l-4 36l4 4v4q-21 35 -36 96l16 32q-18 0 -24 72l-4 4v4q0 28 12 28v24l16 24v8q-24 30 -24 48v12l12 40q-5 11 -36 28v8q0 8 40 28l8 16l-4 4v4q42 79 60 168q60 66 60 88q12 0 32 48 q31 30 72 44q31 52 68 52l64 24q120 -9 120 -16l56 24l60 -4zM812 142h8v-4h-8v4z" />
<glyph unicode="&#xd8;" horiz-adv-x="1304" d="M852 1408l56 -20l24 4q22 0 28 -100l4 -12q-6 -41 -32 -68q-20 0 -36 -44h-8l-8 -12l24 -24q14 -72 20 -72q12 0 16 -36l-8 -20h4l-4 -4v-16q28 -23 28 -40l-4 -4v-4q24 -62 24 -80v-32l12 -16v-12l-4 -48h4l-4 -4v-4l8 -48q0 -12 -24 -20v-20q18 -48 24 -48l-4 -20v-28 q-13 0 -20 -40l4 -48l-40 -152l4 -28q-1 -15 -36 -28q-10 -36 -32 -36l-20 8v-4l-8 -20l8 -16q-37 -21 -48 -80q-38 -42 -68 -56l-4 -24l-40 8q-42 -32 -56 -32l-20 4l-36 -12l-4 4h-24q-16 -12 -44 -12l-48 12l-12 -8h-4q-16 8 -16 20h-16l-4 -16h-4q-7 0 -12 20l-52 8 l-4 -4l-4 4q-28 -47 -28 -64h-12q-8 23 -8 68l-16 16h-4q-25 0 -52 -68q-20 0 -44 -36l-16 -4q-60 0 -60 40q-8 0 -16 24l4 16l-4 4v4q0 80 36 80q4 12 28 28l-4 20v20h8v4l-24 28q0 67 -40 80q-28 13 -28 20v52l8 12q-12 15 -12 28v16q-10 0 -28 16q4 29 20 48 q-56 8 -56 56l-4 32q0 56 36 56l8 16q-28 11 -28 36l12 28l-8 76q10 12 20 12v24l4 16v4h-4q0 -12 4 12q0 12 8 12l-4 12q0 26 48 72l4 16v16q0 13 -12 28q0 18 32 92l-4 36q25 48 52 48q8 7 8 40l4 4l56 28q7 28 40 40q20 16 20 48l48 28h8l12 -4v4q0 12 8 12h12 q0 -12 20 -24h8q19 0 32 24l12 -4l36 4l60 -24l28 4q92 -16 92 -32q64 -21 64 -36h8q20 0 20 8l12 -8l-4 -4v-4q8 -32 44 -32q12 3 16 16l-8 28q6 0 12 16l-4 36q22 60 40 60zM336 1184l-12 4l-8 -16l4 -12h-8q-29 0 -96 -60l8 -24v-32q0 -35 -36 -44q-28 -19 -28 -96 l-20 -36l4 -4v-4l-4 -4l4 -16q0 -24 -24 -88q-24 -22 -24 -36q24 0 24 -76l12 -88q-8 0 -8 -12q20 -44 20 -64v-4l-4 -20l16 -16v-8l-20 -44l20 -12l16 4q40 -18 40 -52h28q25 0 44 52q24 8 24 16l-8 36v4q29 25 36 56q15 0 64 100l44 52q21 4 32 24l-4 20v4q48 43 48 64 l4 24l-4 28q0 17 44 48q28 68 36 68q19 17 28 40l-4 4v4l4 24v8q19 0 40 56h8q20 76 44 76v4l-4 36h-12q-8 0 -8 -12l-4 -4h-4l-28 24l4 4v4q0 36 -44 36l-4 24h-4l-16 -4l-32 12h-12l-12 -8l-32 8q-49 -17 -52 -24l-76 -32q-24 -16 -44 -16zM776 980l-32 -20q0 -34 -32 -72 l-4 -16l-20 4q-1 -9 -40 -24l-36 -56q0 -10 -12 -20l12 -16v-4q-12 -8 -16 -60q-9 0 -52 -104q-2 -23 -60 -60q-24 -28 -24 -48q0 -31 -48 -68q0 -22 -28 -60q-32 -19 -32 -40l4 -16q-7 0 -12 -24l4 -16q-24 0 -24 -28l-4 -4l4 -4q20 0 20 -32q14 -32 68 -48q11 -12 56 -16 v-4l80 20l4 -4h4l24 4l12 -4l8 8l12 -4v4q0 23 16 44l4 -4h4q44 8 72 44q31 0 40 44q19 16 36 16v12l-4 4l8 32h-4l16 24q0 22 28 40l4 4v4q0 20 -8 20q7 30 40 72q0 34 8 52h-4l4 4v12l-4 4l4 4v12q-20 26 -20 40v4l20 44l4 20q-12 31 -12 56q-36 67 -36 100l4 4h4 q-15 58 -28 72l4 4v4q-19 40 -36 40z" />
<glyph unicode="&#xd9;" horiz-adv-x="1218" d="M826 1408h8q56 -12 56 -56q0 -28 12 -52l-4 -32q12 -21 12 -56l-4 -4q8 0 12 -48l-4 -32l4 -4l-4 -4v-12l4 -44q-8 -29 -44 -44v-4l8 -32l-4 -36l4 -40l-4 -16q4 -38 16 -48v-4l-12 -44l4 -24l-4 -4v-4l20 -52q-12 -13 -16 -60q28 -79 28 -120q-24 -59 -24 -96l-4 -12h-4 l28 -44v-20q-14 -72 -36 -72q-23 -25 -36 -76q-60 -37 -60 -112l-8 -8l-20 4h-16q-28 -17 -28 -24v-8l8 -32l-12 -8h-4q-33 20 -56 20h-8q-36 -48 -108 -48q-18 -25 -60 -36h-4q-35 23 -36 36l-32 28h-4l-16 -8l-32 20q-4 -16 -20 -16l-52 12v-4l-32 24q-51 22 -92 68h-8 q-12 0 -12 -12h-8q-13 60 -44 92q-12 0 -24 60q-10 0 -20 44v8q12 15 12 28v8l-8 48l16 60l-8 28l4 16q-16 32 -16 56l20 136h4l-8 40l8 12q-21 27 -44 120v24l8 12v16q-17 15 -24 60h-4q0 28 52 124l-28 128l4 4q0 12 -12 12l-4 4v12l20 28l-4 32q0 37 68 72h4q35 0 72 -40 v-4l-4 -36l28 -60v-12l-32 -40v-4q4 -13 40 -28v-4l-12 -16h-8l-20 4l-8 -24v-12q1 -20 8 -20q-8 -18 -8 -52v-4q0 -13 20 -44v-16l-40 -52q4 -68 12 -68q-2 -16 -12 -16l4 -28v-20q12 0 12 -28l4 -4l-4 -24q12 -20 12 -40v-28l-4 -16l4 -16l-12 -80l24 -60q-24 -40 -24 -52 l4 -12l-8 -60q2 -13 40 -68q0 -16 76 -80q2 -18 80 -24q0 -6 28 -16q0 -14 80 -32l80 28q34 0 52 -8q32 0 60 44q10 2 44 68l24 12v-4q28 0 40 84q19 40 32 40l-8 24q4 58 16 84l-8 32l12 36v32l-32 108l4 64l-8 68l8 32v24q20 23 20 40v36l4 4l-24 28l-4 32l4 20 q-12 37 -12 68l4 16l-4 12l20 60v40q0 25 -20 44v12q0 56 56 56zM136 1811q14 -16 48 -20l16 8q27 -14 40 -32l12 4l24 -8l-4 -28q0 -28 24 -28q20 -32 36 -32q58 -76 84 -76v4q32 0 32 -68q48 -40 48 -48q36 -20 36 -36v-4l-4 -4l8 -36l-4 -4v-20q-13 0 -60 28l-48 -32 l-4 4q-18 36 -36 36q-21 0 -40 -20h-4q-10 56 -24 72q-19 0 -28 12q-28 0 -60 32q0 13 -48 20q0 44 -104 44q-19 36 -28 36l-4 60v36q0 40 20 40v4l-4 4v8q9 0 24 16q37 28 48 28h4z" />
<glyph unicode="&#xda;" d="M795 1806q11 0 48 -28q15 -16 24 -16v-8l-4 -4v-4q20 0 20 -40v-36l-4 -60q-9 0 -28 -36q-104 0 -104 -44q-48 -7 -48 -20q-32 -32 -60 -32q-9 -12 -28 -12q-14 -16 -24 -72h-4q-19 20 -40 20q-18 0 -36 -36l-4 -4l-48 32q-47 -28 -60 -28v20l-4 4l8 36l-4 4v4 q0 16 36 36q0 8 48 48q0 68 32 68v-4q26 0 84 76q17 0 36 32q24 0 24 28l-4 28l24 8l12 -4q13 18 40 32l16 -8q34 4 48 20h4zM92 1432q35 -13 72 -56q8 0 12 -32q8 -2 16 -20q-12 0 -12 -8l4 -12l-4 -36l4 -28q-4 -21 -24 -32l-12 -28l4 -32q-8 -11 -12 -56q0 -21 32 -112 l-4 -20l12 -28q0 -34 -20 -48q0 -22 -16 -56q0 -27 24 -52v-40q-24 -35 -24 -64l4 -12h-4q7 -24 12 -24l-8 -36l8 -28l-8 -16l4 -4v-12l-8 -44v-36q0 -41 12 -84l-16 -20q24 -34 24 -52q0 -12 8 -12h4l12 8q7 -1 40 -56h4l4 4h4q18 -2 76 -56l24 -8l4 4h4l76 -24l20 4l16 -8 q108 11 108 36q92 12 92 32v16l-4 20q51 22 76 48q25 59 48 84q0 40 -24 68l-4 56v24l4 16l-8 24q11 0 16 40l-16 24v12q36 56 36 84q0 25 -28 100l-8 8l8 92l-8 24v16l8 32l-4 32q7 32 12 32l-20 92v20l8 44v56l4 20q-8 0 -24 40q17 63 40 72q136 -5 136 -64l12 -40l-8 -24 l4 -4q-11 0 -16 -52l4 -20l-24 -76l36 -68l-12 -76l8 -36v-24q-14 -18 -28 -68l4 -36l-12 -12v-24l8 -32v-36l-12 -16l8 -24l-8 -24v-12q7 -50 44 -96l4 -36q0 -20 -8 -20l4 -20v-8q-16 -13 -24 -76l8 -8l-8 -24v-40l-32 -72l-32 -76q-31 0 -64 -60q-1 -8 -40 -36 q0 -22 -60 -36l-32 8q-32 -8 -48 -28l-48 -8h-16q-16 -8 -16 -24l-60 4l-40 -24l-24 16q-24 0 -36 16l-40 20l-20 -12q-30 0 -40 28q-72 0 -92 48q-6 20 -28 20q0 11 -32 64q-12 46 -28 72q0 28 -32 28q-16 12 -16 24h4l-4 4q3 32 8 32l-8 16l8 40l-16 40l20 56v12 q0 32 -20 32v8l12 48l-4 4l4 4v4l-4 40q0 37 24 40v8q-25 22 -36 76v4l12 52l-8 16l12 28v8l-8 12v8l4 4l-8 28l4 16l-4 16q0 51 24 88v16q-26 23 -32 64l12 36v12l-4 24l12 24l-8 12v4q12 17 12 32l-24 56v32q21 21 44 64q12 8 48 12z" />
<glyph unicode="&#xdc;" d="M818 1418q29 0 60 -40q8 0 8 -20q32 0 32 -48q-12 -44 -32 -68v-4l20 -80q-16 0 -16 -92q8 -36 16 -36l-4 -16l4 -32q-11 0 -16 -40q9 0 12 -60h4l-16 -44l8 -32l-4 -28l24 -60l-28 -40l8 -24v-8q-12 -15 -12 -36l4 -16l-4 -12q20 -37 20 -56l-8 -36v-8l16 -28l-16 -76 l4 -20q-7 -31 -16 -32l8 -16q-11 -64 -44 -64l-8 -28l8 -32q0 -11 -32 -28l-4 4h-4q-28 -31 -28 -48q-26 -32 -60 -32q-50 -19 -116 -92q-8 0 -16 -20l-20 -4l-20 20q-31 -2 -48 -16q-8 0 -8 12h-36l-12 -8h-12l-4 4h-4l-8 -8q-73 20 -100 40q-29 0 -88 36q-12 8 -12 40 q-104 14 -104 40q-36 65 -52 72q-15 14 -24 88q-32 42 -32 56v4q0 27 28 48l4 20l-4 36v4l16 48q-20 27 -20 64l4 24l-12 60l12 40l-4 16l4 12q-13 0 -16 56l-16 32q13 122 28 136l-12 32q4 38 16 48l-20 44l4 12l-4 24l8 32l-4 20q0 28 8 28l-24 28v40l-12 40q47 92 80 92 l72 -20q0 -8 12 -8q3 -35 12 -44v-88l-12 -16l8 -8v-64l-4 -4l4 -4v-24q-24 -30 -24 -44q16 0 16 -28l-4 -48l4 -4v-4l-8 -28l4 -20l-8 -36l4 -20v-36l12 -16v-44l8 -68l-4 -4q-8 -1 -12 -24h4q11 0 16 -40q-16 -33 -16 -68v-8l16 -56q-16 -27 -16 -52l-12 -12q0 -23 36 -44 l8 -12v-20l-12 -36l12 -40l-4 -4q23 0 72 -68l16 -4l24 4h8q9 -2 40 -44l48 -20l4 4h4q19 0 72 -28l28 -4v4q0 36 124 36q29 0 44 44l28 24q48 26 48 76l52 28q0 12 -12 12l-4 4v16l8 36q0 17 -16 48l24 136q0 14 -28 64l-16 112q1 12 32 28q-4 31 -24 60v8h4l-4 40v16 l12 52l-8 36l4 12q-16 48 -20 104l24 48v4q-6 33 -32 76v76q0 59 56 72q0 20 24 20zM67 1558v32q0 29 20 32l-16 36q44 25 44 56l72 32h4q88 -17 88 -40q44 -8 44 -36l24 -24q-16 -13 -16 -40l-16 -8v-12q12 0 12 -20l-20 -8v-32q0 -11 -36 -16q0 -20 -44 -32h-16 q-78 26 -84 48q-28 6 -28 16l-4 -4h-4zM567 1560l28 148h-4q6 16 12 16h36l16 -4l36 12h16q12 -12 44 -20q20 -14 24 -32l8 -8q0 -7 20 -8l4 -4v-28q0 -8 -12 -8l-4 -12l4 -4h4l4 4q0 -16 8 -16v-4l-20 -16q0 -13 -40 -40l-40 -36l-24 -4h-52q-16 4 -68 64z" />
<glyph unicode="&#xdd;" horiz-adv-x="1266" d="M889 1425l4 -4v-4l12 4q43 -17 48 -36l-4 -40l12 -12v-8l-4 -16l8 -28q0 -13 -40 -32l8 -32q0 -34 -32 -44q0 -36 -36 -36q0 -8 -20 -8v-8l-4 -24q24 -40 24 -56l-20 -16l-28 8q-9 0 -28 -32v-44q-25 -26 -32 -60q-12 -28 -24 -28l-32 -44q0 -32 -16 -44l-16 -68 q0 -16 -16 -16l-12 4l-28 -24l16 -76v-4q-45 -34 -60 -84l-36 -40v-4l4 -4l-16 -36v-4l12 -24l-12 -64v-28l8 -24l-16 -44q0 -22 28 -64v-8l-4 -4v-4l12 -48q0 -24 -24 -84q0 -29 -36 -52q-24 -2 -24 -12l-4 4h-4l-36 -4q-36 35 -64 120q0 72 28 108l16 48q-36 98 -36 136 l20 92q-15 52 -28 52l-24 36l4 20q0 20 -32 44q-13 72 -40 72l-12 -4l-8 48l4 20q-5 56 -20 56l-12 -4l-8 12v12l12 16q0 10 -44 56v8l4 4q-8 31 -36 52q0 11 -28 36q0 20 -16 20v32l4 4q-33 71 -76 96q-28 37 -28 52v20l12 40q0 68 -44 112v8q12 0 12 16h4l20 -8 q16 6 16 12l28 -4q15 0 36 16h4q32 0 44 -28q36 -27 36 -72l-12 -56q10 -36 32 -60h8l-4 -16l20 -64l-4 -4q0 -51 24 -64q0 -22 76 -124q0 -47 20 -60l24 -36q14 -51 68 -108q8 0 8 -20l-4 -12q25 -24 36 -24q24 26 24 72l16 20q17 0 32 48l32 20v20q0 15 32 44 q36 87 84 132l-4 24l36 56q0 29 20 48l-4 24q9 27 28 40q26 0 40 36l-12 104l4 16l-4 20q40 10 40 20h8zM53 1065h4q20 -12 20 -28h-4l-12 -8h-12l-8 8v16zM727 1803l4 -4h4l36 4h8q84 -29 84 -80v-4q-12 0 -12 -12l-4 -4h-4l-12 8v-8h-4l12 -44l-24 -8v4l-24 -8l8 -16 q0 -30 -28 -40l-4 4v4l-4 -4h-4l-16 4q-11 0 -20 -20l4 -12q-28 -2 -28 -20l-36 -24h-4l-4 4q-10 0 -28 -28q-13 0 -20 -20l-12 4l-16 -4l-12 4q-26 -48 -48 -48q0 -20 -76 -20q-18 7 -28 24q2 30 32 56v8q28 0 40 60l28 12l-4 24q0 17 52 36q0 13 40 72q8 0 8 12 q15 0 28 32q27 0 40 44zM663 1535v-4h8v4h-8z" />
<glyph unicode="&#xdf;" horiz-adv-x="1290" d="M60 135l18 23l-9 17l30 44q-1 20 -4 38h10l2 9v13l-29 71l8 21l-4 5v4l25 38q-2 14 -34 37l32 34l13 8l-13 21l4 13l-4 17l13 25v21l-9 13v8q13 0 21 13l15 29l-9 59v13l17 103l9 8l46 80l12 4l-4 72h3l-3 71q30 42 30 55v4l17 6v17l4 4v4l-9 9l13 17q44 69 44 94l34 9 l21 11h4q11 32 38 41l8 -12l4 4l4 10l4 -4h4q1 34 3 36h8l17 4l13 -4q0 7 8 25q29 -7 44 -19q17 6 17 13l4 -4h5q16 0 16 21l21 -5l13 13q46 0 46 -34h55q14 0 29 13h5q0 -15 33 -34l4 5l-4 4v12h9q0 -13 37 -37q0 -17 34 -43l21 -42h9l-5 -4v-4q11 -36 26 -50 q33 -20 58 -80l-4 -34l17 -42q-21 -28 -21 -59h-4l17 -33q-11 0 -30 -38q-11 0 -17 -59q-25 0 -25 -21q-5 -51 -34 -51q-25 -36 -25 -58v-5q15 -42 25 -50l17 4q14 -32 47 -50q0 -21 21 -21q9 0 25 -84l17 -21v-21l8 -59q-16 0 -25 -80v-17l8 -8l-4 -21l8 -34q0 -29 -46 -50 q-15 -11 -21 -43l4 -4v-4q-6 -26 -29 -38l-8 -17l8 -25l-13 -17l-67 9l-55 -55l-5 -10v-6q-31 15 -32 33h-5l-25 -13v5l-4 -5h-13v5q-25 -21 -42 -21v-5l-4 5h-4l-34 -5q-59 0 -59 -2q0 13 -8 13h-21v-9l-29 -6l-5 4h-4q-25 -5 -25 -12h-17l-17 -4q-19 16 -33 16l-33 18 l1 58l8 42l7 45l14 17l16 4q10 -9 35 -9l25 -25l49 -19v-5l4 5l42 -5h33l64 21q8 5 16 13l26 -4q32 0 50 29q13 0 13 30q32 0 117 54l-4 5q12 0 34 75l8 9v4l-8 38l8 8l-12 4l12 47l-29 42q-13 0 -13 -13l-13 8h-4l-4 -4h-4q-33 31 -34 55l9 33q0 17 -21 17l-5 13l-12 -4 l-9 8h-4l-4 -4h-4l-4 4v-4l-21 8l-5 -4q0 33 -33 52l-2 -1l-13 4l-21 -13l-4 4h-4l-26 -8l-8 8l-63 -12l-13 4v-4l-16 -9v-12h-5l-14 29h-5v-8l-21 4l-8 -8h-17l-12 8l-26 -17q-12 0 -24 34l6 49l18 40l34 12l4 -5l9 9q62 18 73 29q9 -18 55 -29h25l13 8h4l8 -8l42 12l8 -8 q30 29 36 55h5l12 -9h4q34 11 34 34q17 0 17 46q38 16 38 59q14 0 33 84q0 17 -25 25l8 51q-67 45 -67 80q-7 21 -29 21h-4q0 -13 -13 -13q-13 33 -25 38q-34 0 -46 -14q-21 8 -68 13q0 -17 -21 -17l-4 -3h-8v20l-26 1l-21 -4l-2 -34q-5 -17 -21 -25l-17 4l-4 4h-29 q-10 -29 -17 -29h-4l-4 4h-5q-4 -93 -37 -93l-21 -4l4 -17l-21 -46v-8l-1 -34q1 -6 1 -17l-21 -33l-7 -78l-25 -82l-9 -54l-8 -24l-6 -39q-15 -25 -15 -41l-12 -4l4 -46l-8 -25l4 -26q-8 0 -25 -46q21 -33 21 -54v-5l-5 -16l5 -5v-4q-8 -15 -14 -97h-11l-1 -1q0 -16 38 -29 q0 -15 -17 -42l-25 -55q12 -38 17 -38l-13 -37q0 -68 -25 -68l-12 5v-5l-13 -4q-42 0 -42 -8h-46l-5 4l-34 -20l-22 33v32l-11 21l-4 22v29l13 -8q14 9 21 25q3 3 43 9z" />
</font>
</defs>
</svg>
